STARTFONT 2.1
FONT -FontForge-ITC Benguiat Gothic Std-Bold-R-Normal--72-690-75-75-P-379-ISO8859-1
SIZE 69 75 75
FONTBOUNDINGBOX 84 86 -12 -18
COMMENT "Generated by fontforge, http://fontforge.sourceforge.net"
COMMENT "Copyright 1990, 1995 , 2002Adobe Systems Incorporated. All Rights Reserved. ITC Benguiat Gothic is a registered trademark of International Typeface Corporation."
STARTPROPERTIES 40
FOUNDRY "FontForge"
FAMILY_NAME "ITC Benguiat Gothic Std"
WEIGHT_NAME "Bold"
SLANT "R"
SETWIDTH_NAME "Normal"
ADD_STYLE_NAME ""
PIXEL_SIZE 72
POINT_SIZE 690
RESOLUTION_X 75
RESOLUTION_Y 75
SPACING "P"
AVERAGE_WIDTH 379
CHARSET_REGISTRY "ISO8859"
CHARSET_ENCODING "1"
FONTNAME_REGISTRY ""
CHARSET_COLLECTIONS "ISOLatin1Encoding"
FONT_NAME "BenguiatGothicStd-Bold"
FACE_NAME "ITC Benguiat Gothic Std Bold"
COPYRIGHT "Copyright 1990, 1995 , 2002Adobe Systems Incorporated. All Rights Reserved. ITC Benguiat Gothic is a registered trademark of International Typeface Corporation."
FONT_VERSION "001.001"
FONT_ASCENT 50
FONT_DESCENT 22
UNDERLINE_POSITION -7
UNDERLINE_THICKNESS 4
X_HEIGHT 37
CAP_HEIGHT 49
RAW_ASCENT 691
RAW_DESCENT 309
NORM_SPACE 22
RELATIVE_WEIGHT 70
RELATIVE_SETWIDTH 50
SUPERSCRIPT_X 0
SUPERSCRIPT_Y 25
SUPERSCRIPT_SIZE 43
SUBSCRIPT_X 0
SUBSCRIPT_Y 5
SUBSCRIPT_SIZE 43
FIGURE_WIDTH 44
AVG_LOWERCASE_WIDTH 368
AVG_UPPERCASE_WIDTH 436
ENDPROPERTIES
CHARS 253
STARTCHAR space
ENCODING 32
SWIDTH 305 0
DWIDTH 22 0
BBX 1 1 0 0
BITMAP
00
ENDCHAR
STARTCHAR exclam
ENCODING 33
SWIDTH 333 0
DWIDTH 24 0
BBX 10 51 7 -1
BITMAP
1E00
7F80
FF80
FFC0
FFC0
FFC0
FFC0
FFC0
FFC0
FFC0
FFC0
FFC0
FFC0
FFC0
FFC0
FFC0
FFC0
FFC0
FFC0
FFC0
FFC0
FFC0
FFC0
FFC0
FF80
FF80
FF80
FF80
FF80
7F80
7F80
7F80
7F80
7F80
3F00
1E00
0000
0000
0000
0000
1E00
7F80
FF80
FFC0
FFC0
FFC0
FFC0
FFC0
FF80
7F80
1E00
ENDCHAR
STARTCHAR quotedbl
ENCODING 34
SWIDTH 333 0
DWIDTH 24 0
BBX 20 20 2 31
BITMAP
3C03C0
7E07E0
FF0FE0
FF0FF0
FF0FF0
FF0FF0
FF0FF0
FF0FF0
FF0FF0
FF0FF0
FF0FF0
FF0FF0
FF0FF0
FF0FF0
FF0FF0
FF0FF0
FF0FF0
FF0FE0
7E07E0
3C03C0
ENDCHAR
STARTCHAR numbersign
ENCODING 35
SWIDTH 611 0
DWIDTH 44 0
BBX 36 50 4 0
BITMAP
001FC07F00
001FC07F00
001FC07F00
001FC07F00
001F807F00
003F807F00
003F807E00
003F80FE00
003F80FE00
003F80FE00
003F80FE00
003F00FE00
003F00FE00
007F00FC00
007F01FC00
3FFFFFFFF0
3FFFFFFFF0
3FFFFFFFF0
3FFFFFFFF0
3FFFFFFFF0
3FFFFFFFF0
00FE03F800
00FE03F800
00FE03F800
00FE03F800
00FE03F800
00FC03F800
01FC03F000
01FC07F000
FFFFFFFFC0
FFFFFFFFC0
FFFFFFFFC0
FFFFFFFFC0
FFFFFFFFC0
FFFFFFFFC0
03F80FE000
03F80FE000
03F80FE000
03F80FE000
03F80FE000
03F00FE000
07F00FC000
07F01FC000
07F01FC000
07F01FC000
07F01FC000
07F01FC000
07E01FC000
0FE01F8000
0FE01F8000
ENDCHAR
STARTCHAR dollar
ENCODING 36
SWIDTH 611 0
DWIDTH 44 0
BBX 38 63 3 -7
BITMAP
0000C00000
0003F00000
0003F80000
0007F80000
0007F80000
0007F80000
0007F80000
0007F80000
0007F80000
0007F80000
0007F80000
01FFFFFF80
07FFFFFF80
1FFFFFFFC0
3FFFFFFFC0
7FFFFFFFC0
7FFFFFFF80
FFFFFFFF00
FFE0000000
FF80000000
FF80000000
FFC0000000
FFE0000000
FFFF000000
FFFFFC0000
7FFFFFF000
7FFFFFFE00
3FFFFFFF80
0FFFFFFFE0
03FFFFFFF0
003FFFFFF0
0007FFFFF8
0007F9FFF8
0007F81FFC
0007F80FFC
0007F807FC
0007F807FC
0007F807FC
0007F807FC
0007F807FC
0007F80FFC
0007F80FFC
0007F81FF8
0007F8FFF8
3FFFFFFFF0
7FFFFFFFF0
FFFFFFFFE0
FFFFFFFFC0
FFFFFFFF00
FFFFFFFE00
FFFFFFF000
7FFFFF0000
0007F80000
0007F80000
0007F80000
0007F80000
0007F80000
0007F80000
0007F80000
0007F80000
0003F80000
0003F00000
0000400000
ENDCHAR
STARTCHAR percent
ENCODING 37
SWIDTH 944 0
DWIDTH 68 0
BBX 62 52 3 -1
BITMAP
007F800001E00000
01FFF00003F00000
07FFF80007F80000
0FFFFC0007F80000
1FFFFE000FF80000
3FFFFF000FF80000
3FFFFF801FF00000
7FFFFF801FF00000
7FE0FFC03FE00000
7FC07FC03FE00000
FF807FC03FE00000
FF803FC07FC00000
FF803FC07FC00000
FF803FC0FF800000
FF803FC0FF800000
FF803FC1FF000000
7FC07FC1FF000000
7FC07FC3FE000000
7FE1FF83FE000000
3FFFFF87FC000000
3FFFFF07FC000000
1FFFFF0FF8000000
0FFFFE0FF8000000
07FFFC1FF0000000
03FFF81FF0000000
00FFE03FE01FFC00
0006003FE07FFF00
0000007FC0FFFF80
0000007FC1FFFFC0
000000FFC3FFFFE0
000000FF87FFFFF0
000000FF87FFFFF0
000001FF0FFE1FF8
000001FF0FF80FF8
000003FE0FF80FF8
000003FE0FF007FC
000007FC0FF007FC
000007FC0FF007FC
00000FF80FF007FC
00000FF80FF007FC
00001FF00FF807F8
00001FF00FF80FF8
00003FE00FFC1FF8
00003FE007FFFFF8
00007FC007FFFFF0
00007FC003FFFFE0
00007F8003FFFFE0
0000FF8001FFFFC0
0000FF80007FFF80
00007F00003FFE00
00007E000007F000
00003C0000000000
ENDCHAR
STARTCHAR ampersand
ENCODING 38
SWIDTH 778 0
DWIDTH 56 0
BBX 52 52 2 -1
BITMAP
00007F80000000
0003FFE0000000
000FFFF8000000
001FFFFC000000
003FFFFE000000
007FFFFF000000
007FFFFF000000
00FFFFFF800000
00FFC1FF800000
01FFC0FF800000
01FF80FFC00000
01FF807FC00000
01FF807FC3E000
01FF807FC7F000
01FF80FFC7F800
00FF80FF87F800
00FFC1FF87FC00
007FE3FF87FC00
007FF7FF07FC00
00FFFFFF03FC00
01FFFFFE03FC00
03FFFFFC03FC00
07FFFFF803FE00
0FFFFFF003FE00
1FFFFFE003FE00
1FFDFFF003FE00
3FF8FFF803FE00
3FF07FFC03FC00
7FE03FFE07FC00
7FE01FFF07FC00
7FC007FF87FC00
FFC003FFC7FC00
FFC001FFFFF800
FFC000FFFFF800
FFC0007FFFF800
FFC0003FFFF000
FFC0001FFFF000
FFE0000FFFF000
7FE00007FFE000
7FF00003FFE000
7FF80003FFF000
3FFC0007FFFC00
3FFF001FFFFE00
1FFFC0FFFFFF00
0FFFFFFFFFFF80
0FFFFFFFFFFFC0
07FFFFFFFBFFE0
03FFFFFFE1FFF0
00FFFFFFC0FFF0
003FFFFF003FF0
000FFFF8001FE0
0001FFC00007C0
ENDCHAR
STARTCHAR quotesingle
ENCODING 39
SWIDTH 222 0
DWIDTH 16 0
BBX 8 20 4 31
BITMAP
3C
7E
FF
FF
FF
FF
FF
FF
FF
FF
FF
FF
FF
FF
FF
FF
FF
FF
7E
3C
ENDCHAR
STARTCHAR parenleft
ENCODING 40
SWIDTH 389 0
DWIDTH 28 0
BBX 21 69 4 -17
BITMAP
0000F0
0003F8
0007F8
000FF8
001FF8
003FF8
003FF0
007FF0
00FFE0
00FFC0
01FF80
03FF00
03FF00
07FE00
07FC00
0FFC00
0FF800
1FF800
1FF000
1FF000
3FE000
3FE000
3FE000
7FE000
7FC000
7FC000
7FC000
7FC000
FF8000
FF8000
FF8000
FF8000
FF8000
FF8000
FF8000
FF8000
FF8000
FF8000
FF8000
FF8000
FFC000
7FC000
7FC000
7FC000
7FC000
7FE000
3FE000
3FE000
3FE000
1FF000
1FF000
1FF800
0FF800
0FFC00
07FC00
07FE00
03FE00
03FF00
01FF80
00FFC0
00FFE0
007FF0
003FF0
003FF8
001FF8
000FF8
0007F8
0003F8
0000F0
ENDCHAR
STARTCHAR parenright
ENCODING 41
SWIDTH 389 0
DWIDTH 28 0
BBX 21 69 3 -17
BITMAP
780000
FE0000
FF0000
FF8000
FFC000
FFE000
7FE000
7FF000
3FF800
1FF800
0FFC00
07FE00
07FE00
03FF00
01FF00
01FF80
00FF80
00FFC0
007FC0
007FC0
007FE0
003FE0
003FE0
003FF0
001FF0
001FF0
001FF0
001FF0
001FF8
000FF8
000FF8
000FF8
000FF8
000FF8
000FF8
000FF8
000FF8
000FF8
000FF8
000FF8
001FF8
001FF0
001FF0
001FF0
001FF0
003FF0
003FE0
003FE0
007FE0
007FC0
007FC0
00FFC0
00FF80
01FF80
01FF00
03FF00
07FE00
07FE00
0FFC00
1FF800
3FF800
7FF000
7FE000
FFE000
FFC000
FF8000
FF0000
FE0000
780000
ENDCHAR
STARTCHAR asterisk
ENCODING 42
SWIDTH 444 0
DWIDTH 32 0
BBX 24 26 4 25
BITMAP
003C00
007E00
007E00
007E00
007E00
7C7E3E
FE7C7F
FF3CFF
FFBDFF
FFFFFE
3FFFFC
07FFE0
007E00
03FFC0
1FFFF8
7FFFFE
7FBDFE
FF3CFF
FE7EFF
7E7E7E
387E1C
007E00
007E00
007E00
007E00
001800
ENDCHAR
STARTCHAR plus
ENCODING 43
SWIDTH 600 0
DWIDTH 43 0
BBX 37 37 3 0
BITMAP
0001FC0000
0001FC0000
0001FC0000
0001FC0000
0001FC0000
0001FC0000
0001FC0000
0001FC0000
0001FC0000
0001FC0000
0001FC0000
0001FC0000
0001FC0000
0001FC0000
0001FC0000
FFFFFFFFF8
FFFFFFFFF8
FFFFFFFFF8
FFFFFFFFF8
FFFFFFFFF8
FFFFFFFFF8
FFFFFFFFF8
FFFFFFFFF8
0001FC0000
0001FC0000
0001FC0000
0001FC0000
0001FC0000
0001FC0000
0001FC0000
0001FC0000
0001FC0000
0001FC0000
0001FC0000
0001FC0000
0001FC0000
0001FC0000
ENDCHAR
STARTCHAR comma
ENCODING 44
SWIDTH 305 0
DWIDTH 22 0
BBX 13 20 4 -7
BITMAP
03C0
07F0
0FF0
0FF8
1FF8
1FF8
1FF0
3FF0
3FE0
3FE0
7FE0
7FC0
7FC0
FF80
FF80
FF00
FF00
FE00
FE00
7C00
ENDCHAR
STARTCHAR hyphen
ENCODING 45
SWIDTH 333 0
DWIDTH 24 0
BBX 18 8 3 14
BITMAP
3FFF00
7FFF80
FFFFC0
FFFFC0
FFFFC0
FFFFC0
7FFF80
3FFF00
ENDCHAR
STARTCHAR period
ENCODING 46
SWIDTH 305 0
DWIDTH 22 0
BBX 10 10 6 -1
BITMAP
3F00
7F80
FFC0
FFC0
FFC0
FFC0
FFC0
FF80
7F80
1E00
ENDCHAR
STARTCHAR slash
ENCODING 47
SWIDTH 278 0
DWIDTH 20 0
BBX 24 52 -2 -1
BITMAP
00003C
00007E
0000FF
0000FF
0001FF
0001FF
0001FF
0003FE
0003FE
0007FE
0007FC
0007FC
000FFC
000FF8
000FF8
001FF0
001FF0
001FF0
003FE0
003FE0
007FE0
007FC0
007FC0
00FFC0
00FF80
00FF80
01FF00
01FF00
01FF00
03FE00
03FE00
07FE00
07FC00
07FC00
0FFC00
0FF800
0FF800
1FF000
1FF000
1FF000
3FE000
3FE000
7FE000
7FC000
7FC000
FFC000
FF8000
FF8000
FF0000
FF0000
7E0000
3C0000
ENDCHAR
STARTCHAR zero
ENCODING 48
SWIDTH 611 0
DWIDTH 44 0
BBX 40 52 2 -1
BITMAP
0001FF0000
000FFFE000
003FFFF800
007FFFFE00
00FFFFFF00
01FFFFFF80
03FFFFFFC0
07FFFFFFE0
07FFFFFFE0
0FFF00FFF0
1FFE007FF0
1FFC003FF8
1FF8001FF8
3FF0001FFC
3FF0000FFC
3FF0000FFC
7FE00007FE
7FE00007FE
7FE00007FE
7FC00003FE
7FC00003FE
FFC00003FE
FFC00003FF
FFC00003FF
FFC00003FF
FFC00003FF
FFC00003FF
FFC00003FF
FFC00003FF
FFC00003FF
FFC00003FE
7FC00003FE
7FC00003FE
7FE00007FE
7FE00007FE
7FE00007FE
3FE0000FFC
3FF0000FFC
3FF0001FFC
1FF8001FF8
1FFC003FF8
1FFE007FF0
0FFF01FFF0
07FFFFFFE0
07FFFFFFE0
03FFFFFFC0
01FFFFFF80
00FFFFFF00
007FFFFE00
003FFFF800
000FFFF000
0000FF0000
ENDCHAR
STARTCHAR one
ENCODING 49
SWIDTH 611 0
DWIDTH 44 0
BBX 35 51 6 0
BITMAP
0001F00000
0007FC0000
003FFC0000
07FFFC0000
3FFFFE0000
7FFFFE0000
7FFFFE0000
FFFFFE0000
7FFFFE0000
7FFFFE0000
3FE7FE0000
0007FE0000
0007FE0000
0007FE0000
0007FE0000
0007FE0000
0007FE0000
0007FE0000
0007FE0000
0007FE0000
0007FE0000
0007FE0000
0007FE0000
0007FE0000
0007FE0000
0007FE0000
0007FE0000
0007FE0000
0007FE0000
0007FE0000
0007FE0000
0007FE0000
0007FE0000
0007FE0000
0007FE0000
0007FE0000
0007FE0000
0007FE0000
0007FE0000
0007FE0000
0007FE0000
0007FE0000
0007FE0000
3FFFFFFF80
7FFFFFFFC0
7FFFFFFFE0
7FFFFFFFE0
7FFFFFFFE0
7FFFFFFFE0
3FFFFFFFC0
1FFFFFFF80
ENDCHAR
STARTCHAR two
ENCODING 50
SWIDTH 611 0
DWIDTH 44 0
BBX 38 50 3 0
BITMAP
0FFFFFC000
1FFFFFF800
3FFFFFFE00
3FFFFFFF00
3FFFFFFF80
3FFFFFFFC0
3FFFFFFFE0
1FFFFFFFE0
07FFFFFFF0
000000FFF0
0000007FF0
0000007FF0
0000003FF0
0000003FF0
0000007FF0
0000007FF0
0000007FF0
000000FFF0
000001FFE0
000003FFE0
00000FFFC0
00003FFFC0
00007FFF80
0001FFFF00
0007FFFE00
000FFFF800
003FFFF000
00FFFFE000
01FFFF8000
03FFFE0000
07FFF80000
0FFFE00000
1FFF800000
3FFE000000
7FFC000000
7FF8000000
7FE0000000
FFE0000000
FFC0000000
FFC0000000
FFC0000000
FFC0000000
FFFFFFFFF0
FFFFFFFFF8
FFFFFFFFFC
FFFFFFFFFC
FFFFFFFFFC
7FFFFFFFFC
7FFFFFFFF8
1FFFFFFFF0
ENDCHAR
STARTCHAR three
ENCODING 51
SWIDTH 611 0
DWIDTH 44 0
BBX 39 50 3 0
BITMAP
1FFFFFFF00
3FFFFFFFC0
7FFFFFFFE0
7FFFFFFFE0
7FFFFFFFE0
7FFFFFFFE0
3FFFFFFFE0
1FFFFFFFC0
000007FF80
00001FFF00
00007FFC00
0000FFF800
0003FFE000
000FFF8000
003FFF0000
007FFC0000
01FFF00000
03FFFFC000
07FFFFF800
07FFFFFE00
07FFFFFF00
07FFFFFFC0
03FFFFFFE0
01FFFFFFE0
00000FFFF0
000001FFF8
0000007FF8
0000003FFC
0000001FFC
0000000FFC
0000000FFE
00000007FE
00000007FE
00000007FE
00000007FE
00000007FE
00000007FE
0000000FFC
0000001FFC
0000003FFC
000000FFF8
1FFFFFFFF8
7FFFFFFFF0
FFFFFFFFE0
FFFFFFFFC0
FFFFFFFF80
FFFFFFFF00
FFFFFFFC00
7FFFFFF000
3FFFFF8000
ENDCHAR
STARTCHAR four
ENCODING 52
SWIDTH 611 0
DWIDTH 44 0
BBX 43 52 1 -1
BITMAP
000000FC0000
000007FF0000
00001FFF0000
00003FFF8000
0000FFFF8000
0001FFFF8000
0003FFFF8000
0007FFFF8000
000FFFFF8000
001FFFFF8000
003FFEFF8000
003FF8FF8000
007FF0FF8000
00FFE0FF8000
01FFC0FF8000
01FF80FF8000
03FF00FF8000
03FE00FF8000
07FC00FF8000
07FC00FF8000
0FF800FF8000
0FF000FF8000
1FF000FF8000
1FE000FF8000
3FE000FF8000
3FE000FF8000
3FC000FF8000
7FC000FF8000
7FC000FF8000
7F8000FF8000
FF8000FF8000
FF8000FF8000
FFFFFFFFFF80
FFFFFFFFFFC0
FFFFFFFFFFC0
FFFFFFFFFFE0
FFFFFFFFFFE0
7FFFFFFFFFC0
7FFFFFFFFFC0
1FFFFFFFFF80
000000FF8000
000000FF8000
000000FF8000
000000FF8000
000000FF8000
000000FF8000
000000FF8000
000000FF8000
000000FF8000
000000FF8000
0000007F0000
0000003E0000
ENDCHAR
STARTCHAR five
ENCODING 53
SWIDTH 611 0
DWIDTH 44 0
BBX 39 50 3 0
BITMAP
07FFFFFF00
0FFFFFFF80
1FFFFFFFC0
1FFFFFFFC0
1FFFFFFFC0
1FFFFFFFC0
1FFFFFFF80
1FFFFFFF80
1FF0000000
1FF0000000
3FF0000000
3FF0000000
3FF0000000
3FF0000000
3FF0000000
3FFFFC0000
3FFFFFC000
3FFFFFF000
3FFFFFFC00
3FFFFFFF00
3FFFFFFF80
3FFFFFFFE0
1FFFFFFFE0
00001FFFF0
000001FFF8
0000007FFC
0000003FFC
0000001FFC
0000000FFE
00000007FE
00000007FE
00000007FE
00000003FE
00000003FE
00000003FE
00000003FE
00000007FE
00000007FE
0000000FFE
0000001FFC
0000007FFC
000003FFF8
7FFFFFFFF8
FFFFFFFFF0
FFFFFFFFE0
FFFFFFFFC0
FFFFFFFF00
FFFFFFFE00
7FFFFFF000
3FFFFF0000
ENDCHAR
STARTCHAR six
ENCODING 54
SWIDTH 611 0
DWIDTH 44 0
BBX 40 52 2 -1
BITMAP
0000FFFFF0
0007FFFFFC
001FFFFFFC
003FFFFFFC
00FFFFFFFC
01FFFFFFFC
01FFFFFFFC
03FFFFFFF8
07FFF00000
0FFF800000
0FFE000000
1FFC000000
1FF8000000
1FF8000000
3FF0000000
3FF03FE000
3FF1FFFC00
7FE7FFFF00
7FEFFFFF80
7FFFFFFFE0
7FFFFFFFF0
7FFFFFFFF0
7FFFFFFFF8
FFFFE1FFFC
FFFF007FFC
FFFE001FFE
FFFC000FFE
FFF80007FE
FFF00007FF
FFF00003FF
FFF00003FF
7FE00003FF
7FE00003FF
7FE00003FF
7FE00003FF
7FE00003FF
7FF00003FF
3FF00003FF
3FF00007FE
3FF80007FE
1FFC000FFE
1FFE001FFC
0FFF003FFC
0FFFC1FFF8
07FFFFFFF8
03FFFFFFF0
01FFFFFFE0
00FFFFFFC0
007FFFFF80
003FFFFE00
0007FFF800
0000FF8000
ENDCHAR
STARTCHAR seven
ENCODING 55
SWIDTH 611 0
DWIDTH 44 0
BBX 35 51 5 -1
BITMAP
3FFFFFFF80
7FFFFFFFC0
FFFFFFFFC0
FFFFFFFFE0
FFFFFFFFE0
FFFFFFFFE0
7FFFFFFFE0
3FFFFFFFE0
0000007FE0
0000007FC0
000000FFC0
000000FFC0
000001FF80
000001FF80
000003FF80
000003FF00
000007FF00
00000FFE00
00000FFE00
00001FFC00
00003FF800
00007FF800
00007FF000
0000FFE000
0001FFE000
0003FFC000
0003FF8000
0007FF0000
000FFF0000
000FFE0000
001FFC0000
001FFC0000
003FF80000
003FF80000
003FF00000
007FF00000
007FE00000
007FE00000
00FFC00000
00FFC00000
00FFC00000
00FFC00000
00FFC00000
00FFC00000
00FFC00000
00FFC00000
007FC00000
007FC00000
003FC00000
003F800000
000F000000
ENDCHAR
STARTCHAR eight
ENCODING 56
SWIDTH 611 0
DWIDTH 44 0
BBX 40 52 2 -1
BITMAP
0001FF8000
001FFFF000
007FFFFE00
00FFFFFF00
01FFFFFF80
03FFFFFFC0
07FFFFFFE0
0FFFFFFFF0
0FFF80FFF0
1FFE007FF8
1FFC003FF8
1FF8001FF8
3FF8001FFC
3FF8001FFC
3FF8001FFC
1FF8001FF8
1FFC003FF8
1FFE007FF8
0FFF00FFF0
0FFFFFFFF0
07FFFFFFE0
03FFFFFFC0
01FFFFFF80
03FFFFFFC0
07FFFFFFE0
0FFFFFFFF0
1FFFFFFFF8
3FFF81FFFC
7FFC003FFC
7FF8001FFE
7FF0000FFE
FFE00007FF
FFE00007FF
FFC00003FF
FFC00003FF
FFC00003FF
FFC00003FF
FFC00007FF
FFE00007FF
FFF0000FFF
7FF0001FFE
7FFC003FFE
7FFE00FFFE
3FFFFFFFFC
1FFFFFFFF8
1FFFFFFFF8
0FFFFFFFF0
03FFFFFFC0
01FFFFFF80
007FFFFE00
001FFFF800
0001FF8000
ENDCHAR
STARTCHAR nine
ENCODING 57
SWIDTH 611 0
DWIDTH 44 0
BBX 40 52 2 -1
BITMAP
0001FF0000
001FFFE000
007FFFFC00
01FFFFFE00
03FFFFFF00
07FFFFFF80
0FFFFFFFC0
1FFFFFFFE0
1FFF87FFF0
3FFC00FFF0
3FF8007FF8
7FF0003FF8
7FE0001FFC
7FE0000FFC
FFC0000FFC
FFC0000FFE
FFC00007FE
FFC00007FE
FFC00007FE
FFC00007FE
FFC00007FE
FFC0000FFE
FFC0000FFF
FFE0000FFF
7FE0001FFF
7FF0003FFF
7FF8007FFF
3FFC00FFFF
3FFF83FFFE
1FFFFFFFFE
0FFFFFFFFE
0FFFFFFFFE
07FFFFFFFE
03FFFFF7FE
00FFFFE7FE
003FFF8FFC
0007FC0FFC
0000000FFC
0000001FF8
0000001FF8
0000003FF8
0000007FF0
000001FFF0
00000FFFE0
1FFFFFFFC0
3FFFFFFF80
3FFFFFFF80
3FFFFFFE00
3FFFFFFC00
3FFFFFF800
3FFFFFE000
0FFFFF0000
ENDCHAR
STARTCHAR colon
ENCODING 58
SWIDTH 305 0
DWIDTH 22 0
BBX 10 31 6 -1
BITMAP
1E00
7F80
FF80
FFC0
FFC0
FFC0
FFC0
FFC0
7F80
3F00
0000
0000
0000
0000
0000
0000
0000
0000
0000
0000
0000
3F00
7F80
FFC0
FFC0
FFC0
FFC0
FFC0
FF80
7F80
1E00
ENDCHAR
STARTCHAR semicolon
ENCODING 59
SWIDTH 305 0
DWIDTH 22 0
BBX 13 38 3 -8
BITMAP
0FC0
1FE0
1FF0
3FF0
3FF0
3FF0
3FF0
1FF0
1FE0
07C0
0000
0000
0000
0000
0000
0000
0000
0000
03E0
07F0
0FF8
0FF8
1FF8
1FF8
1FF0
3FF0
3FF0
3FE0
7FE0
7FC0
7FC0
FF80
FF80
FF00
FF00
FF00
7E00
3800
ENDCHAR
STARTCHAR less
ENCODING 60
SWIDTH 600 0
DWIDTH 43 0
BBX 37 37 3 0
BITMAP
0000000008
0000000078
00000001F8
0000000FF8
0000003FF8
000001FFF8
000007FFF8
00003FFFF8
0000FFFFE0
0007FFFF80
001FFFFC00
00FFFFF000
03FFFF8000
1FFFFE0000
7FFFF00000
FFFFC00000
FFFE000000
FFF8000000
FFC0000000
FFF8000000
FFFE000000
FFFFC00000
7FFFF00000
1FFFFE0000
03FFFF8000
00FFFFF000
001FFFFC00
0007FFFF80
0000FFFFE0
00003FFFF8
000007FFF8
000001FFF8
0000003FF8
0000000FF8
00000001F8
0000000078
0000000008
ENDCHAR
STARTCHAR equal
ENCODING 61
SWIDTH 600 0
DWIDTH 43 0
BBX 37 22 3 7
BITMAP
FFFFFFFFF8
FFFFFFFFF8
FFFFFFFFF8
FFFFFFFFF8
FFFFFFFFF8
FFFFFFFFF8
FFFFFFFFF8
0000000000
0000000000
0000000000
0000000000
0000000000
0000000000
0000000000
0000000000
FFFFFFFFF8
FFFFFFFFF8
FFFFFFFFF8
FFFFFFFFF8
FFFFFFFFF8
FFFFFFFFF8
FFFFFFFFF8
ENDCHAR
STARTCHAR greater
ENCODING 62
SWIDTH 600 0
DWIDTH 43 0
BBX 37 37 3 0
BITMAP
C000000000
F000000000
FE00000000
FF80000000
FFE0000000
FFFC000000
FFFF000000
FFFFE00000
3FFFF80000
0FFFFF0000
01FFFFC000
007FFFF800
000FFFFE00
0003FFFFC0
00007FFFF0
00001FFFF8
000003FFF8
0000007FF8
0000001FF8
0000007FF8
000003FFF8
00000FFFF8
00007FFFF0
0003FFFFC0
000FFFFE00
007FFFF800
01FFFFC000
0FFFFF0000
3FFFF80000
FFFFE00000
FFFF800000
FFFC000000
FFF0000000
FF80000000
FE00000000
F000000000
C000000000
ENDCHAR
STARTCHAR question
ENCODING 63
SWIDTH 500 0
DWIDTH 36 0
BBX 32 51 1 -1
BITMAP
3FFFFF00
7FFFFFC0
7FFFFFF0
FFFFFFF8
FFFFFFFC
7FFFFFFE
7FFFFFFE
3FFFFFFF
00000FFF
000003FF
000003FF
000003FF
000003FF
000003FF
000007FF
000007FE
00000FFE
00001FFE
00007FFC
0000FFF8
0003FFF0
0007FFE0
000FFFC0
001FFF80
003FFE00
003FFC00
007FF000
007FE000
007FC000
007FC000
007FC000
007FC000
007F8000
007F8000
003F0000
001E0000
00000000
00000000
00000000
00000000
001E0000
007F8000
007FC000
00FFC000
00FFC000
00FFC000
00FFC000
00FFC000
00FFC000
007F8000
001E0000
ENDCHAR
STARTCHAR at
ENCODING 64
SWIDTH 800 0
DWIDTH 58 0
BBX 51 52 3 -1
BITMAP
000003FF000000
00003FFFF00000
0001FFFFFE0000
0007FFFFFF0000
000FFFFFFFC000
003FFF01FFF000
007FF0001FF800
00FF800007FC00
01FF000003FE00
03FC000000FE00
07F80000007F00
07F00000003F80
0FF003F8003F80
1FE00FFE1F9FC0
1FC03FFF9F8FC0
3FC07FFFDF8FC0
3F80FFFFFF0FE0
3F81FFFFFF07E0
7F03FFFFFF07E0
7F03FE03FF07E0
7F07FC01FF07E0
7F07F801FE07E0
FE07F000FE07E0
FE0FF000FE07E0
FE0FE000FE07E0
FE0FE000FC07E0
FE0FE000FC07E0
FE1FE000FC07C0
FE1FE000FC07C0
FE1FE001FC0FC0
7F1FE001F80F80
7F0FE003F81F80
7F0FF007F81F00
7F0FF00FF83E00
3F8FFC3FF8FE00
3F87FFFFFFFC00
3FC7FFFFFFF800
1FC3FFFFFFF000
1FE1FFFBFFC000
0FF0FFF3FF8000
07F03FC1FE0000
07F80000003F00
03FE0000007E00
01FF000001FE00
00FFC00007FC00
007FF0001FF800
003FFF01FFF000
000FFFFFFFC000
0003FFFFFF8000
0000FFFFFE0000
00003FFFF00000
000003FF800000
ENDCHAR
STARTCHAR A
ENCODING 65
SWIDTH 667 0
DWIDTH 48 0
BBX 44 51 2 0
BITMAP
00001F000000
00007FC00000
0000FFE00000
0001FFF00000
0001FFF80000
0003FFF80000
0007FFFC0000
0007FFFC0000
000FFFFE0000
000FFBFF0000
001FF9FF0000
001FF1FF8000
003FE0FF8000
007FE0FFC000
007FC07FC000
007FC07FE000
00FF803FE000
00FF803FF000
01FF001FF000
01FF001FF000
03FE000FF800
03FE000FF800
07FFF007FC00
07FFFF07FC00
07FFFFC7FE00
0FFFFFF3FE00
0FFFFFFFFE00
0FFFFFFFFF00
1FFFFFFFFF00
1FF03FFFFF00
1FF003FFFF80
3FF000FFFF80
3FE0003FFF80
3FE0001FFFC0
3FE00007FFC0
7FE00003FFC0
7FC00001FFE0
7FC00001FFE0
7FC00000FFE0
FFC000007FE0
FFC000007FE0
FFC000003FF0
FF8000003FF0
FF8000003FF0
FF8000003FF0
FF8000001FF0
FF8000001FF0
FF8000001FF0
FF0000000FE0
7F0000000FE0
3E00000007C0
ENDCHAR
STARTCHAR B
ENCODING 66
SWIDTH 611 0
DWIDTH 44 0
BBX 37 50 5 0
BITMAP
3FFFFFF000
7FFFFFFC00
FFFFFFFE00
FFFFFFFF00
FFFFFFFF80
FFFFFFFF80
FFFFFFFFC0
FFFFFFFFC0
FF8001FFC0
FF8000FFC0
FF80007FC0
FF80007FC0
FF80007FC0
FF80007FC0
FF8000FFC0
FFFE00FF80
FFFFE1FF80
FFFFFFFF00
FFFFFFFF00
FFFFFFFE00
FFFFFFF800
FFFFFFF800
FF8FFFFC00
FF80FFFE00
FF803FFF00
FF800FFF80
FF8003FFC0
FF8001FFC0
FF8000FFE0
FF80007FE0
FF80003FF0
FF80003FF0
FF80001FF0
FF80001FF8
FF80001FF8
FF80001FF8
FF80001FF8
FF80001FF8
FF80001FF0
FF80003FF0
FF80007FF0
FF8007FFF0
FFFFFFFFE0
FFFFFFFFE0
FFFFFFFFC0
FFFFFFFF80
FFFFFFFF00
FFFFFFFE00
7FFFFFF800
3FFFFFE000
ENDCHAR
STARTCHAR C
ENCODING 67
SWIDTH 611 0
DWIDTH 44 0
BBX 39 51 3 -1
BITMAP
0003FFFFF8
001FFFFFFC
007FFFFFFC
01FFFFFFFE
03FFFFFFFE
07FFFFFFFE
0FFFFFFFFC
0FFFFFFFFC
1FFFFFFFE0
1FFF000000
3FFC000000
3FF8000000
7FF0000000
7FF0000000
7FE0000000
7FE0000000
FFE0000000
FFE0000000
FFC0000000
FFC0000000
FFC0000000
FFC0000000
FFC0000000
FFC0000000
FFE0000000
FFE0000000
7FE0000000
7FE0000000
7FF0000000
7FF0000000
7FF8000000
3FF8000000
3FFC000000
1FFE000000
1FFF000000
0FFF000000
0FFFC00000
07FFE00000
03FFF00000
03FFFC0000
01FFFF8000
00FFFFF800
007FFFFFF8
003FFFFFFC
000FFFFFFE
0007FFFFFE
0001FFFFFE
00007FFFFE
00001FFFFE
000003FFFC
0000003FF0
ENDCHAR
STARTCHAR D
ENCODING 68
SWIDTH 667 0
DWIDTH 48 0
BBX 40 50 5 0
BITMAP
1FF8000000
7FFFC00000
FFFFF80000
FFFFFF0000
FFFFFFC000
FFFFFFF000
FFFFFFF800
FFFFFFFC00
FFFFFFFE00
FF81FFFF00
FF803FFF80
FF801FFFC0
FF8007FFE0
FF8003FFF0
FF8000FFF0
FF80007FF8
FF80007FF8
FF80003FFC
FF80001FFC
FF80001FFE
FF80000FFE
FF80000FFE
FF800007FF
FF800007FF
FF800007FF
FF800003FF
FF800003FF
FF800003FF
FF800003FF
FF800003FF
FF800003FF
FF800003FF
FF800003FF
FF800003FF
FF800003FF
FF800007FF
FF800007FE
FF80000FFE
FF80001FFE
FF80003FFC
FF8001FFFC
FFFFFFFFF8
FFFFFFFFF0
FFFFFFFFF0
FFFFFFFFE0
FFFFFFFFC0
FFFFFFFF00
FFFFFFFE00
7FFFFFF800
3FFFFFC000
ENDCHAR
STARTCHAR E
ENCODING 69
SWIDTH 556 0
DWIDTH 40 0
BBX 32 50 5 0
BITMAP
3FFFFFFC
7FFFFFFE
FFFFFFFF
FFFFFFFF
FFFFFFFF
FFFFFFFF
FFFFFFFE
FFFFFFFC
FF800000
FF800000
FF800000
FF800000
FF800000
FF800000
FF800000
FFFFFFF8
FFFFFFFC
FFFFFFFE
FFFFFFFE
FFFFFFFE
FFFFFFFE
FFFFFFFC
FFFFFFF8
FF800000
FF800000
FF800000
FF800000
FF800000
FF800000
FF800000
FF800000
FF800000
FF800000
FF800000
FF800000
FF800000
FF800000
FF800000
FF800000
FF800000
FF800000
FF800000
FFFFFFFC
FFFFFFFE
FFFFFFFF
FFFFFFFF
FFFFFFFF
7FFFFFFF
7FFFFFFE
1FFFFFFC
ENDCHAR
STARTCHAR F
ENCODING 70
SWIDTH 500 0
DWIDTH 36 0
BBX 30 50 5 0
BITMAP
3FFFFFF0
7FFFFFF8
FFFFFFFC
FFFFFFFC
FFFFFFFC
FFFFFFFC
FFFFFFFC
FFFFFFF8
FF800000
FF800000
FF800000
FF800000
FF800000
FF800000
FF800000
FFFFFFF0
FFFFFFF8
FFFFFFF8
FFFFFFFC
FFFFFFFC
FFFFFFF8
FFFFFFF8
FFFFFFF0
FF800000
FF800000
FF800000
FF800000
FF800000
FF800000
FF800000
FF800000
FF800000
FF800000
FF800000
FF800000
FF800000
FF800000
FF800000
FF800000
FF800000
FF800000
FF800000
FF800000
FF800000
FF800000
FF800000
FF800000
FF800000
7F000000
3E000000
ENDCHAR
STARTCHAR G
ENCODING 71
SWIDTH 722 0
DWIDTH 52 0
BBX 45 51 3 -1
BITMAP
0001FFFFFF80
001FFFFFFFC0
007FFFFFFFC0
00FFFFFFFFE0
03FFFFFFFFE0
07FFFFFFFFE0
07FFFFFFFFC0
0FFFFFFFFFC0
1FFFFFFFFE00
3FFF80000000
3FFE00000000
7FF800000000
7FF800000000
7FF000000000
FFE000000000
FFE000000000
FFC003FFFFE0
FFC007FFFFF0
FFC007FFFFF8
FFC007FFFFF8
FFC007FFFFF8
FFC007FFFFF8
FFC003FFFFF8
FFC001FFFFF8
FFC000000FF8
FFC000000FF8
FFC000000FF8
FFE000000FF8
FFE000000FF8
7FE000000FF8
7FF000000FF8
7FF800000FF8
3FF800000FF8
3FFC00000FF8
1FFE00000FF8
1FFF00000FF8
0FFF80000FF8
07FFC0000FF8
07FFF0000FF8
03FFFC000FF8
01FFFF000FF8
00FFFFF00FF8
007FFFFFFFF8
001FFFFFFFF8
000FFFFFFFF8
0007FFFFFFF8
0001FFFFFFF8
00007FFFFFF8
00000FFFFFF0
000001FFFFE0
0000000FFF80
ENDCHAR
STARTCHAR H
ENCODING 72
SWIDTH 611 0
DWIDTH 44 0
BBX 34 50 5 0
BITMAP
3C00000F00
7F00003F80
FF00003FC0
FF00007FC0
FF80007FC0
FF80007FC0
FF80007FC0
FF80007FC0
FF80007FC0
FF80007FC0
FF80007FC0
FF80007FC0
FF80007FC0
FF80007FC0
FF80007FC0
FFFFFFFFC0
FFFFFFFFC0
FFFFFFFFC0
FFFFFFFFC0
FFFFFFFFC0
FFFFFFFFC0
FFFFFFFFC0
FFFFFFFFC0
FF80007FC0
FF80007FC0
FF80007FC0
FF80007FC0
FF80007FC0
FF80007FC0
FF80007FC0
FF80007FC0
FF80007FC0
FF80007FC0
FF80007FC0
FF80007FC0
FF80007FC0
FF80007FC0
FF80007FC0
FF80007FC0
FF80007FC0
FF80007FC0
FF80007FC0
FF80007FC0
FF80007FC0
FF80007FC0
FF80007FC0
FF00007FC0
FF00003FC0
7F00003F80
3C00000F00
ENDCHAR
STARTCHAR I
ENCODING 73
SWIDTH 278 0
DWIDTH 20 0
BBX 10 50 5 0
BITMAP
1E00
7F00
7F80
7F80
FFC0
FFC0
FFC0
FFC0
FFC0
FFC0
FFC0
FFC0
FFC0
FFC0
FFC0
FFC0
FFC0
FFC0
FFC0
FFC0
FFC0
FFC0
FFC0
FFC0
FFC0
FFC0
FFC0
FFC0
FFC0
FFC0
FFC0
FFC0
FFC0
FFC0
FFC0
FFC0
FFC0
FFC0
FFC0
FFC0
FFC0
FFC0
FFC0
FFC0
FFC0
FFC0
7F80
7F80
7F00
1E00
ENDCHAR
STARTCHAR J
ENCODING 74
SWIDTH 444 0
DWIDTH 32 0
BBX 28 51 -1 -1
BITMAP
000003C0
00000FE0
00000FF0
00001FF0
00001FF0
00001FF0
00001FF0
00001FF0
00001FF0
00001FF0
00001FF0
00001FF0
00001FF0
00001FF0
00001FF0
00001FF0
00001FF0
00001FF0
00001FF0
00001FF0
00001FF0
00001FF0
00001FF0
00001FF0
00001FF0
00001FF0
00001FF0
00001FF0
00001FF0
00001FF0
00001FF0
00001FF0
00001FF0
00001FF0
00001FF0
00001FF0
00001FF0
00001FF0
00001FF0
00003FF0
3E003FF0
7F80FFF0
FFFFFFE0
FFFFFFE0
FFFFFFC0
FFFFFF80
7FFFFF80
3FFFFE00
1FFFFC00
07FFF000
00FF8000
ENDCHAR
STARTCHAR K
ENCODING 75
SWIDTH 611 0
DWIDTH 44 0
BBX 38 50 5 0
BITMAP
3E00000F00
7F00001FC0
FF80003FC0
FF80003FE0
FF80003FE0
FF80007FE0
FF80007FC0
FF8000FFC0
FF8000FFC0
FF8001FF80
FF8001FF80
FF8003FF00
FF8007FF00
FF801FFE00
FF803FFC00
FFF8FFF800
FFFFFFF000
FFFFFFE000
FFFFFF8000
FFFFFF0000
FFFFFFC000
FFFFFFE000
FFFFFFF000
FF83FFF800
FF807FFC00
FF801FFE00
FF800FFF00
FF8007FF00
FF8003FF80
FF8001FFC0
FF8000FFC0
FF80007FE0
FF80007FE0
FF80003FF0
FF80003FF0
FF80001FF0
FF80001FF8
FF80001FF8
FF80000FF8
FF80000FF8
FF80000FF8
FF80000FFC
FF80000FFC
FF800007FC
FF800007FC
FF800007FC
FF800007F8
FF800007F8
7F000003F8
3E000001E0
ENDCHAR
STARTCHAR L
ENCODING 76
SWIDTH 444 0
DWIDTH 32 0
BBX 28 50 5 0
BITMAP
1E000000
7F000000
7F800000
FF800000
FF800000
FF800000
FF800000
FF800000
FF800000
FF800000
FF800000
FF800000
FF800000
FF800000
FF800000
FF800000
FF800000
FF800000
FF800000
FF800000
FF800000
FF800000
FF800000
FF800000
FF800000
FF800000
FF800000
FF800000
FF800000
FF800000
FF800000
FF800000
FF800000
FF800000
FF800000
FF800000
FF800000
FF800000
FF800000
FF800000
FF800000
FFFFFF00
FFFFFFE0
FFFFFFE0
FFFFFFF0
FFFFFFF0
FFFFFFF0
7FFFFFE0
3FFFFFE0
1FFFFFC0
ENDCHAR
STARTCHAR M
ENCODING 77
SWIDTH 722 0
DWIDTH 52 0
BBX 44 50 4 0
BITMAP
03F00000FC00
07F80001FE00
0FFC0003FF00
0FFE0007FF00
1FFE0007FF80
1FFE000FFF80
1FFF000FFF80
1FFF000FFF80
1FFF801FFF80
3FFF801FFF80
3FFFC03FFFC0
3FFFC03FFFC0
3FFFE07FFFC0
3FDFE07FBFC0
3FDFE0FFBFC0
3FDFF0FFBFC0
7FCFF9FF3FE0
7FCFFBFF3FE0
7FC7FFFE3FE0
7FC7FFFE3FE0
7F83FFFC1FE0
7F83FFFC1FE0
7F81FFF81FE0
7F81FFF01FE0
7F80FFF01FE0
FF807FE01FF0
FF803FC01FF0
FF801F801FF0
FF8007001FF0
FF8000001FF0
FF8000001FF0
FF8000001FF0
FF8000001FF0
FF8000001FF0
FF8000001FF0
FF8000001FF0
FF8000001FF0
FF8000001FF0
FF8000001FF0
FF8000001FF0
FF8000001FF0
FF8000001FF0
FF8000001FF0
FF8000001FF0
FF8000001FF0
FF8000001FF0
FF0000001FF0
FF0000000FF0
7F0000000FE0
3E00000007C0
ENDCHAR
STARTCHAR N
ENCODING 78
SWIDTH 611 0
DWIDTH 44 0
BBX 34 50 5 0
BITMAP
3F00000F00
7FC0003F80
FFE0003FC0
FFF0007FC0
FFF0007FC0
FFF8007FC0
FFFC007FC0
FFFE007FC0
FFFF007FC0
FFFF807FC0
FFFFC07FC0
FFFFF07FC0
FFFFFC7FC0
FFBFFF7FC0
FF9FFFFFC0
FF8FFFFFC0
FF87FFFFC0
FF81FFFFC0
FF80FFFFC0
FF803FFFC0
FF800FFFC0
FF8001FFC0
FF80007FC0
FF80007FC0
FF80007FC0
FF80007FC0
FF80007FC0
FF80007FC0
FF80007FC0
FF80007FC0
FF80007FC0
FF80007FC0
FF80007FC0
FF80007FC0
FF80007FC0
FF80007FC0
FF80007FC0
FF80007FC0
FF80007FC0
FF80007FC0
FF80007FC0
FF80007FC0
FF80007FC0
FF80007FC0
FF80007FC0
FF80007FC0
FF00007FC0
FF00003FC0
7F00003F80
3C00000F00
ENDCHAR
STARTCHAR O
ENCODING 79
SWIDTH 722 0
DWIDTH 52 0
BBX 46 52 3 -1
BITMAP
00003FF00000
0001FFFE0000
000FFFFFC000
001FFFFFE000
007FFFFFF800
00FFFFFFFC00
01FFFFFFFE00
03FFFFFFFF00
07FFF87FFF80
0FFFC00FFFC0
0FFF0003FFC0
1FFE0001FFE0
3FFC0000FFE0
3FF800007FF0
3FF800007FF0
7FF000003FF8
7FF000003FF8
7FE000001FF8
FFE000001FFC
FFE000001FFC
FFC000000FFC
FFC000000FFC
FFC000000FFC
FFC000000FFC
FFC000000FFC
FFC000000FFC
FFC000000FFC
FFC000000FFC
FFC000000FFC
FFC000000FFC
FFC000000FFC
FFC000000FFC
FFE000001FFC
FFE000001FFC
7FE000001FF8
7FF000003FF8
7FF000003FF8
3FF800007FF0
3FF800007FF0
1FFC0000FFE0
1FFE0001FFE0
0FFF0003FFC0
0FFFC00FFFC0
07FFF87FFF80
03FFFFFFFF00
01FFFFFFFE00
00FFFFFFFC00
007FFFFFF800
001FFFFFE000
000FFFFFC000
0001FFFE0000
00003FF00000
ENDCHAR
STARTCHAR P
ENCODING 80
SWIDTH 556 0
DWIDTH 40 0
BBX 35 50 5 0
BITMAP
3FFFFFF000
7FFFFFFC00
FFFFFFFF00
FFFFFFFF80
FFFFFFFF80
FFFFFFFFC0
FFFFFFFFC0
FFFFFFFFE0
FF8000FFE0
FF80003FE0
FF80003FE0
FF80003FE0
FF80007FE0
FF80007FE0
FF8000FFC0
FF8003FFC0
FF8007FF80
FF801FFF80
FF807FFF00
FF81FFFE00
FF8FFFFC00
FFFFFFF800
FFFFFFF000
FFFFFFC000
FFFFFF8000
FFFFFC0000
FFFFF00000
FFFF800000
FFFE000000
FFE0000000
FF80000000
FF80000000
FF80000000
FF80000000
FF80000000
FF80000000
FF80000000
FF80000000
FF80000000
FF80000000
FF80000000
FF80000000
FF80000000
FF80000000
FF80000000
FF80000000
FF80000000
FF80000000
7F00000000
3E00000000
ENDCHAR
STARTCHAR Q
ENCODING 81
SWIDTH 722 0
DWIDTH 52 0
BBX 47 61 3 -10
BITMAP
00003FF00000
0001FFFE0000
000FFFFFC000
001FFFFFE000
007FFFFFF800
00FFFFFFFC00
01FFFFFFFE00
03FFFFFFFF00
07FFF87FFF80
0FFFC00FFFC0
0FFF0003FFC0
1FFE0001FFE0
3FFC0000FFE0
3FF800007FF0
3FF800007FF0
7FF000003FF8
7FF000003FF8
7FE000001FF8
FFE000001FFC
FFE000001FFC
FFC000000FFC
FFC000000FFC
FFC000000FFC
FFC000000FFC
FFC000000FFC
FFC000000FFC
FFC000000FFC
FFC000000FFC
FFC000000FFC
FFC000000FFC
FFC0FF800FFC
FFC1FFC00FFC
FFE1FFF01FFC
FFE1FFF81FFC
7FE1FFF81FF8
7FF1FFFC3FF8
7FF1FFFE3FF8
3FF87FFE7FF0
3FF80FFFFFF0
1FFC03FFFFE0
1FFE01FFFFE0
0FFF01FFFFC0
0FFFC0FFFFC0
07FFF8FFFF80
03FFFFFFFF00
01FFFFFFFE00
00FFFFFFFC00
007FFFFFF800
001FFFFFE000
000FFFFFF000
0001FFFFF000
00003FDFF800
0000000FFE00
0000000FFFE0
00000007FFFC
00000003FFFE
00000003FFFE
00000001FFFE
00000000FFFE
000000003FFC
000000001FF8
ENDCHAR
STARTCHAR R
ENCODING 82
SWIDTH 611 0
DWIDTH 44 0
BBX 38 50 5 0
BITMAP
3FFFFFC000
7FFFFFF800
FFFFFFFE00
FFFFFFFF00
FFFFFFFF80
FFFFFFFFC0
FFFFFFFFC0
FFFFFFFFC0
FF8001FFC0
FF80007FE0
FF80007FE0
FF80007FE0
FF80007FC0
FF80007FC0
FF8000FFC0
FFFE01FF80
FFFFE3FF80
FFFFFFFF00
FFFFFFFE00
FFFFFFFE00
FFFFFFF800
FFFFFFF000
FFFFFFF800
FF81FFFC00
FF807FFE00
FF801FFF00
FF8007FF00
FF8003FF80
FF8001FF80
FF8000FFC0
FF80007FC0
FF80007FE0
FF80003FE0
FF80003FF0
FF80001FF0
FF80001FF0
FF80001FF8
FF80000FF8
FF80000FF8
FF80000FF8
FF80000FF8
FF80000FF8
FF80000FFC
FF80000FFC
FF80000FFC
FF800007F8
FF000007F8
FF000007F8
7F000003F0
3C000001E0
ENDCHAR
STARTCHAR S
ENCODING 83
SWIDTH 611 0
DWIDTH 44 0
BBX 39 50 2 0
BITMAP
003FFFFF80
01FFFFFFC0
07FFFFFFE0
0FFFFFFFE0
1FFFFFFFE0
3FFFFFFFE0
3FFFFFFFE0
7FFFFFFFC0
7FFFFFFE00
7FE0000000
7FC0000000
7FC0000000
7FC0000000
7FE0000000
7FF8000000
7FFFC00000
3FFFFE0000
3FFFFFE000
1FFFFFF800
1FFFFFFF00
07FFFFFF80
03FFFFFFE0
00FFFFFFF0
001FFFFFF0
00007FFFF8
000003FFFC
0000007FFC
0000001FFE
0000000FFE
00000007FE
00000007FE
00000003FE
00000003FE
00000003FE
00000003FE
00000007FE
00000007FE
00000007FE
0000000FFC
0000003FFC
000000FFF8
0FFFFFFFF8
7FFFFFFFF0
FFFFFFFFE0
FFFFFFFFC0
FFFFFFFF80
FFFFFFFF00
FFFFFFFE00
7FFFFFF000
3FFFFF8000
ENDCHAR
STARTCHAR T
ENCODING 84
SWIDTH 500 0
DWIDTH 36 0
BBX 36 50 0 0
BITMAP
1FFFFFFF80
7FFFFFFFE0
7FFFFFFFE0
FFFFFFFFE0
FFFFFFFFF0
7FFFFFFFE0
7FFFFFFFE0
3FFFFFFFC0
0FFFFFFF00
0007FE0000
0007FE0000
0007FE0000
0007FE0000
0007FE0000
0007FE0000
0007FE0000
0007FE0000
0007FE0000
0007FE0000
0007FE0000
0007FE0000
0007FE0000
0007FE0000
0007FE0000
0007FE0000
0007FE0000
0007FE0000
0007FE0000
0007FE0000
0007FE0000
0007FE0000
0007FE0000
0007FE0000
0007FE0000
0007FE0000
0007FE0000
0007FE0000
0007FE0000
0007FE0000
0007FE0000
0007FE0000
0007FE0000
0007FE0000
0007FE0000
0007FE0000
0007FE0000
0003FC0000
0003FC0000
0003F80000
0000F00000
ENDCHAR
STARTCHAR U
ENCODING 85
SWIDTH 611 0
DWIDTH 44 0
BBX 36 51 4 -1
BITMAP
0F00001F00
1FC0003F80
1FC0003F80
3FE0007FC0
3FE0007FC0
3FE0007FC0
3FE0007FC0
3FE0007FC0
3FC0007FC0
3FC0007FC0
7FC0003FC0
7FC0003FE0
7FC0003FE0
7FC0003FE0
7FC0003FE0
7FC0003FE0
7FC0003FE0
7FC0003FE0
7FC0003FE0
7F80003FE0
7F80001FE0
FF80001FE0
FF80001FF0
FF80001FF0
FF80001FF0
FF80001FF0
FF80001FF0
FF80001FF0
FF80001FF0
FF00001FF0
FF00001FF0
FF00001FF0
FF00000FF0
FF00000FF0
FF00001FF0
FF80001FF0
FF80001FF0
FF80001FF0
FFC0003FF0
7FC0007FE0
7FE000FFE0
7FF801FFE0
3FFE0FFFC0
3FFFFFFF80
1FFFFFFF80
0FFFFFFF00
07FFFFFE00
03FFFFFC00
00FFFFF000
003FFFC000
0007FE0000
ENDCHAR
STARTCHAR V
ENCODING 86
SWIDTH 611 0
DWIDTH 44 0
BBX 40 51 2 -1
BITMAP
1E000000F8
7F800001FE
7F800001FE
FF800003FF
FFC00003FF
FFC00003FF
FFC00003FF
FFC00003FF
FFC00003FE
FFC00003FE
7FC00003FE
7FC00007FE
7FE00007FE
7FE00007FE
7FE00007FE
7FE00007FC
3FE00007FC
3FE0000FFC
3FF0000FFC
3FF0000FFC
1FF0000FF8
1FF0000FF8
1FF8001FF8
1FF8001FF0
0FF8001FF0
0FF8003FF0
0FFC003FF0
07FC003FE0
07FC007FE0
07FE007FE0
03FE007FC0
03FE00FFC0
03FF00FFC0
01FF00FF80
01FF81FF80
01FF81FF00
00FFC3FF00
00FFC3FF00
007FE7FE00
007FE7FE00
003FFFFC00
003FFFFC00
001FFFF800
001FFFF800
000FFFF000
000FFFE000
0007FFE000
0003FFC000
0001FF8000
0000FF0000
00007E0000
ENDCHAR
STARTCHAR W
ENCODING 87
SWIDTH 833 0
DWIDTH 60 0
BBX 56 51 2 -1
BITMAP
3E00003C000078
7F0000FE0000FE
7F8000FF0001FE
FF8001FF0001FE
FF8001FF8001FF
FF8001FF8001FF
FF8001FF8003FF
FFC001FF8003FF
FFC001FF8003FE
FFC001FF8003FE
7FC001FF8003FE
7FC001FF8003FE
7FC001FF8003FE
7FC001FF8003FE
7FC003FF8003FE
7FC003FFC003FE
7FC003FFC007FE
3FE003FFC007FC
3FE003FFC007FC
3FE003FFC007FC
3FE003FFC007FC
3FE007FFC007FC
1FE007FFE007F8
1FF007FFE00FF8
1FF007FFE00FF8
1FF007FFE00FF8
1FF00FFFE00FF0
0FF00FFFF00FF0
0FF00FE7F01FF0
0FF80FE7F01FF0
0FF81FE7F81FE0
07F81FE7F81FE0
07F81FC7F83FE0
07FC3FC3FC3FE0
07FC3FC3FC3FC0
03FC7FC3FC3FC0
03FE7F83FE7FC0
03FE7F81FE7FC0
01FEFF81FF7F80
01FFFF01FFFF80
01FFFF00FFFF80
00FFFF00FFFF00
00FFFE007FFF00
00FFFE007FFF00
007FFC003FFE00
007FFC003FFE00
007FF8003FFC00
003FF8001FFC00
001FF0000FF800
000FE00007F000
0007C00003E000
ENDCHAR
STARTCHAR X
ENCODING 88
SWIDTH 611 0
DWIDTH 44 0
BBX 42 50 1 0
BITMAP
07800000F800
1FE00001FC00
1FE00001FE00
1FF00003FE00
3FF00003FE00
3FF80007FE00
1FF8000FFE00
1FFC000FFE00
1FFE001FFC00
0FFF003FFC00
07FF807FF800
07FFC0FFF000
03FFE1FFF000
01FFF3FFE000
00FFFFFFC000
007FFFFF8000
001FFFFE0000
000FFFFC0000
0007FFF80000
0003FFF00000
0007FFF80000
001FFFFC0000
001FFFFE0000
003FFFFF0000
007FFFFF8000
00FFE3FFC000
01FFC1FFE000
03FF80FFE000
03FF807FF000
07FF003FF800
07FE001FF800
0FFE001FFC00
1FFC000FFC00
1FF8000FFE00
1FF80007FE00
3FF00007FF00
3FF00003FF00
3FF00003FF00
7FE00001FF80
7FE00001FF80
7FE00001FF80
7FC00001FF80
FFC00000FF80
FFC00000FFC0
FFC00000FFC0
FFC00000FFC0
FFC00000FFC0
7F8000007F80
7F8000007F00
1E0000001E00
ENDCHAR
STARTCHAR Y
ENCODING 89
SWIDTH 556 0
DWIDTH 40 0
BBX 38 50 1 0
BITMAP
3E000001F0
7F000003F8
7F800007F8
FF800007FC
FFC0000FFC
FFC0000FFC
FFC0000FFC
7FE0001FF8
7FE0001FF8
7FE0001FF8
3FF0003FF0
3FF0003FF0
1FF8007FE0
1FFC00FFE0
0FFC00FFC0
0FFE01FFC0
07FF03FF80
03FF87FF00
03FFCFFF00
01FFFFFE00
00FFFFFC00
007FFFF800
003FFFF000
001FFFE000
000FFFC000
0007FF8000
0003FF0000
0003FF0000
0003FF0000
0003FF0000
0003FF0000
0003FF0000
0003FF0000
0003FF0000
0003FF0000
0003FF0000
0003FF0000
0003FF0000
0003FF0000
0003FF0000
0003FF0000
0003FF0000
0003FF0000
0003FF0000
0003FF0000
0003FF0000
0003FF0000
0001FE0000
0001FE0000
0000780000
ENDCHAR
STARTCHAR Z
ENCODING 90
SWIDTH 500 0
DWIDTH 36 0
BBX 33 50 2 0
BITMAP
0FFFFFF800
1FFFFFFE00
3FFFFFFE00
3FFFFFFF00
3FFFFFFF00
3FFFFFFF00
3FFFFFFF00
1FFFFFFF00
07FFFFFF00
000001FF00
000003FE00
000003FE00
000007FE00
00000FFC00
00000FFC00
00001FFC00
00003FF800
00007FF000
0000FFF000
0001FFE000
0003FFE000
0007FFC000
000FFF8000
001FFF0000
003FFE0000
007FFC0000
00FFF80000
01FFF00000
03FFE00000
07FFC00000
07FF800000
0FFF000000
1FFE000000
1FFC000000
3FF8000000
3FF0000000
7FE0000000
7FE0000000
FFC0000000
FF80000000
FF80000000
FFFFFFF800
FFFFFFFE00
FFFFFFFF00
FFFFFFFF80
FFFFFFFF80
FFFFFFFF80
7FFFFFFF00
3FFFFFFF00
0FFFFFFC00
ENDCHAR
STARTCHAR bracketleft
ENCODING 91
SWIDTH 389 0
DWIDTH 28 0
BBX 21 69 5 -17
BITMAP
1FFFE0
7FFFF0
7FFFF8
7FFFF8
FFFFF8
FFFFF0
FFFFF0
FFFF80
FF8000
FF8000
FF8000
FF8000
FF8000
FF8000
FF8000
FF8000
FF8000
FF8000
FF8000
FF8000
FF8000
FF8000
FF8000
FF8000
FF8000
FF8000
FF8000
FF8000
FF8000
FF8000
FF8000
FF8000
FF8000
FF8000
FF8000
FF8000
FF8000
FF8000
FF8000
FF8000
FF8000
FF8000
FF8000
FF8000
FF8000
FF8000
FF8000
FF8000
FF8000
FF8000
FF8000
FF8000
FF8000
FF8000
FF8000
FF8000
FF8000
FF8000
FF8000
FF8000
FF8000
FF8000
FFFFF0
FFFFF0
FFFFF8
7FFFF8
7FFFF8
7FFFF0
1FFFE0
ENDCHAR
STARTCHAR backslash
ENCODING 92
SWIDTH 278 0
DWIDTH 20 0
BBX 24 52 -2 -1
BITMAP
3C0000
7E0000
FF0000
FF0000
FF8000
FF8000
FF8000
7FC000
7FC000
7FE000
3FE000
3FE000
3FF000
1FF000
1FF000
1FF800
0FF800
0FF800
07FC00
07FC00
07FE00
03FE00
03FE00
03FF00
01FF00
01FF00
00FF80
00FF80
00FF80
007FC0
007FC0
007FE0
003FE0
003FE0
003FF0
001FF0
001FF0
000FF8
000FF8
000FFC
0007FC
0007FC
0007FE
0003FE
0003FE
0003FF
0001FF
0001FF
0000FF
0000FF
00007E
00003C
ENDCHAR
STARTCHAR bracketright
ENCODING 93
SWIDTH 389 0
DWIDTH 28 0
BBX 21 69 2 -17
BITMAP
3FFFC0
7FFFF0
FFFFF0
FFFFF0
FFFFF8
7FFFF8
7FFFF8
0FFFF8
000FF8
000FF8
000FF8
000FF8
000FF8
000FF8
000FF8
000FF8
000FF8
000FF8
000FF8
000FF8
000FF8
000FF8
000FF8
000FF8
000FF8
000FF8
000FF8
000FF8
000FF8
000FF8
000FF8
000FF8
000FF8
000FF8
000FF8
000FF8
000FF8
000FF8
000FF8
000FF8
000FF8
000FF8
000FF8
000FF8
000FF8
000FF8
000FF8
000FF8
000FF8
000FF8
000FF8
000FF8
000FF8
000FF8
000FF8
000FF8
000FF8
000FF8
000FF8
000FF8
000FF8
000FF8
7FFFF8
7FFFF8
FFFFF8
FFFFF0
FFFFF0
7FFFF0
3FFFC0
ENDCHAR
STARTCHAR asciicircum
ENCODING 94
SWIDTH 600 0
DWIDTH 43 0
BBX 33 28 5 22
BITMAP
0007F00000
000FF80000
000FF80000
001FFC0000
001FFC0000
001FFE0000
003FFE0000
003FFF0000
007F7F0000
007F3F8000
00FE3F8000
00FE3FC000
01FC1FC000
01FC1FE000
03F80FE000
03F80FF000
07F007F000
07F007F000
0FF003F800
0FE003F800
1FE001FC00
1FC001FC00
3FC000FE00
3F8000FE00
7F8000FF00
7F00007F00
FF00007F80
FE00003F80
ENDCHAR
STARTCHAR underscore
ENCODING 95
SWIDTH 500 0
DWIDTH 36 0
BBX 36 4 0 -9
BITMAP
FFFFFFFFF0
FFFFFFFFF0
FFFFFFFFF0
FFFFFFFFF0
ENDCHAR
STARTCHAR grave
ENCODING 96
SWIDTH 278 0
DWIDTH 20 0
BBX 20 10 0 41
BITMAP
780000
FF0000
FFE000
FFFC00
FFFF00
FFFFE0
7FFFF0
0FFFF0
007FE0
0007E0
ENDCHAR
STARTCHAR a
ENCODING 97
SWIDTH 556 0
DWIDTH 40 0
BBX 32 38 2 -1
BITMAP
07FFFF00
0FFFFFE0
1FFFFFF0
1FFFFFF8
1FFFFFFC
1FFFFFFC
0FFFFFFE
07FFFFFE
000003FE
000001FF
000001FF
000001FF
000001FF
0003FFFF
003FFFFF
01FFFFFF
03FFFFFF
0FFFFFFF
1FFFFFFF
3FFFFFFF
3FFE00FF
7FF000FF
7FE000FF
FFC000FF
FF8000FF
FF8001FF
FF8001FF
FF8001FF
FF8003FF
FFC007FF
7FF01FFF
7FFFFFFF
3FFFFFFF
3FFFFFFF
1FFFFEFF
0FFFFCFF
03FFF87E
007FC03C
ENDCHAR
STARTCHAR b
ENCODING 98
SWIDTH 556 0
DWIDTH 40 0
BBX 33 51 5 0
BITMAP
3C00000000
FE00000000
FF00000000
FF00000000
FF00000000
FF00000000
FF00000000
FF00000000
FF00000000
FF00000000
FF00000000
FF00000000
FF00000000
FFFC000000
FFFFC00000
FFFFF80000
FFFFFE0000
FFFFFF0000
FFFFFFC000
FFFFFFE000
FFFFFFF000
FF07FFF000
FF00FFF800
FF007FFC00
FF001FFC00
FF000FFE00
FF0007FE00
FF0003FF00
FF0003FF00
FF0001FF00
FF0001FF80
FF0001FF80
FF0000FF80
FF0000FF80
FF0000FF80
FF0000FF80
FF0000FF80
FF0001FF80
FF0001FF00
FF0001FF00
FF0003FF00
FF0007FF00
FF001FFE00
FFFFFFFE00
FFFFFFFC00
FFFFFFF800
FFFFFFF000
FFFFFFE000
FFFFFF8000
FFFFFE0000
7FFFF00000
ENDCHAR
STARTCHAR c
ENCODING 99
SWIDTH 500 0
DWIDTH 36 0
BBX 34 37 2 0
BITMAP
000FFFFE00
007FFFFF00
01FFFFFF80
03FFFFFF80
07FFFFFF80
0FFFFFFF80
1FFFFFFF00
3FFFFFFE00
3FFE000000
7FF8000000
7FF0000000
7FE0000000
7FC0000000
FFC0000000
FFC0000000
FFC0000000
FFC0000000
FFC0000000
FFC0000000
7FC0000000
7FE0000000
7FE0000000
7FF0000000
3FF0000000
3FF8000000
1FFC000000
1FFF000000
0FFFC00000
07FFFC0000
07FFFFFF00
03FFFFFF80
00FFFFFFC0
007FFFFFC0
003FFFFFC0
0007FFFFC0
0001FFFF80
00001FFE00
ENDCHAR
STARTCHAR d
ENCODING 100
SWIDTH 556 0
DWIDTH 40 0
BBX 33 51 2 0
BITMAP
0000001E00
0000003F80
0000007F80
0000007F80
0000007F80
0000007F80
0000007F80
0000007F80
0000007F80
0000007F80
0000007F80
0000007F80
0000007F80
00001FFF80
0001FFFF80
000FFFFF80
003FFFFF80
007FFFFF80
01FFFFFF80
03FFFFFF80
07FFFFFF80
07FFF07F80
0FFF807F80
1FFF007F80
1FFC007F80
3FF8007F80
3FF0007F80
7FE0007F80
7FE0007F80
7FC0007F80
7FC0007F80
FFC0007F80
FF80007F80
FF80007F80
FF80007F80
FF80007F80
FF80007F80
FFC0007F80
7FC0007F80
7FC0007F80
7FE0007F80
7FF0007F80
3FFC007F80
3FFFFFFF80
1FFFFFFF80
0FFFFFFF80
07FFFFFF80
03FFFFFF80
00FFFFFF80
003FFFFF80
0007FFFF00
ENDCHAR
STARTCHAR e
ENCODING 101
SWIDTH 556 0
DWIDTH 40 0
BBX 36 38 2 0
BITMAP
0003FE0000
001FFFC000
007FFFF000
00FFFFFC00
03FFFFFE00
07FFFFFF00
07FFFFFF80
0FFF8FFF80
1FFE01FFC0
1FF800FFC0
3FF0007FE0
3FF0007FE0
7FE0003FE0
7FE0003FE0
7FE0003FE0
7FFFFFFFE0
7FFFFFFFF0
7FFFFFFFE0
FFFFFFFFE0
FFFFFFFFE0
FFFFFFFFC0
FFC0000000
7FC0000000
7FC0000000
7FE0000000
7FE0000000
7FF0000000
3FF8000000
3FFC000000
1FFF000000
1FFFFFFF80
0FFFFFFFC0
07FFFFFFE0
03FFFFFFE0
01FFFFFFE0
007FFFFFE0
001FFFFFC0
0001FFFF80
ENDCHAR
STARTCHAR f
ENCODING 102
SWIDTH 333 0
DWIDTH 24 0
BBX 27 52 -1 0
BITMAP
0001FF80
000FFFC0
003FFFE0
007FFFE0
00FFFFE0
00FFFFE0
00FFFFC0
01FFFF80
01FF8000
01FF0000
01FF0000
01FF0000
01FF0000
01FF0000
01FF0000
3FFFFF00
7FFFFF80
7FFFFFC0
FFFFFFC0
FFFFFFC0
7FFFFFC0
7FFFFF80
1FFFFE00
01FF0000
01FF0000
01FF0000
01FF0000
01FF0000
01FF0000
01FF0000
01FF0000
01FF0000
01FF0000
01FF0000
01FF0000
01FF0000
01FF0000
01FF0000
01FF0000
01FF0000
01FF0000
01FF0000
01FF0000
01FF0000
01FF0000
01FF0000
01FF0000
01FF0000
01FF0000
01FE0000
00FE0000
007C0000
ENDCHAR
STARTCHAR g
ENCODING 103
SWIDTH 556 0
DWIDTH 40 0
BBX 38 55 2 -17
BITMAP
00007FFF80
0003FFFFE0
001FFFFFF0
007FFFFFF0
00FFFFFFF0
01FFFFFFF0
03FFFFFFE0
07FFFFFF80
0FFF80FF80
1FFE00FF00
1FFC00FF00
3FF800FF00
3FF000FF00
3FE000FF00
7FC000FF00
7FC000FF00
7FC000FF00
7F8000FF00
7F8000FF00
FF8000FF00
FF8000FF00
FF8000FF00
FF8000FF00
7F8000FF00
7F8000FF00
7FC000FF00
7FC000FF00
7FE000FF00
3FF000FF00
3FFC00FF00
1FFFFFFF00
1FFFFFFF80
0FFFFFFFC0
07FFFFFFE0
03FFFFFFF0
01FFFFFFF8
007FFFFFF8
000FFFFFFC
0000001FFC
0000000FFC
00000007FC
00000007FC
0000000FFC
0000000FF8
3800001FF8
FF00007FF8
FFE001FFF0
FFFFFFFFF0
FFFFFFFFE0
FFFFFFFFC0
7FFFFFFF80
3FFFFFFF00
0FFFFFFC00
03FFFFE000
003FFE0000
ENDCHAR
STARTCHAR h
ENCODING 104
SWIDTH 556 0
DWIDTH 40 0
BBX 32 51 4 0
BITMAP
3E000000
7F000000
7F800000
FF800000
FF800000
FF800000
FF800000
FF800000
FF800000
FF800000
FF800000
FF800000
FF800000
FF81FC00
FF8FFF80
FF9FFFE0
FFFFFFF0
FFFFFFF8
FFFFFFF8
FFFFFFFC
FFFFFFFC
FFFC0FFE
FFF007FE
FFE003FE
FFC003FE
FFC001FF
FFC001FF
FF8001FF
FF8001FF
FF8001FF
FF8001FF
FF8001FF
FF8001FF
FF8001FF
FF8001FF
FF8001FF
FF8001FF
FF8001FF
FF8001FF
FF8001FF
FF8001FF
FF8001FF
FF8001FF
FF8001FF
FF8001FF
FF8001FF
FF8001FF
FF8001FE
7F8001FE
7F0000FE
3E000078
ENDCHAR
STARTCHAR i
ENCODING 105
SWIDTH 278 0
DWIDTH 20 0
BBX 10 52 5 0
BITMAP
1E00
7F00
7F80
FFC0
FFC0
FFC0
FFC0
7F80
7F80
3F00
0C00
0000
0000
0000
1E00
3F00
7F80
7F80
7F80
7F80
7F80
7F80
7F80
7F80
7F80
7F80
7F80
7F80
7F80
7F80
7F80
7F80
7F80
7F80
7F80
7F80
7F80
7F80
7F80
7F80
7F80
7F80
7F80
7F80
7F80
7F80
7F80
7F80
7F80
7F80
3F00
1E00
ENDCHAR
STARTCHAR j
ENCODING 106
SWIDTH 222 0
DWIDTH 16 0
BBX 24 67 -11 -15
BITMAP
000078
0001FC
0001FE
0003FE
0003FF
0003FF
0003FF
0001FE
0001FE
0000FC
000030
000000
000000
000000
000078
0000FC
0001FE
0001FE
0001FE
0001FE
0001FE
0001FE
0001FE
0001FE
0001FE
0001FE
0001FE
0001FE
0001FE
0001FE
0001FE
0001FE
0001FE
0001FE
0001FE
0001FE
0001FE
0001FE
0001FE
0001FE
0001FE
0001FE
0001FE
0001FE
0001FE
0001FE
0001FE
0001FE
0001FE
0001FE
0001FE
0001FE
0001FE
0003FE
0003FE
0003FE
0003FE
0007FE
003FFC
7FFFFC
FFFFF8
FFFFF8
FFFFF0
FFFFE0
7FFFC0
3FFF00
0FF800
ENDCHAR
STARTCHAR k
ENCODING 107
SWIDTH 500 0
DWIDTH 36 0
BBX 30 51 5 0
BITMAP
3C000000
FE000000
FF000000
FF000000
FF000000
FF000000
FF000000
FF000000
FF000000
FF000000
FF000000
FF000000
FF000000
FF0003C0
FF0007E0
FF000FF0
FF001FF0
FF001FF0
FF003FE0
FF007FE0
FF00FFE0
FF01FFC0
FF07FF80
FF3FFF00
FFFFFE00
FFFFFC00
FFFFF000
FFFFE000
FFFFF800
FFFFFC00
FFFFFF00
FF1FFF80
FF03FFC0
FF01FFC0
FF007FE0
FF003FF0
FF001FF0
FF001FF8
FF000FF8
FF000FF8
FF0007F8
FF0007FC
FF0007FC
FF0007FC
FF0007FC
FF0007FC
FF0007FC
FF0003FC
FF0003FC
FE0001F8
3C0000F0
ENDCHAR
STARTCHAR l
ENCODING 108
SWIDTH 278 0
DWIDTH 20 0
BBX 8 51 6 0
BITMAP
3C
7E
FF
FF
FF
FF
FF
FF
FF
FF
FF
FF
FF
FF
FF
FF
FF
FF
FF
FF
FF
FF
FF
FF
FF
FF
FF
FF
FF
FF
FF
FF
FF
FF
FF
FF
FF
FF
FF
FF
FF
FF
FF
FF
FF
FF
FF
FF
FF
7E
3C
ENDCHAR
STARTCHAR m
ENCODING 109
SWIDTH 833 0
DWIDTH 60 0
BBX 52 38 4 0
BITMAP
3C03F8001FE000
7E1FFE007FF800
FF3FFF01FFFE00
FFFFFFC7FFFF00
FFFFFFCFFFFF80
FFFFFFFFFFFFC0
FFFFFFFFFFFFC0
FFFFFFFFFFFFE0
FFF81FFFC0FFE0
FFF00FFF807FE0
FFE007FF003FE0
FFC007FF003FF0
FFC007FE001FF0
FF8007FE001FF0
FF8003FE001FF0
FF8003FC001FF0
FF8003FC001FF0
FF8003FC001FF0
FF8003FC001FF0
FF8003FC001FF0
FF8003FC001FF0
FF8003FC001FF0
FF8003FC001FF0
FF8003FC001FF0
FF8003FC001FF0
FF8003FC001FF0
FF8003FC001FF0
FF8003FC001FF0
FF8003FC001FF0
FF8003FC001FF0
FF8003FC001FF0
FF8003FC001FF0
FF8003FC001FF0
FF8003FC001FF0
FF8003FC001FF0
7F0003FC001FE0
7F0001F8000FE0
3E0000F0000780
ENDCHAR
STARTCHAR n
ENCODING 110
SWIDTH 556 0
DWIDTH 40 0
BBX 32 38 4 0
BITMAP
1E01FC00
7F0FFF80
7F9FFFE0
FFFFFFF0
FFFFFFF8
FFFFFFF8
FFFFFFFC
FFFFFFFC
FFFC0FFE
FFF007FE
FFE003FE
FFC003FE
FFC001FF
FFC001FF
FF8001FF
FF8001FF
FF8001FF
FF8001FF
FF8001FF
FF8001FF
FF8001FF
FF8001FF
FF8001FF
FF8001FF
FF8001FF
FF8001FF
FF8001FF
FF8001FF
FF8001FF
FF8001FF
FF8001FF
FF8001FF
FF8001FF
FF8001FF
FF8001FE
7F8001FE
7F0000FE
3E000078
ENDCHAR
STARTCHAR o
ENCODING 111
SWIDTH 556 0
DWIDTH 40 0
BBX 36 39 2 -1
BITMAP
0007FC0000
003FFFC000
00FFFFE000
01FFFFF800
03FFFFFC00
07FFFFFE00
0FFFFFFF00
1FFFFFFF80
1FFE07FF80
3FF801FFC0
3FF000FFC0
3FE0007FC0
7FE0007FE0
7FC0003FE0
7FC0003FE0
7FC0003FE0
FFC0003FF0
FF80001FF0
FF80001FF0
FF80001FF0
FF80001FF0
FF80001FF0
FFC0003FF0
7FC0003FE0
7FC0003FE0
7FC0003FE0
7FE0007FE0
3FE0007FC0
3FF000FFC0
3FF801FFC0
1FFE07FF80
1FFFFFFF80
0FFFFFFF00
07FFFFFE00
03FFFFFC00
01FFFFF800
007FFFF000
003FFFC000
0003FE0000
ENDCHAR
STARTCHAR p
ENCODING 112
SWIDTH 556 0
DWIDTH 40 0
BBX 33 53 5 -15
BITMAP
1FFC000000
7FFFC00000
FFFFF80000
FFFFFE0000
FFFFFF0000
FFFFFFC000
FFFFFFE000
FFFFFFF000
FF07FFF800
FF00FFF800
FF003FFC00
FF001FFE00
FF0007FE00
FF0007FF00
FF0003FF00
FF0001FF00
FF0001FF00
FF0001FF80
FF0000FF80
FF0000FF80
FF0000FF80
FF0000FF80
FF0000FF80
FF0000FF80
FF0001FF80
FF0001FF80
FF0003FF00
FF0007FF00
FF000FFF00
FF003FFE00
FFFFFFFE00
FFFFFFFC00
FFFFFFF800
FFFFFFF000
FFFFFFE000
FFFFFF8000
FFFFFE0000
FFFFF00000
FF00000000
FF00000000
FF00000000
FF00000000
FF00000000
FF00000000
FF00000000
FF00000000
FF00000000
FF00000000
FF00000000
FF00000000
FF00000000
FE00000000
3C00000000
ENDCHAR
STARTCHAR q
ENCODING 113
SWIDTH 556 0
DWIDTH 40 0
BBX 33 53 2 -15
BITMAP
00001FFC00
0001FFFF00
000FFFFF80
003FFFFF80
007FFFFF80
01FFFFFF80
03FFFFFF80
07FFFFFF80
0FFFF07F80
0FFF807F80
1FFE007F80
3FFC007F80
3FF0007F80
7FF0007F80
7FE0007F80
7FC0007F80
7FC0007F80
FFC0007F80
FF80007F80
FF80007F80
FF80007F80
FF80007F80
FF80007F80
FF80007F80
FFC0007F80
FFC0007F80
7FE0007F80
7FE0007F80
7FF8007F80
3FFE007F80
3FFFFFFF80
1FFFFFFF80
0FFFFFFF80
07FFFFFF80
03FFFFFF80
00FFFFFF80
003FFFFF80
0007FFFF80
0000007F80
0000007F80
0000007F80
0000007F80
0000007F80
0000007F80
0000007F80
0000007F80
0000007F80
0000007F80
0000007F80
0000007F80
0000007F80
0000003F80
0000001E00
ENDCHAR
STARTCHAR r
ENCODING 114
SWIDTH 333 0
DWIDTH 24 0
BBX 20 38 5 0
BITMAP
3C0FC0
7E3FE0
FF7FF0
FF7FF0
FFFFF0
FFFFF0
FFFFE0
FFFFC0
FFF800
FFE000
FFC000
FF8000
FF8000
FF8000
FF8000
FF8000
FF8000
FF8000
FF8000
FF8000
FF8000
FF8000
FF8000
FF8000
FF8000
FF8000
FF8000
FF8000
FF8000
FF8000
FF8000
FF8000
FF8000
FF8000
FF0000
FF0000
7F0000
3C0000
ENDCHAR
STARTCHAR s
ENCODING 115
SWIDTH 500 0
DWIDTH 36 0
BBX 32 37 2 0
BITMAP
00FFFFE0
07FFFFF0
1FFFFFF8
3FFFFFF8
3FFFFFF8
7FFFFFF8
7FFFFFF0
7FFFFFE0
7FC00000
7F800000
7FC00000
7FF00000
7FFF8000
7FFFFE00
3FFFFF80
3FFFFFE0
1FFFFFF8
07FFFFFC
01FFFFFC
001FFFFE
00003FFE
000007FF
000001FF
000001FF
000001FF
000001FF
000001FF
000003FF
000007FE
3FFFFFFE
7FFFFFFE
FFFFFFFC
FFFFFFF8
FFFFFFF8
FFFFFFE0
7FFFFFC0
3FFFFE00
ENDCHAR
STARTCHAR t
ENCODING 116
SWIDTH 389 0
DWIDTH 28 0
BBX 28 48 1 0
BITMAP
00700000
01FC0000
01FC0000
03FE0000
03FE0000
03FE0000
03FE0000
03FE0000
03FE0000
03FE0000
03FE0000
7FFFFE00
FFFFFF80
FFFFFF80
FFFFFF80
FFFFFF80
FFFFFF80
FFFFFF00
3FFFFE00
03FE0000
03FE0000
03FE0000
03FE0000
03FE0000
03FE0000
03FE0000
03FE0000
03FE0000
03FE0000
03FE0000
03FE0000
03FE0000
03FE0000
03FE0000
03FE0000
03FE0000
03FE0000
03FE0000
03FF0000
03FF8000
01FFFFC0
01FFFFE0
01FFFFF0
00FFFFF0
00FFFFF0
007FFFF0
003FFFE0
0007FFC0
ENDCHAR
STARTCHAR u
ENCODING 117
SWIDTH 556 0
DWIDTH 40 0
BBX 32 39 4 -1
BITMAP
1E000078
7F0000FE
7F8001FE
7F8001FE
FF8001FF
FF8001FF
FF8001FF
FF8001FF
FF8001FF
FF8001FF
FF8001FF
FF8001FF
FF8001FF
FF8001FF
FF8001FF
FF8001FF
FF8001FF
FF8001FF
FF8001FF
FF8001FF
FF8001FF
FF8001FF
FF8001FF
FF8001FF
FF8001FF
FF8003FF
FF8003FF
FFC007FF
7FC007FF
7FE00FFF
7FF03FFF
7FFFFFFF
3FFFFFFF
3FFFFFFF
1FFFFFFF
0FFFFFFE
07FFF9FE
01FFF0FE
007F8078
ENDCHAR
STARTCHAR v
ENCODING 118
SWIDTH 500 0
DWIDTH 36 0
BBX 32 39 2 -1
BITMAP
3E00007C
7F0000FE
7F0000FE
FF0000FF
FF8001FF
FF8001FF
FF8001FF
7F8001FE
7F8001FE
7F8001FE
7FC003FE
7FC003FE
7FC003FE
7FC003FC
3FC003FC
3FE007FC
3FE007FC
3FE007F8
1FE007F8
1FF00FF8
1FF00FF8
0FF00FF0
0FF81FF0
0FF81FE0
07F81FE0
07FC3FE0
03FC3FC0
03FE7FC0
01FEFF80
01FFFF80
00FFFF00
00FFFF00
007FFE00
007FFE00
003FFC00
003FFC00
001FF800
000FF000
0007E000
ENDCHAR
STARTCHAR w
ENCODING 119
SWIDTH 722 0
DWIDTH 52 0
BBX 47 39 2 -1
BITMAP
1E0003C00078
7F0007E000FE
7F000FF000FE
7F800FF001FE
7F800FF001FE
FF800FF001FE
FF801FF801FE
7F801FF801FE
7F801FF801FE
7F801FF801FE
7F801FF801FE
7F801FF801FE
7F801FF803FE
7FC01FF803FE
3FC03FF803FC
3FC03FFC03FC
3FC03FFC03FC
3FC03FFC03FC
3FC03FFC03FC
1FE07FFE07F8
1FE07FFE07F8
1FE07FFE07F8
1FE0FFFF07F8
0FF0FE7F0FF0
0FF0FE7F0FF0
0FF1FE7F8FF0
07F9FE7F9FE0
07FBFC3FDFE0
07FBFC3FFFE0
03FFFC3FFFC0
03FFF81FFFC0
01FFF81FFF80
01FFF81FFF80
01FFF00FFF00
00FFF00FFF00
007FE007FE00
007FE007FE00
003FC003FC00
001F0000F800
ENDCHAR
STARTCHAR x
ENCODING 120
SWIDTH 500 0
DWIDTH 36 0
BBX 34 38 1 0
BITMAP
0780007800
1FC000FE00
1FE001FE00
3FE001FF00
3FE001FF00
3FE001FF00
1FF003FE00
1FF003FE00
1FF807FE00
0FF80FFC00
0FFC0FFC00
07FF3FF800
07FFFFF800
03FFFFF000
01FFFFE000
00FFFFC000
007FFF8000
007FFF8000
00FFFFC000
01FFFFE000
03FFFFF000
07FFFFF800
0FFE1FFC00
0FFC0FFC00
1FF807FE00
3FF807FE00
3FF003FF00
3FE001FF00
7FE001FF80
7FC001FF80
7FC000FF80
7FC000FF80
FFC000FFC0
FF80007FC0
7F80007F80
7F80007F80
7F00003F00
1E00001E00
ENDCHAR
STARTCHAR y
ENCODING 121
SWIDTH 500 0
DWIDTH 36 0
BBX 32 53 3 -15
BITMAP
3C00003C
7E0000FE
FE0000FE
FF0000FF
FF0001FF
FF0001FF
FF0001FF
FF0001FF
FF0001FE
FF0001FE
FF8003FE
FF8003FE
FF8003FC
FF8003FC
7F8007FC
7FC007FC
7FC007F8
7FC007F8
3FE00FF8
3FE00FF0
3FE00FF0
1FF01FE0
1FF01FE0
0FF83FE0
0FF83FC0
07F83FC0
07FC7F80
03FE7F80
03FEFF80
01FFFF00
01FFFF00
00FFFE00
00FFFE00
007FFC00
003FFC00
003FF800
001FF800
001FF000
003FF000
003FE000
007FE000
00FFC000
00FF8000
01FF8000
03FF0000
07FE0000
07FE0000
0FFC0000
0FF80000
0FF80000
0FF00000
07E00000
03C00000
ENDCHAR
STARTCHAR z
ENCODING 122
SWIDTH 444 0
DWIDTH 32 0
BBX 30 37 1 0
BITMAP
0FFFFFE0
1FFFFFF0
3FFFFFF8
3FFFFFF8
3FFFFFF8
3FFFFFF8
1FFFFFF8
0FFFFFF8
00003FF0
00003FF0
00007FF0
0000FFE0
0001FFE0
0003FFC0
000FFF80
001FFF00
003FFE00
007FFC00
00FFF800
01FFF000
03FFC000
07FF8000
0FFF0000
1FFE0000
3FFC0000
3FF80000
7FF00000
7FE00000
7FE00000
FFFFFFE0
FFFFFFF8
FFFFFFFC
FFFFFFFC
FFFFFFFC
FFFFFFFC
7FFFFFF8
3FFFFFF0
ENDCHAR
STARTCHAR braceleft
ENCODING 123
SWIDTH 389 0
DWIDTH 28 0
BBX 22 69 4 -17
BITMAP
000FF0
007FF8
00FFFC
01FFFC
01FFF8
03FFF0
03FF00
03FE00
03FE00
03FC00
03FC00
03FC00
03FC00
03FC00
03FC00
03FC00
03FC00
03FC00
03FC00
03FC00
03FC00
03FC00
03FC00
03FC00
03FC00
03FC00
03FC00
07FC00
07FC00
07FC00
0FF800
3FF800
FFF000
FFE000
FF0000
FF0000
FFE000
FFF000
3FF800
0FFC00
07FC00
07FC00
03FC00
03FC00
03FC00
03FC00
03FC00
03FC00
03FC00
03FC00
03FC00
03FC00
03FC00
03FC00
03FC00
03FC00
03FC00
03FC00
03FC00
03FC00
03FE00
03FE00
03FF00
03FFF0
01FFF8
01FFFC
00FFFC
003FF8
000FF0
ENDCHAR
STARTCHAR bar
ENCODING 124
SWIDTH 222 0
DWIDTH 16 0
BBX 8 72 4 -18
BITMAP
FF
FF
FF
FF
FF
FF
FF
FF
FF
FF
FF
FF
FF
FF
FF
FF
FF
FF
FF
FF
FF
FF
FF
FF
FF
FF
FF
FF
FF
FF
FF
FF
FF
FF
FF
FF
FF
FF
FF
FF
FF
FF
FF
FF
FF
FF
FF
FF
FF
FF
FF
FF
FF
FF
FF
FF
FF
FF
FF
FF
FF
FF
FF
FF
FF
FF
FF
FF
FF
FF
FF
FF
ENDCHAR
STARTCHAR braceright
ENCODING 125
SWIDTH 389 0
DWIDTH 28 0
BBX 22 69 2 -17
BITMAP
3FC000
7FF000
FFFC00
FFFC00
7FFE00
3FFF00
03FF00
01FF00
01FF00
01FF00
00FF00
00FF00
00FF00
00FF00
00FF00
00FF00
00FF00
00FF00
00FF00
00FF00
00FF00
00FF00
00FF00
00FF00
00FF00
00FF00
00FF00
00FF00
00FF80
00FF80
00FFC0
007FF0
003FFC
001FFC
0003FC
0003FC
001FFC
003FFC
007FF0
00FFC0
00FF80
00FF80
00FF00
00FF00
00FF00
00FF00
00FF00
00FF00
00FF00
00FF00
00FF00
00FF00
00FF00
00FF00
00FF00
00FF00
00FF00
00FF00
00FF00
01FF00
01FF00
01FF00
03FF00
3FFF00
7FFE00
FFFE00
FFFC00
7FF800
3FC000
ENDCHAR
STARTCHAR asciitilde
ENCODING 126
SWIDTH 600 0
DWIDTH 43 0
BBX 33 12 5 12
BITMAP
03F0000200
0FFE000600
1FFF800700
3FFFE00F00
7FFFFC3F80
FFFFFFFF80
FFFFFFFF80
7C0FFFFF00
7801FFFE00
70007FFC00
20001FF800
200007E000
ENDCHAR
STARTCHAR uni00A0
ENCODING 160
SWIDTH 305 0
DWIDTH 22 0
BBX 1 1 0 0
BITMAP
00
ENDCHAR
STARTCHAR exclamdown
ENCODING 161
SWIDTH 333 0
DWIDTH 24 0
BBX 10 50 7 -15
BITMAP
1E00
7F80
FF80
FFC0
FFC0
FFC0
FFC0
FFC0
FFC0
7F80
1E00
0000
0000
0000
0000
1E00
3F00
7F80
7F80
7F80
7F80
7F80
7F80
7F80
FFC0
FFC0
FFC0
FFC0
FFC0
FFC0
FFC0
FFC0
FFC0
FFC0
FFC0
FFC0
FFC0
FFC0
FFC0
FFC0
FFC0
FFC0
FFC0
FFC0
FFC0
FFC0
FFC0
7F80
7F80
1E00
ENDCHAR
STARTCHAR cent
ENCODING 162
SWIDTH 611 0
DWIDTH 44 0
BBX 35 55 2 -3
BITMAP
00001E0000
00003F0000
00007F8000
00007F8000
00007F8000
00007F8000
00007F8000
00007F8000
00007F8000
00007F8000
0007FFFF00
007FFFFF80
01FFFFFFC0
03FFFFFFC0
07FFFFFFC0
0FFFFFFFC0
1FFFFFFF80
3FFFFFFF00
3FFC7F8000
7FF07F8000
7FE07F8000
7FE07F8000
FFE07F8000
FFC07F8000
FFC07F8000
FFC07F8000
FFC07F8000
FFC07F8000
7FE07F8000
7FE07F8000
7FE07F8000
3FF07F8000
3FF87F8000
1FFC7F8000
1FFF7F8000
0FFFFF8000
07FFFFFF80
03FFFFFFC0
01FFFFFFC0
00FFFFFFE0
003FFFFFE0
000FFFFFC0
0003FFFFC0
00007FFF00
00007F8000
00007F8000
00007F8000
00007F8000
00007F8000
00007F8000
00007F8000
00007F8000
00007F0000
00003F0000
00000C0000
ENDCHAR
STARTCHAR sterling
ENCODING 163
SWIDTH 611 0
DWIDTH 44 0
BBX 43 52 0 -1
BITMAP
0000003FF000
000001FFFF00
000007FFFFC0
00001FFFFFE0
00003FFFFFE0
00007FFFFFE0
0000FFFFFFE0
0000FFFFFFE0
0001FFF87FE0
0001FFC00F80
0003FF800000
0003FF000000
0003FF000000
0003FE000000
0003FE000000
0003FE000000
0003FE000000
0003FE000000
0003FE000000
0003FE000000
03FFFFFFF800
07FFFFFFFE00
0FFFFFFFFE00
0FFFFFFFFE00
0FFFFFFFFE00
0FFFFFFFFE00
07FFFFFFFC00
03FFFFFFF800
0007FE000000
0007FE000000
0007FE000000
0007FE000000
0007FE000000
0007FE000000
0007FE000000
0007FE000000
0007FE000000
0007FE000000
0007FE000000
0007FE000000
0007FC000000
000FFC000000
003FFC000000
03FFFF80FE00
1FFFFFFFFF00
7FFFFFFFFF80
FFFFFFFFFF80
FFFFFFFFFF80
FFFFFFFFFF80
FFFFFFFFFF00
7FFFFFFFFC00
3E0000FFE000
ENDCHAR
STARTCHAR currency
ENCODING 164
SWIDTH 611 0
DWIDTH 44 0
BBX 37 37 3 6
BITMAP
0800000040
1C07FF80E0
3E1FFFE1F0
7F7FFFFBF8
7FFFFFFFF8
3FFFFFFFF0
1FFFFFFFE0
0FFFFFFFC0
0FFF03FFC0
0FFC00FFC0
1FF0003FE0
3FE0001FE0
3FE0001FF0
3FC0000FF0
7FC0000FF0
7FC0000FF8
7F800007F8
7F800007F8
7F800007F8
7F800007F8
7F80000FF8
7FC0000FF8
7FC0000FF0
3FC0001FF0
3FE0001FF0
1FF0003FE0
1FF8007FE0
0FFC01FFC0
0FFFFFFF80
1FFFFFFFC0
3FFFFFFFE0
7FFFFFFFF0
FFFFFFFFF8
7F3FFFF3F8
3E0FFFC1F0
1C03FF00E0
0800000040
ENDCHAR
STARTCHAR yen
ENCODING 165
SWIDTH 611 0
DWIDTH 44 0
BBX 38 52 3 -1
BITMAP
1E000001E0
7F000003F8
7F800007F8
FF800007FC
FF80000FFC
FFC0000FFC
FFC0000FFC
FFC0000FF8
7FE0001FF8
7FE0001FF8
7FF0003FF8
3FF0003FF0
3FF0007FF0
1FF8007FE0
1FFC00FFE0
0FFC00FFC0
0FFE01FFC0
1FFF03FFE0
3FFF07FFF0
7FFF87FFF8
7FFFDFFFF8
7FFFFFFFF8
7FFFFFFFF8
3FFFFFFFF0
1FFFFFFFE0
000FFFC000
0007FF8000
07FFFFFF80
1FFFFFFFE0
1FFFFFFFE0
3FFFFFFFF0
3FFFFFFFF0
1FFFFFFFE0
1FFFFFFFE0
0FFFFFFFC0
0003FF0000
0003FF0000
0003FF0000
0003FF0000
0003FF0000
0003FF0000
0003FF0000
0003FF0000
0003FF0000
0003FF0000
0003FF0000
0003FF0000
0003FF0000
0003FF0000
0001FE0000
0001FE0000
0000780000
ENDCHAR
STARTCHAR brokenbar
ENCODING 166
SWIDTH 222 0
DWIDTH 16 0
BBX 8 61 4 -12
BITMAP
FF
FF
FF
FF
FF
FF
FF
FF
FF
FF
FF
FF
FF
FF
FF
FF
FF
FF
FF
FF
FF
FF
FF
FF
FF
00
00
00
00
00
00
00
00
00
00
00
FF
FF
FF
FF
FF
FF
FF
FF
FF
FF
FF
FF
FF
FF
FF
FF
FF
FF
FF
FF
FF
FF
FF
FF
FF
ENDCHAR
STARTCHAR section
ENCODING 167
SWIDTH 500 0
DWIDTH 36 0
BBX 30 51 3 -1
BITMAP
00FFFFC0
03FFFFE0
07FFFFF0
0FFFFFF0
1FFFFFF0
3FFFFFF0
3FFFFFE0
3FFFFF80
3FE00000
3FC00000
3FE00000
3FE00000
3FF80000
1FFF0000
1FFFE000
3FFFFC00
7FFFFF00
7FFFFFC0
FFFFFFE0
FFFFFFF0
FF1FFFF8
FF03FFF8
FF00FFFC
FF001FFC
FF8007FC
FFE003FC
FFFC03FC
7FFF03FC
7FFFE3FC
3FFFFFFC
1FFFFFFC
07FFFFF8
03FFFFF8
007FFFF0
000FFFF0
0003FFF0
00007FF0
00001FF8
00000FF8
00000FF8
00000FF8
00000FF8
00001FF8
0000FFF8
7FFFFFF0
7FFFFFF0
FFFFFFE0
FFFFFFC0
7FFFFF80
7FFFFF00
3FFFF800
ENDCHAR
STARTCHAR dieresis
ENCODING 168
SWIDTH 278 0
DWIDTH 20 0
BBX 26 9 -3 41
BITMAP
1E001E00
3F003F00
7F807F80
7F807F80
FF807FC0
7F807F80
7F807F80
3F003F00
1E001E00
ENDCHAR
STARTCHAR copyright
ENCODING 169
SWIDTH 800 0
DWIDTH 58 0
BBX 52 52 3 -1
BITMAP
000007FE000000
00007FFFE00000
0003FFFFF80000
0007FFFFFE0000
001FFFFFFF8000
003FFFFFFFC000
00FFF001FFE000
01FFC0003FF000
03FF00000FF800
03FE000007FC00
07F8000003FE00
0FF007FF01FE00
1FE01FFFC0FF00
1FE03FFFE07F80
3FC07FFFF03F80
3F80FFFFF83FC0
3F81FF03F81FC0
7F81FE01FC1FC0
7F03FC00FC1FE0
7F03F8007E0FE0
7F07F0007E0FE0
FE07F000000FE0
FE07F000000FE0
FE07E000000FE0
FE07E0000007F0
FE07E0000007F0
FE07E0000007F0
FE07E0000007F0
FE07F0000007E0
FE07F000000FE0
FE07F0007E0FE0
FF03F8007E0FE0
7F03F800FC0FE0
7F03FC00FC1FE0
7F81FE03FC1FC0
3F80FFFFF81FC0
3F80FFFFF03FC0
3FC07FFFF07F80
1FE03FFFC07F80
1FE00FFF80FF00
0FF001FC01FE00
07F8000003FE00
03FC000007FC00
03FF00000FF800
01FFC0003FF000
00FFF001FFE000
003FFFFFFFC000
001FFFFFFF8000
000FFFFFFE0000
0001FFFFF80000
00007FFFE00000
00000FFE000000
ENDCHAR
STARTCHAR ordfeminine
ENCODING 170
SWIDTH 334 0
DWIDTH 24 0
BBX 21 23 1 28
BITMAP
1FFF80
3FFFE0
3FFFF0
3FFFF0
1FFFF8
0001F8
0001F8
0001F8
01FFF8
07FFF8
1FFFF8
3FFFF8
7FE1F8
7F01F8
FE01F8
FC01F8
FC01F8
FE03F8
7FDFF8
7FFFF8
3FFFF8
1FFEF8
07F870
ENDCHAR
STARTCHAR guillemotleft
ENCODING 171
SWIDTH 500 0
DWIDTH 36 0
BBX 28 29 4 4
BITMAP
007001C0
01F803E0
01FC07F0
03FC0FF0
07FC0FF0
07FC1FF0
0FF83FF0
0FF83FE0
1FF07FE0
1FF07FC0
3FE0FFC0
7FE0FF80
7FC1FF00
FFC1FF00
FF83FF00
FFC1FF00
7FC1FF80
7FE0FF80
3FE0FFC0
1FF07FC0
1FF07FE0
0FF83FE0
0FF83FF0
07FC1FF0
07FC0FF0
03FC0FF0
01FC07F0
01F807F0
00F001C0
ENDCHAR
STARTCHAR logicalnot
ENCODING 172
SWIDTH 600 0
DWIDTH 43 0
BBX 37 22 3 7
BITMAP
FFFFFFFFF8
FFFFFFFFF8
FFFFFFFFF8
FFFFFFFFF8
FFFFFFFFF8
FFFFFFFFF8
FFFFFFFFF8
00000007F8
00000007F8
00000007F8
00000007F8
00000007F8
00000007F8
00000007F8
00000007F8
00000007F8
00000007F8
00000007F8
00000007F8
00000007F8
00000007F8
00000007F8
ENDCHAR
STARTCHAR uni00AD
ENCODING 173
SWIDTH 333 0
DWIDTH 24 0
BBX 18 8 3 14
BITMAP
3FFF00
7FFF80
FFFFC0
FFFFC0
FFFFC0
FFFFC0
7FFF80
3FFF00
ENDCHAR
STARTCHAR registered
ENCODING 174
SWIDTH 800 0
DWIDTH 58 0
BBX 52 52 3 -1
BITMAP
00000FFE000000
00007FFFE00000
0003FFFFF80000
000FFFFFFE0000
001FFFFFFF8000
007FFFFFFFC000
00FFF001FFE000
01FFC0003FF000
03FF00000FF800
07FC000007FC00
07F8000003FE00
0FF0FFE001FF00
1FE0FFFF80FF00
1FE0FFFFE07F80
3FC0FFFFF03F80
3F80FFFFF03FC0
3F80F803F81FC0
7F00F801F81FC0
7F00F801F81FE0
7F00F801F80FE0
FF00F801F80FE0
FE00F801F80FE0
FE00F803F80FE0
FE00FFFFF807E0
FE00FFFFF007F0
FE00FFFFE007F0
FE00FFFFC007F0
FE00FFFE0007F0
FE00F87C000FE0
FE00F87E000FE0
FE00F83E000FE0
7F00F83F000FE0
7F00F81F800FE0
7F00F81F801FE0
7F80F80FC01FC0
3F80F807C01FC0
3F80F807E03FC0
3FC0F803E07F80
1FE0F803F07F80
1FE0F801F8FF00
0FF0000001FE00
07F8000003FE00
03FE000007FC00
03FF00000FF800
01FFC0003FF000
00FFF001FFE000
003FFFFFFFC000
001FFFFFFF8000
0007FFFFFE0000
0003FFFFF80000
00007FFFE00000
00000FFE000000
ENDCHAR
STARTCHAR macron
ENCODING 175
SWIDTH 278 0
DWIDTH 20 0
BBX 22 6 -1 43
BITMAP
7FFFF8
FFFFFC
FFFFFC
FFFFFC
FFFFFC
7FFFF8
ENDCHAR
STARTCHAR degree
ENCODING 176
SWIDTH 400 0
DWIDTH 29 0
BBX 21 21 4 30
BITMAP
01F800
07FF00
0FFF80
1FFFC0
3F8FE0
7E03E0
7C01F0
7801F0
F800F0
F800F8
F000F8
F800F8
F800F0
7801F0
7C01F0
7E03E0
3F8FE0
1FFFC0
0FFF80
07FF00
01FC00
ENDCHAR
STARTCHAR plusminus
ENCODING 177
SWIDTH 600 0
DWIDTH 43 0
BBX 37 37 3 0
BITMAP
0001FC0000
0001FC0000
0001FC0000
0001FC0000
0001FC0000
0001FC0000
0001FC0000
0001FC0000
0001FC0000
0001FC0000
FFFFFFFFF8
FFFFFFFFF8
FFFFFFFFF8
FFFFFFFFF8
FFFFFFFFF8
FFFFFFFFF8
FFFFFFFFF8
FFFFFFFFF8
0001FC0000
0001FC0000
0001FC0000
0001FC0000
0001FC0000
0001FC0000
0001FC0000
0001FC0000
0001FC0000
0000000000
0000000000
0000000000
FFFFFFFFF8
FFFFFFFFF8
FFFFFFFFF8
FFFFFFFFF8
FFFFFFFFF8
FFFFFFFFF8
FFFFFFFFF8
ENDCHAR
STARTCHAR twosuperior
ENCODING 178
SWIDTH 366 0
DWIDTH 26 0
BBX 26 30 0 20
BITMAP
1FFFC000
3FFFF800
3FFFFC00
3FFFFE00
3FFFFF00
1FFFFF00
00007F80
00007F80
00007F80
00007F00
0000FF00
0001FF00
0007FE00
000FFC00
003FF800
00FFF000
03FFC000
07FF0000
1FFC0000
3FF00000
3FC00000
7F800000
7F000000
7F000000
7FFFFF00
FFFFFF80
7FFFFFC0
7FFFFFC0
7FFFFF80
3FFFFF80
ENDCHAR
STARTCHAR threesuperior
ENCODING 179
SWIDTH 366 0
DWIDTH 26 0
BBX 26 30 0 20
BITMAP
3FFFFC00
7FFFFE00
7FFFFE00
7FFFFE00
7FFFFC00
1FFFF800
000FF000
003FC000
00FF0000
07FC0000
0FFF8000
1FFFF000
1FFFFC00
0FFFFE00
07FFFF00
0003FF80
00007F80
00003FC0
00003FC0
00003FC0
00003FC0
00003FC0
00003FC0
0000FF80
7FFFFF80
FFFFFF00
FFFFFE00
FFFFFC00
FFFFF000
7FFF8000
ENDCHAR
STARTCHAR acute
ENCODING 180
SWIDTH 278 0
DWIDTH 20 0
BBX 20 10 0 41
BITMAP
0001E0
000FF0
007FF0
03FFF0
0FFFF0
7FFFF0
FFFFE0
FFFF00
FFE000
7E0000
ENDCHAR
STARTCHAR mu
ENCODING 181
SWIDTH 556 0
DWIDTH 40 0
BBX 32 53 4 -15
BITMAP
1E000078
7F0000FE
7F8001FE
7F8001FE
FF8001FF
FF8001FF
FF8001FF
FF8001FF
FF8001FF
FF8001FF
FF8001FF
FF8001FF
FF8001FF
FF8001FF
FF8001FF
FF8001FF
FF8001FF
FF8001FF
FF8001FF
FF8001FF
FF8001FF
FF8001FF
FF8001FF
FF8001FF
FF8001FF
FF8003FF
FF8003FF
FFC007FF
FFC007FF
FFE00FFF
FFF03FFF
FFFFFFFF
FFFFFFFF
FFFFFFFF
FFFFFFFF
FFFFFFFE
FFFFF9FE
FFFFF0FE
FFBF8078
FF800000
FF800000
FF800000
FF800000
FF800000
FF800000
FF800000
FF800000
FF800000
FF800000
FF800000
7F800000
7F000000
1E000000
ENDCHAR
STARTCHAR paragraph
ENCODING 182
SWIDTH 620 0
DWIDTH 45 0
BBX 39 51 2 -1
BITMAP
000FFFFFFE
00FFFFFFFE
03FFFFFFFE
0FFFFFFFFE
1FFFFFFFFE
3FFFFFFFFE
3FFFFFFFFE
7FFFFFFFFE
7FFFFF01FE
7FFFFF01FE
7FFFFF01FE
FFFFFF01FE
FFFFFF01FE
FFFFFF01FE
FFFFFF01FE
7FFFFF01FE
7FFFFF01FE
7FFFFF01FE
7FFFFF01FE
3FFFFF01FE
1FFFFF01FE
1FFFFF01FE
0FFFFF01FE
03FFFF01FE
01FFFF01FE
003FFF01FE
0000FF01FE
0000FF01FE
0000FF01FE
0000FF01FE
0000FF01FE
0000FF01FE
0000FF01FE
0000FF01FE
0000FF01FE
0000FF01FE
0000FF01FE
0000FF01FE
0000FF01FE
0000FF01FE
0000FF01FE
0000FF01FE
0000FF01FE
0000FF01FE
0000FF01FE
0000FF01FE
0000FF01FE
0000FF01FE
0000FF01FE
0000FF01FE
0000FF01FE
ENDCHAR
STARTCHAR periodcentered
ENCODING 183
SWIDTH 305 0
DWIDTH 22 0
BBX 10 10 6 13
BITMAP
3F00
7F80
FFC0
FFC0
FFC0
FFC0
FFC0
FF80
7F80
1E00
ENDCHAR
STARTCHAR cedilla
ENCODING 184
SWIDTH 278 0
DWIDTH 20 0
BBX 20 17 0 -15
BITMAP
00F000
00E000
00E000
01E000
01C000
01C000
03FF00
03FFC0
03FFE0
000FE0
0007F0
6007F0
FC0FE0
7FFFE0
7FFFC0
1FFF00
01E000
ENDCHAR
STARTCHAR onesuperior
ENCODING 185
SWIDTH 366 0
DWIDTH 26 0
BBX 22 31 2 20
BITMAP
007800
03FC00
7FFC00
FFFE00
FFFE00
FFFE00
FFFE00
79FE00
01FE00
01FE00
01FE00
01FE00
01FE00
01FE00
01FE00
01FE00
01FE00
01FE00
01FE00
01FE00
01FE00
01FE00
01FE00
01FE00
01FE00
7FFFF0
FFFFFC
FFFFFC
FFFFFC
FFFFFC
7FFFF8
ENDCHAR
STARTCHAR ordmasculine
ENCODING 186
SWIDTH 334 0
DWIDTH 24 0
BBX 24 23 0 28
BITMAP
00FF00
03FFC0
0FFFF0
1FFFF8
3FFFF8
3FC3FC
7F00FE
7F00FE
7E007E
7E007E
7E007E
FE007F
7E007E
7E007E
7E007E
7F00FE
7F00FE
3F83FC
1FFFF8
1FFFF8
0FFFF0
03FFC0
00FF00
ENDCHAR
STARTCHAR guillemotright
ENCODING 187
SWIDTH 500 0
DWIDTH 36 0
BBX 28 29 4 4
BITMAP
3800E000
7C01F800
FE03F800
FF03FC00
FF03FE00
FF83FE00
FFC1FF00
7FC1FF00
7FE0FF80
3FE0FF80
3FF07FC0
1FF07FE0
0FF83FE0
0FF83FE0
0FFC1FF0
0FF83FF0
1FF83FE0
1FF07FE0
3FF07FC0
3FE0FF80
7FE0FF80
7FC1FF00
FFC1FF00
FF83FE00
FF03FE00
FF03FC00
FE03F800
FE01F800
3800F000
ENDCHAR
STARTCHAR onequarter
ENCODING 188
SWIDTH 916 0
DWIDTH 66 0
BBX 63 52 2 -1
BITMAP
007C000000070000
01FE0000000FC000
7FFE0000001FC000
FFFE0000003FE000
FFFE0000007FC000
FFFE0000007FC000
FFFE000000FFC000
38FE000001FF8000
00FE000001FF0000
00FE000003FF0000
00FE000007FE0000
00FE000007FC0000
00FE00000FFC0000
00FE00000FF80000
00FE00001FF00000
00FE00003FF00000
00FE00003FE00000
00FE00007FC00000
00FE0000FFC00000
00FE0000FF800000
00FE0001FF800000
00FE0003FF007E00
00FE0003FE01FF00
00FE0007FE07FF80
00FE000FFC0FFF80
3FFFF80FF81FFF80
FFFFFC1FF83FFF80
FFFFFC3FF07FBF80
FFFFFC3FE0FF3F80
FFFFFC7FE1FE3F80
7FFFF8FFC1FC3F80
000000FF83F83F80
000001FF87F03F80
000003FF07F03F80
000003FE0FE03F80
000007FE0FE03F80
00000FFC1FC03F80
00000FF81FC03F80
00001FF81FC03F80
00003FF01FFFFFF8
00003FE03FFFFFFC
00007FE03FFFFFFE
0000FFC01FFFFFFE
0000FF801FFFFFFC
0001FF800FFFFFFC
0003FF0000003F80
0003FE0000003F80
0003FE0000003F80
0003FC0000003F80
0003F80000003F80
0003F80000003F00
0000F00000000E00
ENDCHAR
STARTCHAR onehalf
ENCODING 189
SWIDTH 916 0
DWIDTH 66 0
BBX 64 52 1 -1
BITMAP
003C0000000F0000
01FE0000001F8000
3FFE0000003F8000
7FFE0000007FC000
FFFE0000007FC000
FFFE000000FF8000
7FFE000001FF8000
3CFE000001FF0000
00FE000003FF0000
00FE000007FE0000
00FE000007FC0000
00FE00000FFC0000
00FE00001FF80000
00FE00001FF00000
00FE00003FF00000
00FE00007FE00000
00FE00007FC00000
00FE0000FFC00000
00FE0001FF800000
00FE0001FF000000
00FE0003FF000000
00FE0007FE7FFE00
00FE0007FCFFFFC0
00FE000FFCFFFFF0
00FE001FF8FFFFF8
3FFFF81FF0FFFFFC
7FFFFC3FF07FFFFC
FFFFFE7FE00003FC
FFFFFE7FC00001FC
7FFFFEFFC00001FC
3FFFFDFF800001FC
000001FF800003FC
000003FF000007FC
000007FE00000FF8
000007FE00003FF0
00000FFC0000FFE0
00001FF80003FFC0
00001FF8000FFF00
00003FF0001FFC00
00007FE0007FF000
00007FE000FFC000
0000FFC000FF0000
0001FF8001FE0000
0001FF8001FC0000
0003FF0001FC0000
0003FE0003FFFFFC
0007FE0003FFFFFE
0007FC0003FFFFFF
0007F80001FFFFFF
0007F80001FFFFFE
0003F00000FFFFFC
0001E00000000000
ENDCHAR
STARTCHAR threequarters
ENCODING 190
SWIDTH 916 0
DWIDTH 66 0
BBX 64 52 2 -1
BITMAP
0000000000038000
3FFFFC000007E000
7FFFFE00000FE000
7FFFFE00001FF000
7FFFFE00001FF000
3FFFFE00003FE000
1FFFFC00007FE000
000FF000007FE000
003FC00000FFC000
00FF800001FF8000
03FE000001FF8000
0FFFC00003FF0000
0FFFF80007FE0000
0FFFFC0007FE0000
0FFFFF000FFC0000
07FFFF801FF80000
0001FF801FF80000
00007FC03FF00000
00003FC07FE00000
00001FC07FE00000
00001FC0FFC00000
00001FC1FF800F00
00001FC1FF807FC0
00003FC3FF01FFC0
00007FC7FE03FFC0
3FFFFF87FE07FFC0
7FFFFF8FFC0FFFC0
FFFFFF1FF81FFFC0
FFFFFE1FF83FDFC0
7FFFF83FF07F9FC0
7FFFC07FE0FF1FC0
0000007FE0FE1FC0
000000FFC1FC1FC0
000001FF83F81FC0
000001FF83F81FC0
000003FF07F01FC0
000007FE07F01FC0
000007FE07E01FC0
00000FFC0FE01FC0
00001FF80FFFFFFE
00001FF00FFFFFFF
00003FF00FFFFFFF
00007FE00FFFFFFF
00007FC007FFFFFF
0000FFC003FFFFFE
0001FF8000001FC0
0001FF0000001FC0
0001FF0000001FC0
0001FE0000001FC0
0001FC0000000FC0
0000FC0000000FC0
0000780000000780
ENDCHAR
STARTCHAR questiondown
ENCODING 191
SWIDTH 500 0
DWIDTH 36 0
BBX 32 50 3 -15
BITMAP
00007800
0001FE00
0003FE00
0003FF00
0003FF00
0003FF00
0003FF00
0003FF00
0003FE00
0001FE00
00007800
00000000
00000000
00000000
00000000
00007800
0001FC00
0001FE00
0001FE00
0003FE00
0003FE00
0003FE00
0007FE00
000FFE00
001FFC00
003FFC00
00FFF800
01FFF000
07FFE000
0FFFC000
1FFF8000
3FFE0000
3FFC0000
7FF80000
7FF00000
FFE00000
FFC00000
FFC00000
FFC00000
FFC00000
FFC00000
FFE00000
FFFFFFFC
7FFFFFFE
7FFFFFFE
3FFFFFFF
1FFFFFFF
0FFFFFFE
07FFFFFE
00FFFFFC
ENDCHAR
STARTCHAR Agrave
ENCODING 192
SWIDTH 667 0
DWIDTH 48 0
BBX 44 62 2 0
BITMAP
0007C0000000
000FF8000000
000FFF000000
000FFFE00000
000FFFFC0000
000FFFFE0000
0003FFFF0000
00003FFF0000
000001FE0000
0000001E0000
000000000000
00001F000000
00007FC00000
0000FFE00000
0001FFF00000
0001FFF80000
0003FFF80000
0007FFFC0000
0007FFFC0000
000FFFFE0000
000FFBFF0000
001FF9FF0000
001FF1FF8000
003FE0FF8000
007FE0FFC000
007FC07FC000
007FC07FE000
00FF803FE000
00FF803FF000
01FF001FF000
01FF001FF000
03FE000FF800
03FE000FF800
07FFF007FC00
07FFFF07FC00
07FFFFC7FE00
0FFFFFF3FE00
0FFFFFFFFE00
0FFFFFFFFF00
1FFFFFFFFF00
1FF03FFFFF00
1FF003FFFF80
3FF000FFFF80
3FE0003FFF80
3FE0001FFFC0
3FE00007FFC0
7FE00003FFC0
7FC00001FFE0
7FC00001FFE0
7FC00000FFE0
FFC000007FE0
FFC000007FE0
FFC000003FF0
FF8000003FF0
FF8000003FF0
FF8000003FF0
FF8000001FF0
FF8000001FF0
FF8000001FF0
FF0000000FE0
7F0000000FE0
3E00000007C0
ENDCHAR
STARTCHAR Aacute
ENCODING 193
SWIDTH 667 0
DWIDTH 48 0
BBX 44 62 2 0
BITMAP
0000003E0000
000001FF0000
00000FFF0000
00007FFF0000
0003FFFF0000
0007FFFF0000
000FFFFC0000
000FFFC00000
0007F8000000
000780000000
000000000000
00001F000000
00007FC00000
0000FFE00000
0001FFF00000
0001FFF80000
0003FFF80000
0007FFFC0000
0007FFFC0000
000FFFFE0000
000FFBFF0000
001FF9FF0000
001FF1FF8000
003FE0FF8000
007FE0FFC000
007FC07FC000
007FC07FE000
00FF803FE000
00FF803FF000
01FF001FF000
01FF001FF000
03FE000FF800
03FE000FF800
07FFF007FC00
07FFFF07FC00
07FFFFC7FE00
0FFFFFF3FE00
0FFFFFFFFE00
0FFFFFFFFF00
1FFFFFFFFF00
1FF03FFFFF00
1FF003FFFF80
3FF000FFFF80
3FE0003FFF80
3FE0001FFFC0
3FE00007FFC0
7FE00003FFC0
7FC00001FFE0
7FC00001FFE0
7FC00000FFE0
FFC000007FE0
FFC000007FE0
FFC000003FF0
FF8000003FF0
FF8000003FF0
FF8000003FF0
FF8000001FF0
FF8000001FF0
FF8000001FF0
FF0000000FE0
7F0000000FE0
3E00000007C0
ENDCHAR
STARTCHAR Acircumflex
ENCODING 194
SWIDTH 667 0
DWIDTH 48 0
BBX 44 63 2 0
BITMAP
00001F800000
00003FC00000
00007FE00000
0000FFF00000
0001FFF80000
0003F9FC0000
0003F9FC0000
0007F0FE0000
000FE07F0000
001FC03F8000
001F801F8000
000000000000
00001F000000
00007FC00000
0000FFE00000
0001FFF00000
0001FFF80000
0003FFF80000
0007FFFC0000
0007FFFC0000
000FFFFE0000
000FFBFF0000
001FF9FF0000
001FF1FF8000
003FE0FF8000
007FE0FFC000
007FC07FC000
007FC07FE000
00FF803FE000
00FF803FF000
01FF001FF000
01FF001FF000
03FE000FF800
03FE000FF800
07FFF007FC00
07FFFF07FC00
07FFFFC7FE00
0FFFFFF3FE00
0FFFFFFFFE00
0FFFFFFFFF00
1FFFFFFFFF00
1FF03FFFFF00
1FF003FFFF80
3FF000FFFF80
3FE0003FFF80
3FE0001FFFC0
3FE00007FFC0
7FE00003FFC0
7FC00001FFE0
7FC00001FFE0
7FC00000FFE0
FFC000007FE0
FFC000007FE0
FFC000003FF0
FF8000003FF0
FF8000003FF0
FF8000003FF0
FF8000001FF0
FF8000001FF0
FF8000001FF0
FF0000000FE0
7F0000000FE0
3E00000007C0
ENDCHAR
STARTCHAR Atilde
ENCODING 195
SWIDTH 667 0
DWIDTH 48 0
BBX 44 63 2 0
BITMAP
00008000C000
0003F001C000
0007FE03C000
000FFFEFC000
001FFFFF8000
001FFFFF8000
003E3FFF0000
00380FFE0000
003801F80000
000000000000
000000000000
000000000000
00001F000000
00007FC00000
0000FFE00000
0001FFF00000
0001FFF80000
0003FFF80000
0007FFFC0000
0007FFFC0000
000FFFFE0000
000FFBFF0000
001FF9FF0000
001FF1FF8000
003FE0FF8000
007FE0FFC000
007FC07FC000
007FC07FE000
00FF803FE000
00FF803FF000
01FF001FF000
01FF001FF000
03FE000FF800
03FE000FF800
07FFF007FC00
07FFFF07FC00
07FFFFC7FE00
0FFFFFF3FE00
0FFFFFFFFE00
0FFFFFFFFF00
1FFFFFFFFF00
1FF03FFFFF00
1FF003FFFF80
3FF000FFFF80
3FE0003FFF80
3FE0001FFFC0
3FE00007FFC0
7FE00003FFC0
7FC00001FFE0
7FC00001FFE0
7FC00000FFE0
FFC000007FE0
FFC000007FE0
FFC000003FF0
FF8000003FF0
FF8000003FF0
FF8000003FF0
FF8000001FF0
FF8000001FF0
FF8000001FF0
FF0000000FE0
7F0000000FE0
3E00000007C0
ENDCHAR
STARTCHAR Adieresis
ENCODING 196
SWIDTH 667 0
DWIDTH 48 0
BBX 44 62 2 0
BITMAP
000F000F0000
001F801F8000
003FC03FC000
003FC03FC000
003FC03FE000
003FC03FC000
003FC03FC000
001F801F8000
000F000F0000
000000000000
000000000000
00001F000000
00007FC00000
0000FFE00000
0001FFF00000
0001FFF80000
0003FFF80000
0007FFFC0000
0007FFFC0000
000FFFFE0000
000FFBFF0000
001FF9FF0000
001FF1FF8000
003FE0FF8000
007FE0FFC000
007FC07FC000
007FC07FE000
00FF803FE000
00FF803FF000
01FF001FF000
01FF001FF000
03FE000FF800
03FE000FF800
07FFF007FC00
07FFFF07FC00
07FFFFC7FE00
0FFFFFF3FE00
0FFFFFFFFE00
0FFFFFFFFF00
1FFFFFFFFF00
1FF03FFFFF00
1FF003FFFF80
3FF000FFFF80
3FE0003FFF80
3FE0001FFFC0
3FE00007FFC0
7FE00003FFC0
7FC00001FFE0
7FC00001FFE0
7FC00000FFE0
FFC000007FE0
FFC000007FE0
FFC000003FF0
FF8000003FF0
FF8000003FF0
FF8000003FF0
FF8000001FF0
FF8000001FF0
FF8000001FF0
FF0000000FE0
7F0000000FE0
3E00000007C0
ENDCHAR
STARTCHAR Aring
ENCODING 197
SWIDTH 667 0
DWIDTH 48 0
BBX 44 68 2 0
BITMAP
00001F800000
00007FE00000
0000FFF00000
0000FFF80000
0001F0F80000
0001E0780000
0003E07C0000
0003C03C0000
0003C03C0000
0003E07C0000
0001E0780000
0001F0F80000
0000FFF80000
0000FFF00000
00007FE00000
00001F800000
000000000000
00001F000000
00007FC00000
0000FFE00000
0001FFF00000
0001FFF80000
0003FFF80000
0007FFFC0000
0007FFFC0000
000FFFFE0000
000FFBFF0000
001FF9FF0000
001FF1FF8000
003FE0FF8000
007FE0FFC000
007FC07FC000
007FC07FE000
00FF803FE000
00FF803FF000
01FF001FF000
01FF001FF000
03FE000FF800
03FE000FF800
07FFF007FC00
07FFFF07FC00
07FFFFC7FE00
0FFFFFF3FE00
0FFFFFFFFE00
0FFFFFFFFF00
1FFFFFFFFF00
1FF03FFFFF00
1FF003FFFF80
3FF000FFFF80
3FE0003FFF80
3FE0001FFFC0
3FE00007FFC0
7FE00003FFC0
7FC00001FFE0
7FC00001FFE0
7FC00000FFE0
FFC000007FE0
FFC000007FE0
FFC000003FF0
FF8000003FF0
FF8000003FF0
FF8000003FF0
FF8000001FF0
FF8000001FF0
FF8000001FF0
FF0000000FE0
7F0000000FE0
3E00000007C0
ENDCHAR
STARTCHAR AE
ENCODING 198
SWIDTH 889 0
DWIDTH 64 0
BBX 64 50 -1 0
BITMAP
00000007FFFFFFFC
0000001FFFFFFFFE
0000007FFFFFFFFF
000001FFFFFFFFFF
000003FFFFFFFFFF
000007FFFFFFFFFF
00000FFFFFFFFFFE
00001FFFFFFFFFFC
00003FFEFF800000
00007FF8FF800000
0000FFE0FF800000
0001FFC0FF800000
0003FF80FF800000
0003FF00FF800000
0007FE00FF800000
000FFC00FF800000
000FF800FFFFFFF0
001FF000FFFFFFF8
001FE00FFFFFFFF8
003FE07FFFFFFFF8
007FC1FFFFFFFFF8
007FC7FFFFFFFFF8
00FF8FFFFFFFFFF0
00FFBFFFFFFFFFE0
01FF7FFFFF800000
01FFFFFFFF800000
03FFFFF0FF800000
03FFFF80FF800000
07FFFE00FF800000
07FFF800FF800000
07FFE000FF800000
0FFFC000FF800000
0FFF8000FF800000
1FFF0000FF800000
1FFE0000FF800000
1FFC0000FF800000
3FF80000FF800000
3FF80000FF800000
3FF00000FF800000
7FF00000FF800000
7FE00000FF800000
7FE00000FF800000
7FC00000FFFFFFFC
7FC00000FFFFFFFE
FFC00000FFFFFFFF
FF800000FFFFFFFF
FF800000FFFFFFFF
7F800000FFFFFFFF
7F0000007FFFFFFE
3E0000001FFFFFFC
ENDCHAR
STARTCHAR Ccedilla
ENCODING 199
SWIDTH 611 0
DWIDTH 44 0
BBX 39 65 3 -15
BITMAP
0003FFFFF8
001FFFFFFC
007FFFFFFC
01FFFFFFFE
03FFFFFFFE
07FFFFFFFE
0FFFFFFFFC
0FFFFFFFFC
1FFFFFFFE0
1FFF000000
3FFC000000
3FF8000000
7FF0000000
7FF0000000
7FE0000000
7FE0000000
FFE0000000
FFE0000000
FFC0000000
FFC0000000
FFC0000000
FFC0000000
FFC0000000
FFC0000000
FFE0000000
FFE0000000
7FE0000000
7FE0000000
7FF0000000
7FF0000000
3FF8000000
3FF8000000
3FFC000000
1FFE000000
1FFF000000
0FFF000000
0FFFC00000
07FFE00000
03FFF00000
03FFFC0000
01FFFF8000
00FFFFF800
007FFFFFF8
003FFFFFFC
000FFFFFFE
0007FFFFFE
0001FFFFFE
00007FFFFE
00001FFFFE
000007FFFC
0000073FF0
0000070000
00000F0000
00000E0000
00000FF800
00001FFE00
00001FFF00
0000007F00
0000003F80
0000003F80
0003C03F80
0003FFFF00
0003FFFE00
0001FFFC00
00003FE000
ENDCHAR
STARTCHAR Egrave
ENCODING 200
SWIDTH 556 0
DWIDTH 40 0
BBX 32 62 5 0
BITMAP
01C00000
03F80000
03FF0000
07FFE000
07FFFC00
07FFFF00
03FFFF80
007FFF80
0003FF80
00003F80
00000200
00000000
3FFFFFFC
7FFFFFFE
FFFFFFFF
FFFFFFFF
FFFFFFFF
FFFFFFFF
FFFFFFFE
FFFFFFFC
FF800000
FF800000
FF800000
FF800000
FF800000
FF800000
FF800000
FFFFFFF8
FFFFFFFC
FFFFFFFE
FFFFFFFE
FFFFFFFE
FFFFFFFE
FFFFFFFC
FFFFFFF8
FF800000
FF800000
FF800000
FF800000
FF800000
FF800000
FF800000
FF800000
FF800000
FF800000
FF800000
FF800000
FF800000
FF800000
FF800000
FF800000
FF800000
FF800000
FF800000
FFFFFFFC
FFFFFFFE
FFFFFFFF
FFFFFFFF
FFFFFFFF
7FFFFFFF
7FFFFFFE
1FFFFFFC
ENDCHAR
STARTCHAR Eacute
ENCODING 201
SWIDTH 556 0
DWIDTH 40 0
BBX 32 62 5 0
BITMAP
00000700
00003F80
0001FF80
000FFF80
007FFFC0
01FFFFC0
03FFFF80
03FFFC00
03FF8000
03F80000
00800000
00000000
3FFFFFFC
7FFFFFFE
FFFFFFFF
FFFFFFFF
FFFFFFFF
FFFFFFFF
FFFFFFFE
FFFFFFFC
FF800000
FF800000
FF800000
FF800000
FF800000
FF800000
FF800000
FFFFFFF8
FFFFFFFC
FFFFFFFE
FFFFFFFE
FFFFFFFE
FFFFFFFE
FFFFFFFC
FFFFFFF8
FF800000
FF800000
FF800000
FF800000
FF800000
FF800000
FF800000
FF800000
FF800000
FF800000
FF800000
FF800000
FF800000
FF800000
FF800000
FF800000
FF800000
FF800000
FF800000
FFFFFFFC
FFFFFFFE
FFFFFFFF
FFFFFFFF
FFFFFFFF
7FFFFFFF
7FFFFFFE
1FFFFFFC
ENDCHAR
STARTCHAR Ecircumflex
ENCODING 202
SWIDTH 556 0
DWIDTH 40 0
BBX 32 63 5 0
BITMAP
0007C000
001FE000
001FF000
003FF800
007FFC00
00FEFE00
01FC7F00
03F83F80
07F83F80
07F01FC0
0FE00FE0
00000000
00000000
3FFFFFFC
7FFFFFFE
FFFFFFFF
FFFFFFFF
FFFFFFFF
FFFFFFFF
FFFFFFFE
FFFFFFFC
FF800000
FF800000
FF800000
FF800000
FF800000
FF800000
FF800000
FFFFFFF8
FFFFFFFC
FFFFFFFE
FFFFFFFE
FFFFFFFE
FFFFFFFE
FFFFFFFC
FFFFFFF8
FF800000
FF800000
FF800000
FF800000
FF800000
FF800000
FF800000
FF800000
FF800000
FF800000
FF800000
FF800000
FF800000
FF800000
FF800000
FF800000
FF800000
FF800000
FF800000
FFFFFFFC
FFFFFFFE
FFFFFFFF
FFFFFFFF
FFFFFFFF
7FFFFFFF
7FFFFFFE
1FFFFFFC
ENDCHAR
STARTCHAR Edieresis
ENCODING 203
SWIDTH 556 0
DWIDTH 40 0
BBX 32 62 5 0
BITMAP
07800380
0FE00FE0
1FE00FE0
1FF01FF0
1FF01FF0
1FF01FF0
1FE01FF0
0FE00FE0
078007C0
00000000
00000000
00000000
3FFFFFFC
7FFFFFFE
FFFFFFFF
FFFFFFFF
FFFFFFFF
FFFFFFFF
FFFFFFFE
FFFFFFFC
FF800000
FF800000
FF800000
FF800000
FF800000
FF800000
FF800000
FFFFFFF8
FFFFFFFC
FFFFFFFE
FFFFFFFE
FFFFFFFE
FFFFFFFE
FFFFFFFC
FFFFFFF8
FF800000
FF800000
FF800000
FF800000
FF800000
FF800000
FF800000
FF800000
FF800000
FF800000
FF800000
FF800000
FF800000
FF800000
FF800000
FF800000
FF800000
FF800000
FF800000
FFFFFFFC
FFFFFFFE
FFFFFFFF
FFFFFFFF
FFFFFFFF
7FFFFFFF
7FFFFFFE
1FFFFFFC
ENDCHAR
STARTCHAR Igrave
ENCODING 204
SWIDTH 278 0
DWIDTH 20 0
BBX 20 62 0 0
BITMAP
200000
7E0000
FFC000
FFF800
FFFE00
FFFFC0
FFFFE0
1FFFF0
01FFF0
001FE0
0001C0
000000
00F000
03F800
03FC00
03FC00
07FE00
07FE00
07FE00
07FE00
07FE00
07FE00
07FE00
07FE00
07FE00
07FE00
07FE00
07FE00
07FE00
07FE00
07FE00
07FE00
07FE00
07FE00
07FE00
07FE00
07FE00
07FE00
07FE00
07FE00
07FE00
07FE00
07FE00
07FE00
07FE00
07FE00
07FE00
07FE00
07FE00
07FE00
07FE00
07FE00
07FE00
07FE00
07FE00
07FE00
07FE00
07FE00
03FC00
03FC00
03F800
00F000
ENDCHAR
STARTCHAR Iacute
ENCODING 205
SWIDTH 278 0
DWIDTH 20 0
BBX 20 62 0 0
BITMAP
000040
0007E0
003FF0
01FFF0
0FFFF0
3FFFF0
FFFFF0
FFFF80
FFF800
7F8000
380000
000000
00F000
03F800
03FC00
03FC00
07FE00
07FE00
07FE00
07FE00
07FE00
07FE00
07FE00
07FE00
07FE00
07FE00
07FE00
07FE00
07FE00
07FE00
07FE00
07FE00
07FE00
07FE00
07FE00
07FE00
07FE00
07FE00
07FE00
07FE00
07FE00
07FE00
07FE00
07FE00
07FE00
07FE00
07FE00
07FE00
07FE00
07FE00
07FE00
07FE00
07FE00
07FE00
07FE00
07FE00
07FE00
07FE00
03FC00
03FC00
03F800
00F000
ENDCHAR
STARTCHAR Icircumflex
ENCODING 206
SWIDTH 278 0
DWIDTH 20 0
BBX 22 62 -1 0
BITMAP
00FC00
01FE00
03FF00
07FF80
0FFFC0
1FCFE0
1FCFE0
3F87F0
7F03F8
FE01FC
FC00FC
000000
007800
01FC00
01FE00
01FE00
03FF00
03FF00
03FF00
03FF00
03FF00
03FF00
03FF00
03FF00
03FF00
03FF00
03FF00
03FF00
03FF00
03FF00
03FF00
03FF00
03FF00
03FF00
03FF00
03FF00
03FF00
03FF00
03FF00
03FF00
03FF00
03FF00
03FF00
03FF00
03FF00
03FF00
03FF00
03FF00
03FF00
03FF00
03FF00
03FF00
03FF00
03FF00
03FF00
03FF00
03FF00
03FF00
01FE00
01FE00
01FC00
007800
ENDCHAR
STARTCHAR Idieresis
ENCODING 207
SWIDTH 278 0
DWIDTH 20 0
BBX 26 61 -3 0
BITMAP
1E001E00
3F003F00
7F807F80
7F807F80
FF807FC0
7F807F80
7F807F80
3F003F00
1E001E00
00000000
00000000
001E0000
007F0000
007F8000
007F8000
00FFC000
00FFC000
00FFC000
00FFC000
00FFC000
00FFC000
00FFC000
00FFC000
00FFC000
00FFC000
00FFC000
00FFC000
00FFC000
00FFC000
00FFC000
00FFC000
00FFC000
00FFC000
00FFC000
00FFC000
00FFC000
00FFC000
00FFC000
00FFC000
00FFC000
00FFC000
00FFC000
00FFC000
00FFC000
00FFC000
00FFC000
00FFC000
00FFC000
00FFC000
00FFC000
00FFC000
00FFC000
00FFC000
00FFC000
00FFC000
00FFC000
00FFC000
007F8000
007F8000
007F0000
001E0000
ENDCHAR
STARTCHAR Eth
ENCODING 208
SWIDTH 667 0
DWIDTH 48 0
BBX 45 50 0 0
BITMAP
00FFC0000000
03FFFE000000
07FFFFC00000
07FFFFF80000
07FFFFFE0000
07FFFFFF0000
07FFFFFFC000
07FFFFFFE000
07FFFFFFF000
07FC0FFFF800
07FC01FFFC00
07FC007FFE00
07FC003FFF00
07FC001FFF80
07FC000FFF80
07FC0003FFC0
07FC0003FFC0
07FC0001FFE0
07FC0000FFE0
07FC0000FFF0
3FFFFE007FF0
FFFFFF807FF0
FFFFFF803FF8
FFFFFF803FF8
FFFFFF803FF8
FFFFFF801FF8
7FFFFF001FF8
3FFFFE001FF8
07FC00001FF8
07FC00001FF8
07FC00001FF8
07FC00001FF8
07FC00001FF8
07FC00001FF8
07FC00001FF8
07FC00003FF8
07FC00003FF0
07FC00007FF0
07FC0000FFF0
07FC0001FFE0
07FC000FFFE0
07FFFFFFFFC0
07FFFFFFFF80
07FFFFFFFF80
07FFFFFFFF00
07FFFFFFFE00
07FFFFFFF800
07FFFFFFF000
03FFFFFFC000
01FFFFFE0000
ENDCHAR
STARTCHAR Ntilde
ENCODING 209
SWIDTH 611 0
DWIDTH 44 0
BBX 34 62 5 0
BITMAP
0018003800
007F807800
00FFF0F800
01FFFFF000
03FFFFF000
03FFFFE000
07C3FFC000
07007F8000
0600000000
0000000000
0000000000
0000000000
3F00000F00
7FC0003F80
FFE0003FC0
FFF0007FC0
FFF0007FC0
FFF8007FC0
FFFC007FC0
FFFE007FC0
FFFF007FC0
FFFF807FC0
FFFFC07FC0
FFFFF07FC0
FFFFFC7FC0
FFBFFF7FC0
FF9FFFFFC0
FF8FFFFFC0
FF87FFFFC0
FF81FFFFC0
FF80FFFFC0
FF803FFFC0
FF800FFFC0
FF8001FFC0
FF80007FC0
FF80007FC0
FF80007FC0
FF80007FC0
FF80007FC0
FF80007FC0
FF80007FC0
FF80007FC0
FF80007FC0
FF80007FC0
FF80007FC0
FF80007FC0
FF80007FC0
FF80007FC0
FF80007FC0
FF80007FC0
FF80007FC0
FF80007FC0
FF80007FC0
FF80007FC0
FF80007FC0
FF80007FC0
FF80007FC0
FF80007FC0
FF00007FC0
FF00003FC0
7F00003F80
3C00000F00
ENDCHAR
STARTCHAR Ograve
ENCODING 210
SWIDTH 722 0
DWIDTH 52 0
BBX 46 63 3 -1
BITMAP
0003E0000000
0007FC000000
0007FF800000
0007FFF00000
0007FFFE0000
0007FFFF0000
0001FFFF8000
00001FFF8000
000000FF0000
0000000F0000
000000000000
00003FF00000
0001FFFE0000
000FFFFFC000
001FFFFFE000
007FFFFFF800
00FFFFFFFC00
01FFFFFFFE00
03FFFFFFFF00
07FFF87FFF80
0FFFC00FFFC0
0FFF0003FFC0
1FFE0001FFE0
3FFC0000FFE0
3FF800007FF0
3FF800007FF0
7FF000003FF8
7FF000003FF8
7FE000001FF8
FFE000001FFC
FFE000001FFC
FFC000000FFC
FFC000000FFC
FFC000000FFC
FFC000000FFC
FFC000000FFC
FFC000000FFC
FFC000000FFC
FFC000000FFC
FFC000000FFC
FFC000000FFC
FFC000000FFC
FFC000000FFC
FFE000001FFC
FFE000001FFC
7FE000001FF8
7FF000003FF8
7FF000003FF8
3FF800007FF0
3FF800007FF0
1FFC0000FFE0
1FFE0001FFE0
0FFF0003FFC0
0FFFC00FFFC0
07FFF87FFF80
03FFFFFFFF00
01FFFFFFFE00
00FFFFFFFC00
007FFFFFF800
001FFFFFE000
000FFFFFC000
0001FFFE0000
00003FF00000
ENDCHAR
STARTCHAR Oacute
ENCODING 211
SWIDTH 722 0
DWIDTH 52 0
BBX 46 63 3 -1
BITMAP
0000001F0000
000000FF8000
000007FF8000
00003FFF8000
0001FFFF8000
0003FFFF8000
0007FFFE0000
0007FFE00000
0003FC000000
0003C0000000
000000000000
00003FF00000
0001FFFE0000
000FFFFFC000
001FFFFFE000
007FFFFFF800
00FFFFFFFC00
01FFFFFFFE00
03FFFFFFFF00
07FFF87FFF80
0FFFC00FFFC0
0FFF0003FFC0
1FFE0001FFE0
3FFC0000FFE0
3FF800007FF0
3FF800007FF0
7FF000003FF8
7FF000003FF8
7FE000001FF8
FFE000001FFC
FFE000001FFC
FFC000000FFC
FFC000000FFC
FFC000000FFC
FFC000000FFC
FFC000000FFC
FFC000000FFC
FFC000000FFC
FFC000000FFC
FFC000000FFC
FFC000000FFC
FFC000000FFC
FFC000000FFC
FFE000001FFC
FFE000001FFC
7FE000001FF8
7FF000003FF8
7FF000003FF8
3FF800007FF0
3FF800007FF0
1FFC0000FFE0
1FFE0001FFE0
0FFF0003FFC0
0FFFC00FFFC0
07FFF87FFF80
03FFFFFFFF00
01FFFFFFFE00
00FFFFFFFC00
007FFFFFF800
001FFFFFE000
000FFFFFC000
0001FFFE0000
00003FF00000
ENDCHAR
STARTCHAR Ocircumflex
ENCODING 212
SWIDTH 722 0
DWIDTH 52 0
BBX 46 64 3 -1
BITMAP
00000FC00000
00001FE00000
00003FF00000
00007FF80000
0000FFFC0000
0001FCFE0000
0001FCFE0000
0003F87F0000
0007F03F8000
000FE01FC000
000FC00FC000
000000000000
00003FF00000
0001FFFE0000
000FFFFFC000
001FFFFFE000
007FFFFFF800
00FFFFFFFC00
01FFFFFFFE00
03FFFFFFFF00
07FFF87FFF80
0FFFC00FFFC0
0FFF0003FFC0
1FFE0001FFE0
3FFC0000FFE0
3FF800007FF0
3FF800007FF0
7FF000003FF8
7FF000003FF8
7FE000001FF8
FFE000001FFC
FFE000001FFC
FFC000000FFC
FFC000000FFC
FFC000000FFC
FFC000000FFC
FFC000000FFC
FFC000000FFC
FFC000000FFC
FFC000000FFC
FFC000000FFC
FFC000000FFC
FFC000000FFC
FFC000000FFC
FFE000001FFC
FFE000001FFC
7FE000001FF8
7FF000003FF8
7FF000003FF8
3FF800007FF0
3FF800007FF0
1FFC0000FFE0
1FFE0001FFE0
0FFF0003FFC0
0FFFC00FFFC0
07FFF87FFF80
03FFFFFFFF00
01FFFFFFFE00
00FFFFFFFC00
007FFFFFF800
001FFFFFE000
000FFFFFC000
0001FFFE0000
00003FF00000
ENDCHAR
STARTCHAR Otilde
ENCODING 213
SWIDTH 722 0
DWIDTH 52 0
BBX 46 64 3 -1
BITMAP
00004000E000
0001F800E000
0003FF01E000
0007FFF7E000
000FFFFFC000
000FFFFFC000
001F1FFF8000
001C07FF0000
001C00FC0000
001000000000
000000000000
000000000000
00003FF00000
0001FFFE0000
000FFFFFC000
001FFFFFE000
007FFFFFF800
00FFFFFFFC00
01FFFFFFFE00
03FFFFFFFF00
07FFF87FFF80
0FFFC00FFFC0
0FFF0003FFC0
1FFE0001FFE0
3FFC0000FFE0
3FF800007FF0
3FF800007FF0
7FF000003FF8
7FF000003FF8
7FE000001FF8
FFE000001FFC
FFE000001FFC
FFC000000FFC
FFC000000FFC
FFC000000FFC
FFC000000FFC
FFC000000FFC
FFC000000FFC
FFC000000FFC
FFC000000FFC
FFC000000FFC
FFC000000FFC
FFC000000FFC
FFC000000FFC
FFE000001FFC
FFE000001FFC
7FE000001FF8
7FF000003FF8
7FF000003FF8
3FF800007FF0
3FF800007FF0
1FFC0000FFE0
1FFE0001FFE0
0FFF0003FFC0
0FFFC00FFFC0
07FFF87FFF80
03FFFFFFFF00
01FFFFFFFE00
00FFFFFFFC00
007FFFFFF800
001FFFFFE000
000FFFFFC000
0001FFFE0000
00003FF00000
ENDCHAR
STARTCHAR Odieresis
ENCODING 214
SWIDTH 722 0
DWIDTH 52 0
BBX 46 63 3 -1
BITMAP
000780078000
000FC00FC000
001FE01FE000
001FE01FE000
003FE01FF000
001FE01FE000
001FE01FE000
000FC00FC000
000780078000
000000000000
000000000000
00003FF00000
0001FFFE0000
000FFFFFC000
001FFFFFE000
007FFFFFF800
00FFFFFFFC00
01FFFFFFFE00
03FFFFFFFF00
07FFF87FFF80
0FFFC00FFFC0
0FFF0003FFC0
1FFE0001FFE0
3FFC0000FFE0
3FF800007FF0
3FF800007FF0
7FF000003FF8
7FF000003FF8
7FE000001FF8
FFE000001FFC
FFE000001FFC
FFC000000FFC
FFC000000FFC
FFC000000FFC
FFC000000FFC
FFC000000FFC
FFC000000FFC
FFC000000FFC
FFC000000FFC
FFC000000FFC
FFC000000FFC
FFC000000FFC
FFC000000FFC
FFE000001FFC
FFE000001FFC
7FE000001FF8
7FF000003FF8
7FF000003FF8
3FF800007FF0
3FF800007FF0
1FFC0000FFE0
1FFE0001FFE0
0FFF0003FFC0
0FFFC00FFFC0
07FFF87FFF80
03FFFFFFFF00
01FFFFFFFE00
00FFFFFFFC00
007FFFFFF800
001FFFFFE000
000FFFFFC000
0001FFFE0000
00003FF00000
ENDCHAR
STARTCHAR multiply
ENCODING 215
SWIDTH 600 0
DWIDTH 43 0
BBX 37 37 3 0
BITMAP
0400000100
0E00000380
1F000007C0
3F80000FE0
7FC0001FF0
FFE0003FF8
7FF0007FF0
3FF800FFE0
1FFC01FFC0
0FFE03FF80
07FF07FF00
03FF8FFE00
01FFDFFC00
00FFFFF800
007FFFF000
003FFFE000
001FFFC000
000FFF8000
0007FF0000
000FFF8000
001FFFC000
003FFFE000
007FFFF000
00FFFFF800
01FFDFFC00
03FF8FFE00
07FF07FF00
0FFE03FF80
1FFC01FFC0
3FF800FFE0
7FF0007FF0
FFE0003FF8
7FC0001FF0
3F80000FE0
1F000007C0
0E00000380
0400000100
ENDCHAR
STARTCHAR Oslash
ENCODING 216
SWIDTH 722 0
DWIDTH 52 0
BBX 46 66 3 -8
BITMAP
000000003800
000000007E00
00000000FF00
00000001FF00
00000001FF00
00000003FE00
00000003FE00
00003FF7FE00
0001FFFFFC00
000FFFFFFC00
001FFFFFF800
007FFFFFF800
00FFFFFFFC00
01FFFFFFFE00
03FFFFFFFF00
07FFF83FFF80
0FFFC07FFFC0
0FFF007FFFC0
1FFE00FFFFE0
3FFC00FFFFE0
3FF801FFFFF0
3FF801FF7FF0
7FF001FF3FF8
7FF003FE3FF8
7FE003FE1FF8
FFE007FC1FFC
FFE007FC1FFC
FFC00FF80FFC
FFC00FF80FFC
FFC01FF80FFC
FFC01FF00FFC
FFC03FF00FFC
FFC03FE00FFC
FFC03FE00FFC
FFC07FC00FFC
FFC07FC00FFC
FFC0FF800FFC
FFC0FF800FFC
FFC1FF000FFC
FFE1FF001FFC
FFE3FF001FFC
7FE3FE001FF8
7FF3FE003FF8
7FF7FC003FF8
3FFFFC007FF0
3FFFF8007FF0
3FFFF800FFE0
1FFFF001FFE0
0FFFF003FFC0
0FFFF00FFFC0
07FFF07FFF80
03FFFFFFFF00
01FFFFFFFE00
00FFFFFFFC00
00FFFFFFF800
00FFFFFFE000
01FFFFFFC000
01FFFFFE0000
03FE3FF00000
03FE00000000
07FC00000000
07FC00000000
07F800000000
07F800000000
03F000000000
00C000000000
ENDCHAR
STARTCHAR Ugrave
ENCODING 217
SWIDTH 611 0
DWIDTH 44 0
BBX 36 63 4 -1
BITMAP
0020000000
007E000000
00FFC00000
00FFF80000
00FFFF0000
00FFFFC000
00FFFFF000
001FFFF000
0001FFF000
00001FE000
000000C000
0000000000
0F00001F00
1FC0003F80
1FC0003F80
3FE0007FC0
3FE0007FC0
3FE0007FC0
3FE0007FC0
3FE0007FC0
3FC0007FC0
3FC0007FC0
7FC0003FC0
7FC0003FE0
7FC0003FE0
7FC0003FE0
7FC0003FE0
7FC0003FE0
7FC0003FE0
7FC0003FE0
7FC0003FE0
7F80003FE0
7F80001FE0
FF80001FE0
FF80001FF0
FF80001FF0
FF80001FF0
FF80001FF0
FF80001FF0
FF80001FF0
FF80001FF0
FF00001FF0
FF00001FF0
FF00001FF0
FF00000FF0
FF00000FF0
FF00001FF0
FF80001FF0
FF80001FF0
FF80001FF0
FFC0003FF0
7FC0007FE0
7FE000FFE0
7FF801FFE0
3FFE0FFFC0
3FFFFFFF80
1FFFFFFF80
0FFFFFFF00
07FFFFFE00
03FFFFFC00
00FFFFF000
003FFFC000
0007FE0000
ENDCHAR
STARTCHAR Uacute
ENCODING 218
SWIDTH 611 0
DWIDTH 44 0
BBX 36 63 4 -1
BITMAP
0000004000
000007E000
00003FF000
0001FFF000
0007FFF000
003FFFF000
007FFFF000
00FFFF8000
00FFF80000
007F800000
0038000000
0000000000
0F00001F00
1FC0003F80
1FC0003F80
3FE0007FC0
3FE0007FC0
3FE0007FC0
3FE0007FC0
3FE0007FC0
3FC0007FC0
3FC0007FC0
7FC0003FC0
7FC0003FE0
7FC0003FE0
7FC0003FE0
7FC0003FE0
7FC0003FE0
7FC0003FE0
7FC0003FE0
7FC0003FE0
7F80003FE0
7F80001FE0
FF80001FE0
FF80001FF0
FF80001FF0
FF80001FF0
FF80001FF0
FF80001FF0
FF80001FF0
FF80001FF0
FF00001FF0
FF00001FF0
FF00001FF0
FF00000FF0
FF00000FF0
FF00001FF0
FF80001FF0
FF80001FF0
FF80001FF0
FFC0003FF0
7FC0007FE0
7FE000FFE0
7FF801FFE0
3FFE0FFFC0
3FFFFFFF80
1FFFFFFF80
0FFFFFFF00
07FFFFFE00
03FFFFFC00
00FFFFF000
003FFFC000
0007FE0000
ENDCHAR
STARTCHAR Ucircumflex
ENCODING 219
SWIDTH 611 0
DWIDTH 44 0
BBX 36 63 4 -1
BITMAP
0001F80000
0003FC0000
0007FE0000
000FFF0000
001FFF8000
003F9FC000
003F9FC000
007F0FE000
00FE07F000
01FC03F800
01F801F800
0000000000
0F00001F00
1FC0003F80
1FC0003F80
3FE0007FC0
3FE0007FC0
3FE0007FC0
3FE0007FC0
3FE0007FC0
3FC0007FC0
3FC0007FC0
7FC0003FC0
7FC0003FE0
7FC0003FE0
7FC0003FE0
7FC0003FE0
7FC0003FE0
7FC0003FE0
7FC0003FE0
7FC0003FE0
7F80003FE0
7F80001FE0
FF80001FE0
FF80001FF0
FF80001FF0
FF80001FF0
FF80001FF0
FF80001FF0
FF80001FF0
FF80001FF0
FF00001FF0
FF00001FF0
FF00001FF0
FF00000FF0
FF00000FF0
FF00001FF0
FF80001FF0
FF80001FF0
FF80001FF0
FFC0003FF0
7FC0007FE0
7FE000FFE0
7FF801FFE0
3FFE0FFFC0
3FFFFFFF80
1FFFFFFF80
0FFFFFFF00
07FFFFFE00
03FFFFFC00
00FFFFF000
003FFFC000
0007FE0000
ENDCHAR
STARTCHAR Udieresis
ENCODING 220
SWIDTH 611 0
DWIDTH 44 0
BBX 36 62 4 -1
BITMAP
00F000F000
01F801F800
03FC03FC00
03FC03FC00
07FC03FE00
03FC03FC00
03FC03FC00
01F801F800
00F000F000
0000000000
0000000000
0F00001F00
1FC0003F80
1FC0003F80
3FE0007FC0
3FE0007FC0
3FE0007FC0
3FE0007FC0
3FE0007FC0
3FC0007FC0
3FC0007FC0
7FC0003FC0
7FC0003FE0
7FC0003FE0
7FC0003FE0
7FC0003FE0
7FC0003FE0
7FC0003FE0
7FC0003FE0
7FC0003FE0
7F80003FE0
7F80001FE0
FF80001FE0
FF80001FF0
FF80001FF0
FF80001FF0
FF80001FF0
FF80001FF0
FF80001FF0
FF80001FF0
FF00001FF0
FF00001FF0
FF00001FF0
FF00000FF0
FF00000FF0
FF00001FF0
FF80001FF0
FF80001FF0
FF80001FF0
FFC0003FF0
7FC0007FE0
7FE000FFE0
7FF801FFE0
3FFE0FFFC0
3FFFFFFF80
1FFFFFFF80
0FFFFFFF00
07FFFFFE00
03FFFFFC00
00FFFFF000
003FFFC000
0007FE0000
ENDCHAR
STARTCHAR Yacute
ENCODING 221
SWIDTH 556 0
DWIDTH 40 0
BBX 38 62 1 0
BITMAP
0000003000
000001F800
00000FFC00
00007FFC00
0003FFFC00
000FFFFC00
003FFFFC00
003FFFE000
003FFE0000
001FC00000
000C000000
0000000000
3E000001F0
7F000003F8
7F800007F8
FF800007FC
FFC0000FFC
FFC0000FFC
FFC0000FFC
7FE0001FF8
7FE0001FF8
7FE0001FF8
3FF0003FF0
3FF0003FF0
1FF8007FE0
1FFC00FFE0
0FFC00FFC0
0FFE01FFC0
07FF03FF80
03FF87FF00
03FFCFFF00
01FFFFFE00
00FFFFFC00
007FFFF800
003FFFF000
001FFFE000
000FFFC000
0007FF8000
0003FF0000
0003FF0000
0003FF0000
0003FF0000
0003FF0000
0003FF0000
0003FF0000
0003FF0000
0003FF0000
0003FF0000
0003FF0000
0003FF0000
0003FF0000
0003FF0000
0003FF0000
0003FF0000
0003FF0000
0003FF0000
0003FF0000
0003FF0000
0003FF0000
0001FE0000
0001FE0000
0000780000
ENDCHAR
STARTCHAR Thorn
ENCODING 222
SWIDTH 556 0
DWIDTH 40 0
BBX 35 50 5 0
BITMAP
3E00000000
7F00000000
FF80000000
FF80000000
FF80000000
FF80000000
FF80000000
FF80000000
FF80000000
FFFFFFF000
FFFFFFFC00
FFFFFFFF00
FFFFFFFF80
FFFFFFFFC0
FFFFFFFFC0
FFFFFFFFE0
FFFFFFFFE0
FF80007FE0
FF80003FE0
FF80003FE0
FF80003FE0
FF80007FE0
FF80007FE0
FF8000FFC0
FF8003FFC0
FF8007FFC0
FF801FFF80
FF807FFF00
FF83FFFE00
FF9FFFFC00
FFFFFFF800
FFFFFFE000
FFFFFFC000
FFFFFE0000
FFFFF80000
FFFFC00000
FFFE000000
FFF0000000
FF80000000
FF80000000
FF80000000
FF80000000
FF80000000
FF80000000
FF80000000
FF80000000
FF80000000
FF80000000
7F00000000
3E00000000
ENDCHAR
STARTCHAR germandbls
ENCODING 223
SWIDTH 556 0
DWIDTH 40 0
BBX 39 52 -1 0
BITMAP
0007FF0000
003FFFF000
007FFFF800
00FFFFFE00
01FFFFFE00
01FFFFFF00
03FFFFFF00
03FFFFFF00
03FE01FF80
03FC00FF80
03FC00FF80
03FC00FF80
03FC00FF00
03FC01FF00
3FFC03FE00
7FFC07FE00
FFFC1FFC00
FFFC3FF800
FFFC7FF000
FFFCFFE000
7FFCFF8000
3FFDFF0000
03FDFF0000
03FDFF0000
03FDFFC000
03FDFFF800
03FDFFFE00
03FCFFFF80
03FC7FFFE0
03FC3FFFF0
03FC07FFF8
03FC01FFF8
03FC003FFC
03FC000FFC
03FC0007FE
03FC0003FE
03FC0003FE
03FC0003FE
03FC0003FE
03FC0003FE
03FC0003FE
03FC0003FE
03FC0007FE
03FC001FFC
03FFFFFFFC
03FFFFFFF8
03FFFFFFF8
03FFFFFFF0
03FFFFFFE0
03FFFFFFC0
03FFFFFF00
00FFFFF800
ENDCHAR
STARTCHAR agrave
ENCODING 224
SWIDTH 556 0
DWIDTH 40 0
BBX 32 52 2 -1
BITMAP
00780000
00FF0000
00FFE000
01FFFC00
01FFFF00
00FFFFE0
007FFFE0
000FFFE0
00007FE0
000007C0
00000000
00000000
00000000
00000000
07FFFF00
0FFFFFE0
1FFFFFF0
1FFFFFF8
1FFFFFFC
1FFFFFFC
0FFFFFFE
07FFFFFE
000003FE
000001FF
000001FF
000001FF
000001FF
0003FFFF
003FFFFF
01FFFFFF
03FFFFFF
0FFFFFFF
1FFFFFFF
3FFFFFFF
3FFE00FF
7FF000FF
7FE000FF
FFC000FF
FF8000FF
FF8001FF
FF8001FF
FF8001FF
FF8003FF
FFC007FF
7FF01FFF
7FFFFFFF
3FFFFFFF
3FFFFFFF
1FFFFEFF
0FFFFCFF
03FFF87E
007FC03C
ENDCHAR
STARTCHAR aacute
ENCODING 225
SWIDTH 556 0
DWIDTH 40 0
BBX 32 52 2 -1
BITMAP
000003E0
00001FE0
0000FFE0
0003FFF0
001FFFF0
007FFFF0
00FFFFE0
00FFFE00
00FFC000
007C0000
00000000
00000000
00000000
00000000
07FFFF00
0FFFFFE0
1FFFFFF0
1FFFFFF8
1FFFFFFC
1FFFFFFC
0FFFFFFE
07FFFFFE
000003FE
000001FF
000001FF
000001FF
000001FF
0003FFFF
003FFFFF
01FFFFFF
03FFFFFF
0FFFFFFF
1FFFFFFF
3FFFFFFF
3FFE00FF
7FF000FF
7FE000FF
FFC000FF
FF8000FF
FF8001FF
FF8001FF
FF8001FF
FF8003FF
FFC007FF
7FF01FFF
7FFFFFFF
3FFFFFFF
3FFFFFFF
1FFFFEFF
0FFFFCFF
03FFF87E
007FC03C
ENDCHAR
STARTCHAR acircumflex
ENCODING 226
SWIDTH 556 0
DWIDTH 40 0
BBX 32 53 2 -1
BITMAP
0001F000
0003FC00
0007FC00
000FFE00
001FFF00
003FBF80
007F1FC0
00FE0FE0
00FE0FF0
01FC07F0
03F803F8
00000000
00000000
00000000
00000000
07FFFF00
0FFFFFE0
1FFFFFF0
1FFFFFF8
1FFFFFFC
1FFFFFFC
0FFFFFFE
07FFFFFE
000003FE
000001FF
000001FF
000001FF
000001FF
0003FFFF
003FFFFF
01FFFFFF
03FFFFFF
0FFFFFFF
1FFFFFFF
3FFFFFFF
3FFE00FF
7FF000FF
7FE000FF
FFC000FF
FF8000FF
FF8001FF
FF8001FF
FF8001FF
FF8003FF
FFC007FF
7FF01FFF
7FFFFFFF
3FFFFFFF
3FFFFFFF
1FFFFEFF
0FFFFCFF
03FFF87E
007FC03C
ENDCHAR
STARTCHAR atilde
ENCODING 227
SWIDTH 556 0
DWIDTH 40 0
BBX 32 53 2 -1
BITMAP
00000018
003F003C
007FE03C
00FFFFF8
01FFFFF8
03FFFFF0
03FFFFE0
03C0FFC0
07801F80
03000000
00000000
00000000
00000000
00000000
00000000
07FFFF00
0FFFFFE0
1FFFFFF0
1FFFFFF8
1FFFFFFC
1FFFFFFC
0FFFFFFE
07FFFFFE
000003FE
000001FF
000001FF
000001FF
000001FF
0003FFFF
003FFFFF
01FFFFFF
03FFFFFF
0FFFFFFF
1FFFFFFF
3FFFFFFF
3FFE00FF
7FF000FF
7FE000FF
FFC000FF
FF8000FF
FF8001FF
FF8001FF
FF8001FF
FF8003FF
FFC007FF
7FF01FFF
7FFFFFFF
3FFFFFFF
3FFFFFFF
1FFFFEFF
0FFFFCFF
03FFF87E
007FC03C
ENDCHAR
STARTCHAR adieresis
ENCODING 228
SWIDTH 556 0
DWIDTH 40 0
BBX 32 52 2 -1
BITMAP
00E000F0
03F803F8
03F803FC
07FC07FC
07FC07FC
07FC07FC
07FC03FC
03F803F8
00F000F0
00000000
00000000
00000000
00000000
00000000
07FFFF00
0FFFFFE0
1FFFFFF0
1FFFFFF8
1FFFFFFC
1FFFFFFC
0FFFFFFE
07FFFFFE
000003FE
000001FF
000001FF
000001FF
000001FF
0003FFFF
003FFFFF
01FFFFFF
03FFFFFF
0FFFFFFF
1FFFFFFF
3FFFFFFF
3FFE00FF
7FF000FF
7FE000FF
FFC000FF
FF8000FF
FF8001FF
FF8001FF
FF8001FF
FF8003FF
FFC007FF
7FF01FFF
7FFFFFFF
3FFFFFFF
3FFFFFFF
1FFFFEFF
0FFFFCFF
03FFF87E
007FC03C
ENDCHAR
STARTCHAR aring
ENCODING 229
SWIDTH 556 0
DWIDTH 40 0
BBX 32 57 2 -1
BITMAP
0001F000
0007FC00
000FFE00
001FFF00
003F1F80
003E0780
003C0780
003C0780
003C0780
003E0780
003F1F80
001FFF00
000FFE00
0007FC00
0001F000
00000000
00000000
00000000
00000000
07FFFF00
0FFFFFE0
1FFFFFF0
1FFFFFF8
1FFFFFFC
1FFFFFFC
0FFFFFFE
07FFFFFE
000003FE
000001FF
000001FF
000001FF
000001FF
0003FFFF
003FFFFF
01FFFFFF
03FFFFFF
0FFFFFFF
1FFFFFFF
3FFFFFFF
3FFE00FF
7FF000FF
7FE000FF
FFC000FF
FF8000FF
FF8001FF
FF8001FF
FF8001FF
FF8003FF
FFC007FF
7FF01FFF
7FFFFFFF
3FFFFFFF
3FFFFFFF
1FFFFEFF
0FFFFCFF
03FFF87E
007FC03C
ENDCHAR
STARTCHAR ae
ENCODING 230
SWIDTH 778 0
DWIDTH 56 0
BBX 54 39 1 -1
BITMAP
000000003FC000
0FFFFC01FFF800
1FFFFF83FFFE00
3FFFFFEFFFFF00
3FFFFFFFFFFFC0
3FFFFFFFFFFFC0
3FFFFFFFFFFFE0
1FFFFFFFF07FF0
07FFFFFFC01FF0
00000FFF800FF8
000007FF0007F8
000007FF0007FC
000007FE0007FC
000007FE0003FC
0003FFFFFFFFFC
007FFFFFFFFFFC
01FFFFFFFFFFFC
07FFFFFFFFFFFC
0FFFFFFFFFFFF8
1FFFFFFFFFFFF8
3FFFFFFC000000
7FFC07FC000000
7FF007FC000000
FFC007FE000000
FF8007FE000000
FF8007FE000000
FF0007FF000000
FF0007FF800000
FF8007FFC00000
FF8007FFF00000
FFE00FFFFFFFF0
FFFFFFFFFFFFF8
7FFFFFFFFFFFFC
7FFFFFFFFFFFFC
3FFFFFFFFFFFFC
3FFFFFE7FFFFFC
0FFFFFC1FFFFFC
07FFFF003FFFF0
00FFF800000000
ENDCHAR
STARTCHAR ccedilla
ENCODING 231
SWIDTH 500 0
DWIDTH 36 0
BBX 34 53 2 -15
BITMAP
000FFFFE00
007FFFFF00
01FFFFFF80
03FFFFFF80
07FFFFFF80
0FFFFFFF80
1FFFFFFF00
1FFFFFFE00
3FFF000000
3FF8000000
7FF0000000
7FE0000000
7FE0000000
7FC0000000
FFC0000000
FFC0000000
FFC0000000
FFC0000000
FFC0000000
FFC0000000
7FC0000000
7FC0000000
7FE0000000
7FE0000000
3FF0000000
3FF8000000
3FFC000000
1FFE000000
0FFF000000
0FFFC00000
07FFFC0000
03FFFFFF00
01FFFFFF80
00FFFFFFC0
007FFFFFC0
001FFFFFC0
0007FFFFC0
0001FFFF80
000077FE00
0000700000
0000F00000
0000E00000
0000FF8000
0000FFE000
0001FFF000
000007F800
000003F800
000003F800
003C03F800
003FFFF000
003FFFE000
000FFFC000
0001FE0000
ENDCHAR
STARTCHAR egrave
ENCODING 232
SWIDTH 556 0
DWIDTH 40 0
BBX 36 52 2 0
BITMAP
0030000000
007F000000
007FC00000
00FFF80000
00FFFF0000
00FFFFE000
007FFFF000
001FFFF000
0000FFF000
00000FF000
000000C000
0000000000
0000000000
0000000000
0003FE0000
001FFFC000
007FFFF000
00FFFFFC00
03FFFFFE00
07FFFFFF00
07FFFFFF80
0FFF8FFF80
1FFE01FFC0
1FF800FFC0
3FF0007FE0
3FF0007FE0
7FE0003FE0
7FE0003FE0
7FE0003FE0
7FFFFFFFE0
7FFFFFFFF0
7FFFFFFFE0
FFFFFFFFE0
FFFFFFFFE0
FFFFFFFFC0
FFC0000000
7FC0000000
7FC0000000
7FE0000000
7FE0000000
7FF0000000
3FF8000000
3FFC000000
1FFF000000
1FFFFFFF80
0FFFFFFFC0
07FFFFFFE0
03FFFFFFE0
01FFFFFFE0
007FFFFFE0
001FFFFFC0
0001FFFF80
ENDCHAR
STARTCHAR eacute
ENCODING 233
SWIDTH 556 0
DWIDTH 40 0
BBX 36 52 2 0
BITMAP
000000C000
000007F000
00001FF000
0000FFF000
0007FFF800
003FFFF800
007FFFF000
007FFF8000
007FF80000
007F800000
0030000000
0000000000
0000000000
0000000000
0003FE0000
001FFFC000
007FFFF000
00FFFFFC00
03FFFFFE00
07FFFFFF00
07FFFFFF80
0FFF8FFF80
1FFE01FFC0
1FF800FFC0
3FF0007FE0
3FF0007FE0
7FE0003FE0
7FE0003FE0
7FE0003FE0
7FFFFFFFE0
7FFFFFFFF0
7FFFFFFFE0
FFFFFFFFE0
FFFFFFFFE0
FFFFFFFFC0
FFC0000000
7FC0000000
7FC0000000
7FE0000000
7FE0000000
7FF0000000
3FF8000000
3FFC000000
1FFF000000
1FFFFFFF80
0FFFFFFFC0
07FFFFFFE0
03FFFFFFE0
01FFFFFFE0
007FFFFFE0
001FFFFFC0
0001FFFF80
ENDCHAR
STARTCHAR ecircumflex
ENCODING 234
SWIDTH 556 0
DWIDTH 40 0
BBX 36 52 2 0
BITMAP
0000F80000
0003FE0000
0007FE0000
0007FF0000
000FFF8000
001FDFC000
003F8FE000
007F07F000
00FF07F000
00FE03F800
01FC01FC00
0000000000
0000000000
0000000000
0003FE0000
001FFFC000
007FFFF000
00FFFFFC00
03FFFFFE00
07FFFFFF00
07FFFFFF80
0FFF8FFF80
1FFE01FFC0
1FF800FFC0
3FF0007FE0
3FF0007FE0
7FE0003FE0
7FE0003FE0
7FE0003FE0
7FFFFFFFE0
7FFFFFFFF0
7FFFFFFFE0
FFFFFFFFE0
FFFFFFFFE0
FFFFFFFFC0
FFC0000000
7FC0000000
7FC0000000
7FE0000000
7FE0000000
7FF0000000
3FF8000000
3FFC000000
1FFF000000
1FFFFFFF80
0FFFFFFFC0
07FFFFFFE0
03FFFFFFE0
01FFFFFFE0
007FFFFFE0
001FFFFFC0
0001FFFF80
ENDCHAR
STARTCHAR edieresis
ENCODING 235
SWIDTH 556 0
DWIDTH 40 0
BBX 36 51 2 0
BITMAP
00F000F800
01FC01FC00
03FC03FC00
03FE03FE00
03FE03FE00
03FE03FE00
03FC01FC00
01FC01FC00
00F0007000
0000000000
0000000000
0000000000
0000000000
0003FE0000
001FFFC000
007FFFF000
00FFFFFC00
03FFFFFE00
07FFFFFF00
07FFFFFF80
0FFF8FFF80
1FFE01FFC0
1FF800FFC0
3FF0007FE0
3FF0007FE0
7FE0003FE0
7FE0003FE0
7FE0003FE0
7FFFFFFFE0
7FFFFFFFF0
7FFFFFFFE0
FFFFFFFFE0
FFFFFFFFE0
FFFFFFFFC0
FFC0000000
7FC0000000
7FC0000000
7FE0000000
7FE0000000
7FF0000000
3FF8000000
3FFC000000
1FFF000000
1FFFFFFF80
0FFFFFFFC0
07FFFFFFE0
03FFFFFFE0
01FFFFFFE0
007FFFFFE0
001FFFFFC0
0001FFFF80
ENDCHAR
STARTCHAR igrave
ENCODING 236
SWIDTH 278 0
DWIDTH 20 0
BBX 20 52 0 0
BITMAP
300000
7E0000
FFC000
FFF800
FFFF00
FFFFC0
FFFFE0
1FFFF0
01FFF0
000FE0
0000C0
000000
000000
000000
00F000
01F800
03FC00
03FC00
03FC00
03FC00
03FC00
03FC00
03FC00
03FC00
03FC00
03FC00
03FC00
03FC00
03FC00
03FC00
03FC00
03FC00
03FC00
03FC00
03FC00
03FC00
03FC00
03FC00
03FC00
03FC00
03FC00
03FC00
03FC00
03FC00
03FC00
03FC00
03FC00
03FC00
03FC00
03FC00
01F800
00F000
ENDCHAR
STARTCHAR iacute
ENCODING 237
SWIDTH 278 0
DWIDTH 20 0
BBX 20 52 0 0
BITMAP
0000C0
0007E0
003FF0
01FFF0
0FFFF0
3FFFF0
FFFFF0
FFFF80
FFF800
7F8000
300000
000000
000000
000000
00F000
01F800
03FC00
03FC00
03FC00
03FC00
03FC00
03FC00
03FC00
03FC00
03FC00
03FC00
03FC00
03FC00
03FC00
03FC00
03FC00
03FC00
03FC00
03FC00
03FC00
03FC00
03FC00
03FC00
03FC00
03FC00
03FC00
03FC00
03FC00
03FC00
03FC00
03FC00
03FC00
03FC00
03FC00
03FC00
01F800
00F000
ENDCHAR
STARTCHAR icircumflex
ENCODING 238
SWIDTH 278 0
DWIDTH 20 0
BBX 22 52 -1 0
BITMAP
00FC00
01FE00
03FF00
07FF80
0FFFC0
0FCFC0
1FCFE0
3F87F0
7F03F8
FE01FC
FC00FC
000000
000000
000000
007800
00FC00
01FE00
01FE00
01FE00
01FE00
01FE00
01FE00
01FE00
01FE00
01FE00
01FE00
01FE00
01FE00
01FE00
01FE00
01FE00
01FE00
01FE00
01FE00
01FE00
01FE00
01FE00
01FE00
01FE00
01FE00
01FE00
01FE00
01FE00
01FE00
01FE00
01FE00
01FE00
01FE00
01FE00
01FE00
00FC00
007800
ENDCHAR
STARTCHAR idieresis
ENCODING 239
SWIDTH 278 0
DWIDTH 20 0
BBX 26 51 -3 0
BITMAP
1E001E00
3F003F00
7F807F80
7F807F80
FF807FC0
7F807F80
7F807F80
3F003F00
1E001E00
00000000
00000000
00000000
00000000
001E0000
003F0000
007F8000
007F8000
007F8000
007F8000
007F8000
007F8000
007F8000
007F8000
007F8000
007F8000
007F8000
007F8000
007F8000
007F8000
007F8000
007F8000
007F8000
007F8000
007F8000
007F8000
007F8000
007F8000
007F8000
007F8000
007F8000
007F8000
007F8000
007F8000
007F8000
007F8000
007F8000
007F8000
007F8000
007F8000
003F0000
001E0000
ENDCHAR
STARTCHAR eth
ENCODING 240
SWIDTH 556 0
DWIDTH 40 0
BBX 34 54 3 -1
BITMAP
000001E000
03E003F000
07FE0FF000
0FFF9FF000
0FFFFFF000
0FFFFFE000
0FFFFF8000
07FFFF0000
00FFFF0000
001FFF8000
007FFFC000
00FFFFE000
01FFFFF000
01FF3FF800
01FC1FF800
00F80FFC00
006007FC00
000007FE00
000003FE00
001FE3FF00
00FFFDFF00
01FFFFFF00
07FFFFFF80
0FFFFFFF80
0FFFFFFF80
1FFFFFFF80
3FFFFFFF80
3FF807FFC0
7FF003FFC0
7FE001FFC0
7FE001FFC0
FFC000FFC0
FFC000FFC0
FF80007FC0
FF80007FC0
FF80007FC0
FF80007FC0
FF80007FC0
FF80007FC0
FF80007F80
FFC000FF80
7FC000FF80
7FC001FF80
7FE001FF00
3FF003FF00
3FF807FE00
1FFFFFFE00
1FFFFFFC00
0FFFFFF800
07FFFFF800
03FFFFE000
00FFFFC000
007FFF0000
0007F80000
ENDCHAR
STARTCHAR ntilde
ENCODING 241
SWIDTH 556 0
DWIDTH 40 0
BBX 32 52 4 0
BITMAP
00000030
00FE0078
01FFC0F0
03FFFFF0
03FFFFF0
07FFFFE0
078FFFC0
0F01FF80
0E003E00
00000000
00000000
00000000
00000000
00000000
1E01FC00
7F0FFF80
7F9FFFE0
FFFFFFF0
FFFFFFF8
FFFFFFF8
FFFFFFFC
FFFFFFFC
FFFC0FFE
FFF007FE
FFE003FE
FFC003FE
FFC001FF
FFC001FF
FF8001FF
FF8001FF
FF8001FF
FF8001FF
FF8001FF
FF8001FF
FF8001FF
FF8001FF
FF8001FF
FF8001FF
FF8001FF
FF8001FF
FF8001FF
FF8001FF
FF8001FF
FF8001FF
FF8001FF
FF8001FF
FF8001FF
FF8001FF
FF8001FE
7F8001FE
7F0000FE
3E000078
ENDCHAR
STARTCHAR ograve
ENCODING 242
SWIDTH 556 0
DWIDTH 40 0
BBX 36 53 2 -1
BITMAP
0030000000
007E000000
00FFC00000
00FFF80000
00FFFF0000
00FFFFC000
00FFFFF000
001FFFF000
0001FFF000
00000FE000
000000C000
0000000000
0000000000
0000000000
0007FC0000
003FFFC000
00FFFFE000
01FFFFF800
03FFFFFC00
07FFFFFE00
0FFFFFFF00
1FFFFFFF80
1FFE07FF80
3FF801FFC0
3FF000FFC0
3FE0007FC0
7FE0007FE0
7FC0003FE0
7FC0003FE0
7FC0003FE0
FFC0003FF0
FF80001FF0
FF80001FF0
FF80001FF0
FF80001FF0
FF80001FF0
FFC0003FF0
7FC0003FE0
7FC0003FE0
7FC0003FE0
7FE0007FE0
3FE0007FC0
3FF000FFC0
3FF801FFC0
1FFE07FF80
1FFFFFFF80
0FFFFFFF00
07FFFFFE00
03FFFFFC00
01FFFFF800
007FFFF000
003FFFC000
0003FE0000
ENDCHAR
STARTCHAR oacute
ENCODING 243
SWIDTH 556 0
DWIDTH 40 0
BBX 36 53 2 -1
BITMAP
000000C000
000007E000
00003FF000
0001FFF000
000FFFF000
003FFFF000
00FFFFF000
00FFFF8000
00FFF80000
007F800000
0030000000
0000000000
0000000000
0000000000
0007FC0000
003FFFC000
00FFFFE000
01FFFFF800
03FFFFFC00
07FFFFFE00
0FFFFFFF00
1FFFFFFF80
1FFE07FF80
3FF801FFC0
3FF000FFC0
3FE0007FC0
7FE0007FE0
7FC0003FE0
7FC0003FE0
7FC0003FE0
FFC0003FF0
FF80001FF0
FF80001FF0
FF80001FF0
FF80001FF0
FF80001FF0
FFC0003FF0
7FC0003FE0
7FC0003FE0
7FC0003FE0
7FE0007FE0
3FE0007FC0
3FF000FFC0
3FF801FFC0
1FFE07FF80
1FFFFFFF80
0FFFFFFF00
07FFFFFE00
03FFFFFC00
01FFFFF800
007FFFF000
003FFFC000
0003FE0000
ENDCHAR
STARTCHAR ocircumflex
ENCODING 244
SWIDTH 556 0
DWIDTH 40 0
BBX 36 53 2 -1
BITMAP
0001F80000
0003FC0000
0007FE0000
000FFF0000
001FFF8000
001F9FC000
003F9FC000
007F0FE000
00FE07F000
01FC03F800
01F801F800
0000000000
0000000000
0000000000
0007FC0000
003FFFC000
00FFFFE000
01FFFFF800
03FFFFFC00
07FFFFFE00
0FFFFFFF00
1FFFFFFF80
1FFE07FF80
3FF801FFC0
3FF000FFC0
3FE0007FC0
7FE0007FE0
7FC0003FE0
7FC0003FE0
7FC0003FE0
FFC0003FF0
FF80001FF0
FF80001FF0
FF80001FF0
FF80001FF0
FF80001FF0
FFC0003FF0
7FC0003FE0
7FC0003FE0
7FC0003FE0
7FE0007FE0
3FE0007FC0
3FF000FFC0
3FF801FFC0
1FFE07FF80
1FFFFFFF80
0FFFFFFF00
07FFFFFE00
03FFFFFC00
01FFFFF800
007FFFF000
003FFFC000
0003FE0000
ENDCHAR
STARTCHAR otilde
ENCODING 245
SWIDTH 556 0
DWIDTH 40 0
BBX 36 53 2 -1
BITMAP
0008001C00
003F801C00
007FE03C00
00FFFEFC00
01FFFFF800
01FFFFF800
03E3FFF000
0380FFE000
03001F8000
0000000000
0000000000
0000000000
0000000000
0000000000
0007FC0000
003FFFC000
00FFFFE000
01FFFFF800
03FFFFFC00
07FFFFFE00
0FFFFFFF00
1FFFFFFF80
1FFE07FF80
3FF801FFC0
3FF000FFC0
3FE0007FC0
7FE0007FE0
7FC0003FE0
7FC0003FE0
7FC0003FE0
FFC0003FF0
FF80001FF0
FF80001FF0
FF80001FF0
FF80001FF0
FF80001FF0
FFC0003FF0
7FC0003FE0
7FC0003FE0
7FC0003FE0
7FE0007FE0
3FE0007FC0
3FF000FFC0
3FF801FFC0
1FFE07FF80
1FFFFFFF80
0FFFFFFF00
07FFFFFE00
03FFFFFC00
01FFFFF800
007FFFF000
003FFFC000
0003FE0000
ENDCHAR
STARTCHAR odieresis
ENCODING 246
SWIDTH 556 0
DWIDTH 40 0
BBX 36 52 2 -1
BITMAP
00F000F000
01F801F800
03FC03FC00
03FC03FC00
07FC03FE00
03FC03FC00
03FC03FC00
01F801F800
00F000F000
0000000000
0000000000
0000000000
0000000000
0007FC0000
003FFFC000
00FFFFE000
01FFFFF800
03FFFFFC00
07FFFFFE00
0FFFFFFF00
1FFFFFFF80
1FFE07FF80
3FF801FFC0
3FF000FFC0
3FE0007FC0
7FE0007FE0
7FC0003FE0
7FC0003FE0
7FC0003FE0
FFC0003FF0
FF80001FF0
FF80001FF0
FF80001FF0
FF80001FF0
FF80001FF0
FFC0003FF0
7FC0003FE0
7FC0003FE0
7FC0003FE0
7FE0007FE0
3FE0007FC0
3FF000FFC0
3FF801FFC0
1FFE07FF80
1FFFFFFF80
0FFFFFFF00
07FFFFFE00
03FFFFFC00
01FFFFF800
007FFFF000
003FFFC000
0003FE0000
ENDCHAR
STARTCHAR divide
ENCODING 247
SWIDTH 600 0
DWIDTH 43 0
BBX 37 42 3 -3
BITMAP
0000FC0000
0003FE0000
0007FF0000
0007FF0000
0007FF8000
000FFF8000
000FFF8000
0007FF0000
0007FF0000
0003FF0000
0001FE0000
0000F80000
0000000000
0000000000
0000000000
0000000000
0000000000
FFFFFFFFF8
FFFFFFFFF8
FFFFFFFFF8
FFFFFFFFF8
FFFFFFFFF8
FFFFFFFFF8
FFFFFFFFF8
FFFFFFFFF8
0000000000
0000000000
0000000000
0000000000
0000000000
0000FC0000
0003FE0000
0007FF0000
0007FF0000
0007FF8000
000FFF8000
000FFF8000
0007FF0000
0007FF0000
0003FF0000
0001FE0000
0000F80000
ENDCHAR
STARTCHAR oslash
ENCODING 248
SWIDTH 556 0
DWIDTH 40 0
BBX 36 50 2 -7
BITMAP
0000001F00
0000001F80
0000003F80
0000003F80
0000007F00
0007FCFF00
003FFFFE00
00FFFFFC00
01FFFFFC00
03FFFFFC00
07FFFFFE00
0FFFFFFF00
1FFFFFFF80
1FFE07FF80
3FF80FFFC0
3FF00FFFC0
3FE01FFFC0
7FE01FFFE0
7FC03F3FE0
7FC03F3FE0
7FC07E3FE0
FFC0FC3FF0
FF80FC1FF0
FF81F81FF0
FF81F81FF0
FF83F01FF0
FF83F01FF0
FFC7E03FF0
7FC7E03FE0
7FCFC03FE0
7FCFC03FE0
7FFF807FE0
3FFF807FC0
3FFF00FFC0
3FFF01FFC0
1FFE07FF80
1FFFFFFF80
0FFFFFFF00
07FFFFFE00
03FFFFFC00
03FFFFF800
07FFFFF000
07FFFFC000
0FE3FE0000
0FE0000000
1FC0000000
1FC0000000
1F80000000
1F80000000
0600000000
ENDCHAR
STARTCHAR ugrave
ENCODING 249
SWIDTH 556 0
DWIDTH 40 0
BBX 32 53 4 -1
BITMAP
00C00000
01F80000
03FF0000
03FFE000
03FFFC00
03FFFF00
03FFFFC0
007FFFC0
0007FFC0
00003F80
00000300
00000000
00000000
00000000
1E000078
7F0000FE
7F8001FE
7F8001FE
FF8001FF
FF8001FF
FF8001FF
FF8001FF
FF8001FF
FF8001FF
FF8001FF
FF8001FF
FF8001FF
FF8001FF
FF8001FF
FF8001FF
FF8001FF
FF8001FF
FF8001FF
FF8001FF
FF8001FF
FF8001FF
FF8001FF
FF8001FF
FF8001FF
FF8003FF
FF8003FF
FFC007FF
7FC007FF
7FE00FFF
7FF03FFF
7FFFFFFF
3FFFFFFF
3FFFFFFF
1FFFFFFF
0FFFFFFE
07FFF9FE
01FFF0FE
007F8078
ENDCHAR
STARTCHAR uacute
ENCODING 250
SWIDTH 556 0
DWIDTH 40 0
BBX 32 53 4 -1
BITMAP
00000300
00001F80
0000FFC0
0007FFC0
003FFFC0
00FFFFC0
03FFFFC0
03FFFE00
03FFE000
01FE0000
00C00000
00000000
00000000
00000000
1E000078
7F0000FE
7F8001FE
7F8001FE
FF8001FF
FF8001FF
FF8001FF
FF8001FF
FF8001FF
FF8001FF
FF8001FF
FF8001FF
FF8001FF
FF8001FF
FF8001FF
FF8001FF
FF8001FF
FF8001FF
FF8001FF
FF8001FF
FF8001FF
FF8001FF
FF8001FF
FF8001FF
FF8001FF
FF8003FF
FF8003FF
FFC007FF
7FC007FF
7FE00FFF
7FF03FFF
7FFFFFFF
3FFFFFFF
3FFFFFFF
1FFFFFFF
0FFFFFFE
07FFF9FE
01FFF0FE
007F8078
ENDCHAR
STARTCHAR ucircumflex
ENCODING 251
SWIDTH 556 0
DWIDTH 40 0
BBX 32 53 4 -1
BITMAP
0007E000
000FF000
001FF800
003FFC00
007FFE00
007E7F00
00FE7F00
01FC3F80
03F81FC0
07F00FE0
07E007E0
00000000
00000000
00000000
1E000078
7F0000FE
7F8001FE
7F8001FE
FF8001FF
FF8001FF
FF8001FF
FF8001FF
FF8001FF
FF8001FF
FF8001FF
FF8001FF
FF8001FF
FF8001FF
FF8001FF
FF8001FF
FF8001FF
FF8001FF
FF8001FF
FF8001FF
FF8001FF
FF8001FF
FF8001FF
FF8001FF
FF8001FF
FF8003FF
FF8003FF
FFC007FF
7FC007FF
7FE00FFF
7FF03FFF
7FFFFFFF
3FFFFFFF
3FFFFFFF
1FFFFFFF
0FFFFFFE
07FFF9FE
01FFF0FE
007F8078
ENDCHAR
STARTCHAR udieresis
ENCODING 252
SWIDTH 556 0
DWIDTH 40 0
BBX 32 52 4 -1
BITMAP
03C003C0
07E007E0
0FF00FF0
0FF00FF0
1FF00FF8
0FF00FF0
0FF00FF0
07E007E0
03C003C0
00000000
00000000
00000000
00000000
1E000078
7F0000FE
7F8001FE
7F8001FE
FF8001FF
FF8001FF
FF8001FF
FF8001FF
FF8001FF
FF8001FF
FF8001FF
FF8001FF
FF8001FF
FF8001FF
FF8001FF
FF8001FF
FF8001FF
FF8001FF
FF8001FF
FF8001FF
FF8001FF
FF8001FF
FF8001FF
FF8001FF
FF8001FF
FF8003FF
FF8003FF
FFC007FF
7FC007FF
7FE00FFF
7FF03FFF
7FFFFFFF
3FFFFFFF
3FFFFFFF
1FFFFFFF
0FFFFFFE
07FFF9FE
01FFF0FE
007F8078
ENDCHAR
STARTCHAR yacute
ENCODING 253
SWIDTH 500 0
DWIDTH 36 0
BBX 32 67 3 -15
BITMAP
00000600
00003F00
0001FF80
000FFF80
007FFF80
01FFFF80
07FFFF80
07FFFC00
07FFC000
03FC0000
01800000
00000000
00000000
00000000
3C00003C
7E0000FE
FE0000FE
FF0000FF
FF0001FF
FF0001FF
FF0001FF
FF0001FF
FF0001FE
FF0001FE
FF8003FE
FF8003FE
FF8003FC
FF8003FC
7F8007FC
7FC007FC
7FC007F8
7FC007F8
3FE00FF8
3FE00FF0
3FE00FF0
1FF01FE0
1FF01FE0
0FF83FE0
0FF83FC0
07F83FC0
07FC7F80
03FE7F80
03FEFF80
01FFFF00
01FFFF00
00FFFE00
00FFFE00
007FFC00
003FFC00
003FF800
001FF800
001FF000
003FF000
003FE000
007FE000
00FFC000
00FF8000
01FF8000
03FF0000
07FE0000
07FE0000
0FFC0000
0FF80000
0FF80000
0FF00000
07E00000
03C00000
ENDCHAR
STARTCHAR thorn
ENCODING 254
SWIDTH 556 0
DWIDTH 40 0
BBX 33 66 5 -15
BITMAP
3C00000000
FE00000000
FF00000000
FF00000000
FF00000000
FF00000000
FF00000000
FF00000000
FF00000000
FF00000000
FF00000000
FF00000000
FF00000000
FFF8000000
FFFF800000
FFFFF00000
FFFFFC0000
FFFFFF0000
FFFFFFC000
FFFFFFE000
FFFFFFF000
FF07FFF800
FF00FFF800
FF003FFC00
FF001FFE00
FF000FFE00
FF0007FF00
FF0003FF00
FF0001FF00
FF0001FF00
FF0001FF80
FF0000FF80
FF0000FF80
FF0000FF80
FF0000FF80
FF0000FF80
FF0000FF80
FF0001FF80
FF0001FF80
FF0003FF00
FF0007FF00
FF000FFF00
FF003FFE00
FFFFFFFE00
FFFFFFFC00
FFFFFFF800
FFFFFFF000
FFFFFFE000
FFFFFF8000
FFFFFE0000
FFFFF00000
FF00000000
FF00000000
FF00000000
FF00000000
FF00000000
FF00000000
FF00000000
FF00000000
FF00000000
FF00000000
FF00000000
FF00000000
FF00000000
FE00000000
3C00000000
ENDCHAR
STARTCHAR ydieresis
ENCODING 255
SWIDTH 500 0
DWIDTH 36 0
BBX 32 66 3 -15
BITMAP
07800780
0FC00FC0
1FE01FE0
1FE01FE0
3FE01FF0
1FE01FE0
1FE01FE0
0FC00FC0
07800780
00000000
00000000
00000000
00000000
3C00003C
7E0000FE
FE0000FE
FF0000FF
FF0001FF
FF0001FF
FF0001FF
FF0001FF
FF0001FE
FF0001FE
FF8003FE
FF8003FE
FF8003FC
FF8003FC
7F8007FC
7FC007FC
7FC007F8
7FC007F8
3FE00FF8
3FE00FF0
3FE00FF0
1FF01FE0
1FF01FE0
0FF83FE0
0FF83FC0
07F83FC0
07FC7F80
03FE7F80
03FEFF80
01FFFF00
01FFFF00
00FFFE00
00FFFE00
007FFC00
003FFC00
003FF800
001FF800
001FF000
003FF000
003FE000
007FE000
00FFC000
00FF8000
01FF8000
03FF0000
07FE0000
07FE0000
0FFC0000
0FF80000
0FF80000
0FF00000
07E00000
03C00000
ENDCHAR
STARTCHAR .notdef
ENCODING -1
SWIDTH 500 0
DWIDTH 36 0
BBX 36 51 0 0
BITMAP
FFFFFFFFF0
FFFFFFFFF0
FFFFFFFFF0
FFFFFFFFF0
FC000003F0
FE000007F0
FE000007F0
FF00000FF0
FF80001FF0
F780001EF0
F3C0003CF0
F3E0007CF0
F1E00078F0
F0F000F0F0
F0F801F0F0
F07801E0F0
F03C03C0F0
F03E07C0F0
F01E0780F0
F00F0F00F0
F00F9F00F0
F0079E00F0
F003FC00F0
F003FC00F0
F001F800F0
F000F000F0
F001F800F0
F001F800F0
F003FC00F0
F007FE00F0
F0079E00F0
F00F0F00F0
F01F0F80F0
F01E0780F0
F03C03C0F0
F07C03E0F0
F07801E0F0
F0F000F0F0
F1F000F8F0
F1E00078F0
F3C0003CF0
F7C0003EF0
F780001EF0
FF00000FF0
FF00000FF0
FE000007F0
FC000003F0
FFFFFFFFF0
FFFFFFFFF0
FFFFFFFFF0
FFFFFFFFF0
ENDCHAR
STARTCHAR quoteright
ENCODING -1
SWIDTH 222 0
DWIDTH 16 0
BBX 13 20 2 31
BITMAP
03E0
07F0
0FF8
0FF8
0FF8
1FF8
1FF0
1FF0
3FE0
3FE0
7FC0
7FC0
7F80
FF80
FF80
FF00
FF00
FE00
FC00
7800
ENDCHAR
STARTCHAR quoteleft
ENCODING -1
SWIDTH 222 0
DWIDTH 16 0
BBX 13 20 1 31
BITMAP
3E00
7F00
FF00
FF80
FF80
FFC0
7FC0
7FC0
3FE0
3FE0
1FF0
1FF0
0FF0
0FF8
0FF8
07F8
07F8
03F8
01F8
00F0
ENDCHAR
STARTCHAR fraction
ENCODING -1
SWIDTH 167 0
DWIDTH 12 0
BBX 36 52 -12 -1
BITMAP
00000001C0
00000007F0
00000007F0
0000000FF0
0000001FF0
0000001FF0
0000003FF0
0000007FE0
0000007FC0
000000FFC0
000001FF80
000001FF00
000003FF00
000007FE00
000007FC00
00000FFC00
00001FF800
00001FF000
00003FF000
00007FE000
00007FC000
0000FFC000
0000FF8000
0001FF0000
0003FF0000
0003FE0000
0007FC0000
000FFC0000
000FF80000
001FF80000
003FF00000
003FE00000
007FE00000
00FFC00000
00FF800000
01FF800000
03FF000000
03FE000000
07FE000000
0FFC000000
0FF8000000
1FF8000000
3FF0000000
3FE0000000
7FE0000000
FFC0000000
FF80000000
FF80000000
FF00000000
FE00000000
FE00000000
3800000000
ENDCHAR
STARTCHAR florin
ENCODING -1
SWIDTH 611 0
DWIDTH 44 0
BBX 44 66 0 -15
BITMAP
00000001FF00
0000000FFFC0
0000003FFFE0
0000007FFFE0
000000FFFFF0
000001FFFFF0
000001FFFFE0
000003FFFFE0
000003FFFF80
000007FFC000
000007FF0000
000007FE0000
000007FC0000
00000FFC0000
00000FFC0000
00000FFC0000
00000FF80000
00001FF80000
00001FF80000
001FFFFFF000
003FFFFFF800
007FFFFFFC00
007FFFFFFC00
007FFFFFFC00
007FFFFFFC00
007FFFFFFC00
003FFFFFF800
001FFFFFF000
00007FE00000
00007FE00000
00007FE00000
00007FE00000
00007FE00000
00007FC00000
0000FFC00000
0000FFC00000
0000FFC00000
0000FFC00000
0000FFC00000
0000FF800000
0000FF800000
0001FF800000
0001FF800000
0001FF800000
0001FF800000
0001FF000000
0001FF000000
0003FF000000
0003FF000000
0003FF000000
0003FF000000
0003FE000000
0007FE000000
0007FE000000
000FFE000000
001FFC000000
007FFC000000
3FFFFC000000
7FFFF8000000
FFFFF8000000
FFFFF0000000
FFFFE0000000
FFFFC0000000
FFFF80000000
7FFE00000000
3FF000000000
ENDCHAR
STARTCHAR quotedblleft
ENCODING -1
SWIDTH 389 0
DWIDTH 28 0
BBX 26 20 1 31
BITMAP
3C01E000
FE03F800
FF07F800
FF07FC00
FF87FC00
FF87FC00
FF87FE00
7FC3FE00
7FC3FF00
3FE1FF00
3FE1FF00
3FE0FF80
1FF0FF80
1FF07F80
0FF07FC0
0FF83FC0
07F83FC0
07F81FC0
03F01F80
01E00F80
ENDCHAR
STARTCHAR guilsinglleft
ENCODING -1
SWIDTH 333 0
DWIDTH 24 0
BBX 14 29 6 4
BITMAP
00E0
01F8
03F8
07FC
07F8
0FF8
0FF8
1FF0
1FF0
3FE0
7FE0
7FC0
FFC0
FF80
FF80
FF80
FFC0
7FC0
7FE0
3FE0
1FF0
1FF0
0FF8
0FF8
07FC
07FC
03F8
01F8
00F0
ENDCHAR
STARTCHAR guilsinglright
ENCODING -1
SWIDTH 333 0
DWIDTH 24 0
BBX 14 29 4 4
BITMAP
1C00
7E00
7F00
FF00
FF80
7FC0
7FC0
3FE0
3FE0
1FF0
1FF0
0FF8
0FFC
07FC
07FC
07FC
0FFC
0FF8
1FF8
1FF0
3FE0
3FE0
7FC0
7FC0
FF80
FF00
7F00
7E00
3C00
ENDCHAR
STARTCHAR fi
ENCODING -1
SWIDTH 611 0
DWIDTH 44 0
BBX 40 52 -1 0
BITMAP
0000FFFFC0
000FFFFFF8
001FFFFFFC
003FFFFFFE
007FFFFFFE
007FFFFFFE
00FFFFFFFE
00FFFFFFFF
00FFC001FE
00FF0001FE
01FF0001FE
01FF0000FC
01FF000030
01FF000000
01FF000000
3FFFFFFFF8
7FFFFFFFFC
7FFFFFFFFE
FFFFFFFFFE
FFFFFFFFFE
7FFFFFFFFE
7FFFFFFFFE
1FFFFFFFFE
01FF0001FE
01FF0001FE
01FF0001FE
01FF0001FE
01FF0001FE
01FF0001FE
01FF0001FE
01FF0001FE
01FF0001FE
01FF0001FE
01FF0001FE
01FF0001FE
01FF0001FE
01FF0001FE
01FF0001FE
01FF0001FE
01FF0001FE
01FF0001FE
01FF0001FE
01FF0001FE
01FF0001FE
01FF0001FE
01FF0001FE
01FF0001FE
01FF0001FE
01FF0001FE
00FF0001FE
00FE0000FC
007C000078
ENDCHAR
STARTCHAR fl
ENCODING -1
SWIDTH 611 0
DWIDTH 44 0
BBX 39 52 -1 0
BITMAP
0000FFFF80
000FFFFFF8
001FFFFFFC
003FFFFFFE
007FFFFFFE
00FFFFFFFE
00FFFFFFFE
00FFFFFFFE
00FF8001FE
01FF0001FE
01FF0001FE
01FF0001FE
01FF0001FE
01FF0001FE
01FF0001FE
3FFFFF01FE
7FFFFF81FE
7FFFFFC1FE
FFFFFFC1FE
FFFFFFC1FE
7FFFFFC1FE
7FFFFF81FE
1FFFFF01FE
01FF0001FE
01FF0001FE
01FF0001FE
01FF0001FE
01FF0001FE
01FF0001FE
01FF0001FE
01FF0001FE
01FF0001FE
01FF0001FE
01FF0001FE
01FF0001FE
01FF0001FE
01FF0001FE
01FF0001FE
01FF0001FE
01FF0001FE
01FF0001FE
01FF0001FE
01FF0001FE
01FF0001FE
01FF0001FE
01FF0001FE
01FF0001FE
01FF0001FE
01FF0001FE
00FF0001FE
00FE0000FC
007C000078
ENDCHAR
STARTCHAR endash
ENCODING -1
SWIDTH 500 0
DWIDTH 36 0
BBX 36 6 0 15
BITMAP
FFFFFFFFF0
FFFFFFFFF0
FFFFFFFFF0
FFFFFFFFF0
FFFFFFFFF0
FFFFFFFFF0
ENDCHAR
STARTCHAR dagger
ENCODING -1
SWIDTH 444 0
DWIDTH 32 0
BBX 24 51 4 -1
BITMAP
003C00
007E00
00FF00
00FF00
00FF00
00FF00
00FF00
00FF00
00FF00
00FF00
00FF00
3FFFFC
FFFFFE
FFFFFF
FFFFFF
FFFFFF
FFFFFF
7FFFFE
08FF10
00FF00
00FF00
00FF00
00FF00
00FF00
00FF00
00FF00
00FF00
00FF00
00FF00
00FF00
00FF00
00FF00
00FF00
00FF00
00FF00
01FF00
01FF00
01FF80
01FF80
01FF80
01FF80
01FF80
01FF80
01FF80
01FF80
01FF80
01FF80
00FF00
00FF00
007E00
003C00
ENDCHAR
STARTCHAR daggerdbl
ENCODING -1
SWIDTH 444 0
DWIDTH 32 0
BBX 24 51 4 -1
BITMAP
003C00
007E00
00FF00
00FF00
00FF00
00FF00
00FF00
00FF00
00FF00
00FF00
00FF00
3FFFFC
FFFFFE
FFFFFF
FFFFFF
FFFFFF
FFFFFF
7FFFFE
08FF10
00FF00
00FF00
00FF00
00FF00
00FF00
00FF00
00FF00
00FF00
00FF00
00FF00
00FF00
00FF00
00FF00
00FF00
7FFFFE
FFFFFF
FFFFFF
FFFFFF
FFFFFF
FFFFFE
3FFFFC
00FF00
00FF00
00FF00
00FF00
00FF00
00FF00
00FF00
00FF00
00FF00
007E00
003C00
ENDCHAR
STARTCHAR bullet
ENCODING -1
SWIDTH 500 0
DWIDTH 36 0
BBX 24 25 6 12
BITMAP
00FE00
03FFC0
0FFFE0
1FFFF8
3FFFFC
3FFFFC
7FFFFE
7FFFFE
FFFFFF
FFFFFF
FFFFFF
FFFFFF
FFFFFF
FFFFFF
FFFFFF
FFFFFF
FFFFFF
7FFFFE
7FFFFE
3FFFFC
1FFFF8
0FFFF0
07FFE0
03FFC0
007E00
ENDCHAR
STARTCHAR quotesinglbase
ENCODING -1
SWIDTH 222 0
DWIDTH 16 0
BBX 13 20 2 -7
BITMAP
03E0
07F0
0FF8
0FF8
0FF8
1FF8
1FF0
1FF0
3FE0
3FE0
7FC0
7FC0
7F80
FF80
FF80
FF00
FF00
FE00
FC00
7800
ENDCHAR
STARTCHAR quotedblbase
ENCODING -1
SWIDTH 389 0
DWIDTH 28 0
BBX 26 20 1 -7
BITMAP
01E00F00
07F01FC0
07F83FC0
0FF83FC0
0FF87FC0
0FF87FC0
1FF87FC0
1FF0FF80
3FF0FF80
3FE1FF00
3FE1FF00
7FC1FF00
7FC3FE00
7F83FE00
FF83FC00
FF07FC00
FF07F800
FE07F800
FE03F000
7C01E000
ENDCHAR
STARTCHAR quotedblright
ENCODING -1
SWIDTH 389 0
DWIDTH 28 0
BBX 26 20 1 31
BITMAP
01E00F00
07F01FC0
07F83FC0
0FF83FC0
0FF87FC0
0FF87FC0
1FF87FC0
1FF0FF80
3FF0FF80
3FE1FF00
3FE1FF00
7FC1FF00
7FC3FE00
7F83FE00
FF83FC00
FF07FC00
FF07F800
FE07F800
FE03F000
7C01E000
ENDCHAR
STARTCHAR ellipsis
ENCODING -1
SWIDTH 1000 0
DWIDTH 72 0
BBX 58 10 7 -1
BITMAP
3F00003F00003F00
7F80007F80007F80
FFC000FFC000FFC0
FFC000FFC000FFC0
FFC000FFC000FFC0
FFC000FFC000FFC0
FFC000FFC000FFC0
7F80007F80007F80
7F80007F80007F80
1E00001E00003E00
ENDCHAR
STARTCHAR perthousand
ENCODING -1
SWIDTH 1000 0
DWIDTH 72 0
BBX 72 52 0 -1
BITMAP
00FE00001C00000000
03FF80007E00000000
0FFFC0007E00000000
1FFFE000FE00000000
1FFFF000FE00000000
3FFFF801FE00000000
7FFFF801FC00000000
7FFFF803FC00000000
7F83FC03F800000000
7F03FC07F800000000
FF01FC07F000000000
FF01FC0FE000000000
FE01FC1FE000000000
FE01FC1FC000000000
FE01FC3FC000000000
FF01FC3F8000000000
FF01FC7F8000000000
7F03FC7F0000000000
7F83FCFF0000000000
7FFFF8FE0000000000
3FFFF9FE0000000000
3FFFF9FC0000000000
1FFFF3FC0000000000
1FFFE3F80000000000
0FFFC7F00000000000
03FF8FF07F00007F00
00FE0FE1FFC001FFC0
00001FE3FFE003FFE0
00001FC7FFF007FFF8
00003FCFFFF80FFFF8
00003F9FFFFC1FFFFC
00007F9FFFFC1FFFFC
00007F3FFFFE3FFFFE
0000FF3FC1FE3FC1FE
0000FE3F81FE3FC0FE
0001FE3F80FE3F80FF
0001FC7F80FF3F80FF
0003F87F80FF3F807F
0007F87F80FF3F807F
0007F07F80FF3F807F
000FF07F80FF3F80FF
000FE03F80FE3F80FF
001FE03F80FE3FC0FE
001FC03FC1FE3FC1FE
003FC03FF7FE3FFFFE
003F801FFFFC1FFFFC
007F801FFFFC1FFFFC
007F000FFFF80FFFF8
007F0007FFF007FFF8
007E0003FFE003FFF0
007C0001FFC001FFC0
003800007F00007F00
ENDCHAR
STARTCHAR circumflex
ENCODING -1
SWIDTH 278 0
DWIDTH 20 0
BBX 22 11 -1 41
BITMAP
00FC00
01FE00
03FF00
07FF80
0FFFC0
0FCFC0
1FCFE0
3F87F0
7F03F8
FE01FC
FC00FC
ENDCHAR
STARTCHAR tilde
ENCODING -1
SWIDTH 278 0
DWIDTH 20 0
BBX 24 10 -2 42
BITMAP
000007
07E007
1FF80F
3FFFBF
7FFFFE
7FFFFE
FFFFFC
F03FF8
E007E0
C00000
ENDCHAR
STARTCHAR breve
ENCODING -1
SWIDTH 278 0
DWIDTH 20 0
BBX 22 11 -1 40
BITMAP
C0000C
E0001C
F0003C
F8007C
FF03FC
7FFFF8
7FFFF8
3FFFF0
1FFFE0
07FF80
01FE00
ENDCHAR
STARTCHAR dotaccent
ENCODING -1
SWIDTH 278 0
DWIDTH 20 0
BBX 8 9 6 41
BITMAP
3C
7E
FF
FF
FF
FF
FF
7E
3C
ENDCHAR
STARTCHAR ring
ENCODING -1
SWIDTH 278 0
DWIDTH 20 0
BBX 16 15 2 41
BITMAP
07E0
1FF8
3FFC
7FFE
7C3E
781E
F01F
F00F
F01F
781E
7C3E
7FFE
3FFC
1FF8
07E0
ENDCHAR
STARTCHAR hungarumlaut
ENCODING -1
SWIDTH 278 0
DWIDTH 20 0
BBX 28 17 -4 37
BITMAP
006001C0
00F803E0
01FC07F0
03FC0FF0
03FC0FF0
07F81FE0
0FF03FE0
0FE07FC0
1FC0FF80
3FC0FF00
3F81FE00
7F03FC00
FE07F800
FC07F000
F807E000
F803C000
20000000
ENDCHAR
STARTCHAR ogonek
ENCODING -1
SWIDTH 278 0
DWIDTH 20 0
BBX 17 17 2 -15
BITMAP
000100
001F80
00FC00
03F000
0FC000
3F8000
7F0000
7E0000
FC0000
FC0000
FC0000
FC0100
FE0780
7FFF80
7FFF00
3FFC00
0FE000
ENDCHAR
STARTCHAR caron
ENCODING -1
SWIDTH 278 0
DWIDTH 20 0
BBX 22 11 -1 41
BITMAP
FC00FC
FE01FC
7F03F8
3F87F0
1FCFE0
1FCFE0
0FFFC0
07FF80
03FF00
01FE00
00FC00
ENDCHAR
STARTCHAR emdash
ENCODING -1
SWIDTH 1000 0
DWIDTH 72 0
BBX 72 6 0 15
BITMAP
FFFFFFFFFFFFFFFFFF
FFFFFFFFFFFFFFFFFF
FFFFFFFFFFFFFFFFFF
FFFFFFFFFFFFFFFFFF
FFFFFFFFFFFFFFFFFF
FFFFFFFFFFFFFFFFFF
ENDCHAR
STARTCHAR Lslash
ENCODING -1
SWIDTH 444 0
DWIDTH 32 0
BBX 35 50 -2 0
BITMAP
003C000000
00FE000000
00FF000000
01FF000000
01FF000000
01FF000000
01FF000000
01FF000000
01FF000000
01FF000000
01FF000000
01FF000000
01FF000000
01FF000000
01FF000000
01FF000000
01FF038000
01FF1FC000
01FF7FE000
01FFFFE000
01FFFFE000
01FFFFE000
01FFFFE000
03FFFFC000
0FFFFF0000
3FFFFC0000
7FFFE00000
7FFF800000
FFFF000000
FFFF000000
7FFF000000
7FFF000000
3FFF000000
01FF000000
01FF000000
01FF000000
01FF000000
01FF000000
01FF000000
01FF000000
01FF000000
01FFFFFE00
01FFFFFFC0
01FFFFFFC0
01FFFFFFE0
01FFFFFFE0
01FFFFFFE0
00FFFFFFC0
007FFFFFC0
003FFFFF80
ENDCHAR
STARTCHAR OE
ENCODING -1
SWIDTH 1000 0
DWIDTH 72 0
BBX 67 52 3 -1
BITMAP
00007FC00000000000
0003FFF803FFFFFF00
000FFFFE0FFFFFFFC0
003FFFFF8FFFFFFFC0
007FFFFFDFFFFFFFE0
00FFFFFFFFFFFFFFE0
01FFFFFFFFFFFFFFC0
03FFFFFFFFFFFFFFC0
07FFF0FFFFFFFFFF80
0FFF801FFFF0000000
1FFE0007FFF0000000
1FFC0003FFF0000000
3FF80001FFF0000000
3FF80001FFF0000000
3FF00000FFF0000000
7FE000007FF0000000
7FE000007FF0000000
7FE000007FFFFFFF00
FFC000003FFFFFFF80
FFC000003FFFFFFFC0
FFC000003FFFFFFFC0
FF8000003FFFFFFFC0
FF8000001FFFFFFFC0
FF8000001FFFFFFF80
FF8000001FFFFFFF00
FF8000001FF0000000
FF8000001FF0000000
FF8000001FF0000000
FF8000001FF0000000
FF8000001FF0000000
FF8000001FF0000000
FFC000003FF0000000
FFC000003FF0000000
FFC000003FF0000000
7FC000003FF0000000
7FE000007FF0000000
7FE000007FF0000000
7FF00000FFF0000000
3FF00000FFF0000000
3FF80001FFF0000000
1FFC0003FFF0000000
1FFE0007FFF0000000
0FFF801FFFF0000000
07FFE0FFFFFFFFFF80
03FFFFFFFFFFFFFFC0
03FFFFFFFFFFFFFFC0
01FFFFFFFFFFFFFFE0
007FFFFFFFFFFFFFE0
003FFFFF8FFFFFFFC0
000FFFFF0FFFFFFFC0
0003FFFC03FFFFFF80
00007FC00000000000
ENDCHAR
STARTCHAR dotlessi
ENCODING -1
SWIDTH 278 0
DWIDTH 20 0
BBX 8 38 6 0
BITMAP
3C
7E
FF
FF
FF
FF
FF
FF
FF
FF
FF
FF
FF
FF
FF
FF
FF
FF
FF
FF
FF
FF
FF
FF
FF
FF
FF
FF
FF
FF
FF
FF
FF
FF
FF
FF
7E
3C
ENDCHAR
STARTCHAR lslash
ENCODING -1
SWIDTH 278 0
DWIDTH 20 0
BBX 22 51 -1 0
BITMAP
007800
00FC00
01FE00
01FE00
01FE00
01FE00
01FE00
01FE00
01FE00
01FE00
01FE00
01FE00
01FE00
01FE00
01FE00
01FE00
01FE78
01FFFC
01FFFC
01FFFC
01FFFC
01FFF8
07FFE0
1FFF80
7FFE00
FFFE00
FFFE00
FFFE00
FFFE00
79FE00
01FE00
01FE00
01FE00
01FE00
01FE00
01FE00
01FE00
01FE00
01FE00
01FE00
01FE00
01FE00
01FE00
01FE00
01FE00
01FE00
01FE00
01FE00
01FE00
00FC00
007800
ENDCHAR
STARTCHAR oe
ENCODING -1
SWIDTH 833 0
DWIDTH 60 0
BBX 57 39 2 -1
BITMAP
000FF00007FC0000
007FFE001FFF0000
01FFFF807FFFC000
03FFFFC0FFFFE000
07FFFFE1FFFFF000
0FFFFFF3FFFFF800
1FFFFFFFFFFFFC00
1FFFFFFFFE0FFE00
3FFC1FFFF803FE00
3FF007FFF001FF00
7FE003FFE001FF00
7FC003FFE000FF00
FFC001FFE000FF80
FF8001FFC000FF80
FF8000FFC0007F80
FF8000FFFFFFFF80
FF0000FFFFFFFF80
FF0000FFFFFFFF80
FF00007FFFFFFF80
FF00007FFFFFFF00
FF00007FFFFFFE00
FF00007FC0000000
FF0000FFC0000000
FF8000FFC0000000
FF8000FFC0000000
FF8000FFE0000000
FFC001FFE0000000
7FC001FFF0000000
7FE003FFF8000000
7FF007FFFE000000
3FFC1FFFFFFFFE00
1FFFFFFFFFFFFF00
1FFFFFFFFFFFFF80
0FFFFFF3FFFFFF80
07FFFFE1FFFFFF80
03FFFFC07FFFFF80
01FFFF803FFFFF80
007FFE0003FFFF00
000FF00000000000
ENDCHAR
STARTCHAR trademark
ENCODING -1
SWIDTH 1000 0
DWIDTH 72 0
BBX 66 30 3 20
BITMAP
FFFFFF83FF8001FFC0
FFFFFF83FFC001FFC0
FFFFFF83FFC003FFC0
FFFFFF83FFC003FFC0
FFFFFF83FFE007FFC0
FFFFFF83FFE007FFC0
007F0003FFE007FFC0
007F0003FFF00FFFC0
007F0003FFF00FFFC0
007F0003FFF80FFFC0
007F0003FDF81FFFC0
007F0003FDF81FBFC0
007F0003FDFC3FBFC0
007F0003FCFC3FBFC0
007F0003FCFC3F3FC0
007F0003FCFE7F3FC0
007F0003FC7E7E3FC0
007F0003FC7F7E3FC0
007F0003FC7FFE3FC0
007F0003FC3FFC3FC0
007F0003FC3FFC3FC0
007F0003FC3FFC3FC0
007F0003FC1FF83FC0
007F0003FC1FF83FC0
007F0003FC1FF83FC0
007F0003FC0FF03FC0
007F0003FC0FF03FC0
007F0003FC0FF03FC0
007F0003FC07E03FC0
007F0003FC07E03FC0
ENDCHAR
STARTCHAR minus
ENCODING -1
SWIDTH 600 0
DWIDTH 43 0
BBX 37 8 3 14
BITMAP
FFFFFFFFF8
FFFFFFFFF8
FFFFFFFFF8
FFFFFFFFF8
FFFFFFFFF8
FFFFFFFFF8
FFFFFFFFF8
FFFFFFFFF8
ENDCHAR
STARTCHAR Scaron
ENCODING -1
SWIDTH 611 0
DWIDTH 44 0
BBX 39 63 2 0
BITMAP
003F003F00
003F807F00
001FC0FE00
000FE1FC00
000FE3F800
0007F3F000
0003FFF000
0001FFE000
0000FFC000
00007F8000
00003F0000
0000000000
0000000000
003FFFFF80
01FFFFFFC0
07FFFFFFE0
0FFFFFFFE0
1FFFFFFFE0
3FFFFFFFE0
3FFFFFFFE0
7FFFFFFFC0
7FFFFFFE00
7FE0000000
7FC0000000
7FC0000000
7FC0000000
7FE0000000
7FF8000000
7FFFC00000
3FFFFE0000
3FFFFFE000
1FFFFFF800
1FFFFFFF00
07FFFFFF80
03FFFFFFE0
00FFFFFFF0
001FFFFFF0
00007FFFF8
000003FFFC
0000007FFC
0000001FFE
0000000FFE
00000007FE
00000007FE
00000003FE
00000003FE
00000003FE
00000003FE
00000007FE
00000007FE
00000007FE
0000000FFC
0000003FFC
000000FFF8
0FFFFFFFF8
7FFFFFFFF0
FFFFFFFFE0
FFFFFFFFC0
FFFFFFFF80
FFFFFFFF00
FFFFFFFE00
7FFFFFF000
3FFFFF8000
ENDCHAR
STARTCHAR Ydieresis
ENCODING -1
SWIDTH 556 0
DWIDTH 40 0
BBX 38 61 1 0
BITMAP
003C003C00
00FE007E00
00FF00FF00
01FF00FF00
01FF01FF00
01FF00FF00
00FF00FF00
007E007E00
003C003C00
0000000000
0000000000
3E000001F0
7F000003F8
7F800007F8
FF800007FC
FFC0000FFC
FFC0000FFC
FFC0000FFC
7FE0001FF8
7FE0001FF8
7FE0001FF8
3FF0003FF0
3FF0003FF0
1FF8007FE0
1FFC00FFE0
0FFC00FFC0
0FFE01FFC0
07FF03FF80
03FF87FF00
03FFCFFF00
01FFFFFE00
00FFFFFC00
007FFFF800
003FFFF000
001FFFE000
000FFFC000
0007FF8000
0003FF0000
0003FF0000
0003FF0000
0003FF0000
0003FF0000
0003FF0000
0003FF0000
0003FF0000
0003FF0000
0003FF0000
0003FF0000
0003FF0000
0003FF0000
0003FF0000
0003FF0000
0003FF0000
0003FF0000
0003FF0000
0003FF0000
0003FF0000
0003FF0000
0001FE0000
0001FE0000
0000780000
ENDCHAR
STARTCHAR Zcaron
ENCODING -1
SWIDTH 500 0
DWIDTH 36 0
BBX 33 63 2 0
BITMAP
03F003F000
03F807F000
01FC0FE000
00FE1FC000
00FE3F8000
007F3F0000
003FFF0000
001FFE0000
000FFC0000
0007F80000
0003F00000
0000000000
0000000000
0FFFFFF800
1FFFFFFE00
3FFFFFFE00
3FFFFFFF00
3FFFFFFF00
3FFFFFFF00
3FFFFFFF00
1FFFFFFF00
07FFFFFF00
000001FF00
000003FE00
000003FE00
000007FE00
00000FFC00
00000FFC00
00001FFC00
00003FF800
00007FF000
0000FFF000
0001FFE000
0003FFE000
0007FFC000
000FFF8000
001FFF0000
003FFE0000
007FFC0000
00FFF80000
01FFF00000
03FFE00000
07FFC00000
07FF800000
0FFF000000
1FFE000000
1FFC000000
3FF8000000
3FF0000000
7FE0000000
7FE0000000
FFC0000000
FF80000000
FF80000000
FFFFFFF800
FFFFFFFE00
FFFFFFFF00
FFFFFFFF80
FFFFFFFF80
FFFFFFFF80
7FFFFFFF00
3FFFFFFF00
0FFFFFFC00
ENDCHAR
STARTCHAR scaron
ENCODING -1
SWIDTH 500 0
DWIDTH 36 0
BBX 32 52 2 0
BITMAP
07E007E0
07F00FE0
03F81FC0
01FC3F80
00FE7F00
00FE7F00
007FFE00
003FFC00
001FF800
000FF000
0007E000
00000000
00000000
00000000
00000000
00FFFFE0
07FFFFF0
1FFFFFF8
3FFFFFF8
3FFFFFF8
7FFFFFF8
7FFFFFF0
7FFFFFE0
7FC00000
7F800000
7FC00000
7FF00000
7FFF8000
7FFFFE00
3FFFFF80
3FFFFFE0
1FFFFFF8
07FFFFFC
01FFFFFC
001FFFFE
00003FFE
000007FF
000001FF
000001FF
000001FF
000001FF
000001FF
000003FF
000007FE
3FFFFFFE
7FFFFFFE
FFFFFFFC
FFFFFFF8
FFFFFFF8
FFFFFFE0
7FFFFFC0
3FFFFE00
ENDCHAR
STARTCHAR zcaron
ENCODING -1
SWIDTH 444 0
DWIDTH 32 0
BBX 30 52 1 0
BITMAP
0FC00FC0
0FE01FC0
07F03F80
03F87F00
01FCFE00
01FCFE00
00FFFC00
007FF800
003FF000
001FE000
000FC000
00000000
00000000
00000000
00000000
0FFFFFE0
1FFFFFF0
3FFFFFF8
3FFFFFF8
3FFFFFF8
3FFFFFF8
1FFFFFF8
0FFFFFF8
00003FF0
00003FF0
00007FF0
0000FFE0
0001FFE0
0003FFC0
000FFF80
001FFF00
003FFE00
007FFC00
00FFF800
01FFF000
03FFC000
07FF8000
0FFF0000
1FFE0000
3FFC0000
3FF80000
7FF00000
7FE00000
7FE00000
FFFFFFE0
FFFFFFF8
FFFFFFFC
FFFFFFFC
FFFFFFFC
FFFFFFFC
7FFFFFF8
3FFFFFF0
ENDCHAR
STARTCHAR Delta
ENCODING -1
SWIDTH 709 0
DWIDTH 51 0
BBX 47 50 2 0
BITMAP
00003FF80000
00003FFC0000
00007FFC0000
00007FFC0000
00007FFE0000
0000FFFE0000
0000FFFF0000
0001FFFF0000
0001FEFF0000
0001FEFF8000
0003FCFF8000
0003FC7FC000
0007FC7FC000
0007F87FC000
0007F83FE000
000FF03FE000
000FF03FF000
001FF01FF000
001FE01FF000
003FE00FF800
003FE00FF800
003FC00FFC00
007FC007FC00
007F8007FC00
00FF8003FE00
00FF0003FE00
00FF0003FF00
01FF0001FF00
01FE0001FF00
03FE0000FF80
03FC0000FF80
03FC0000FFC0
07FC00007FC0
07F800007FC0
0FF800003FE0
0FF000003FE0
0FF000003FF0
1FF000001FF0
1FE000001FF0
3FE000000FF8
3FC000000FF8
7FC0000007FC
7F80000007FC
7FFFFFFFFFFC
FFFFFFFFFFFE
FFFFFFFFFFFE
FFFFFFFFFFFE
FFFFFFFFFFFE
FFFFFFFFFFFE
FFFFFFFFFFFE
ENDCHAR
STARTCHAR Omega
ENCODING -1
SWIDTH 786 0
DWIDTH 57 0
BBX 50 49 3 0
BITMAP
00000FFE000000
0000FFFFC00000
0003FFFFF80000
000FFFFFFE0000
001FFFFFFF0000
007FFFFFFF8000
00FFFFFFFFC000
01FFF803FFE000
03FFC000FFF000
07FF80003FF800
07FF00001FFC00
0FFE00000FFC00
0FFC000007FE00
1FF8000007FE00
1FF0000003FF00
3FF0000001FF00
3FF0000001FF00
3FE0000001FF80
3FE0000000FF80
7FE0000000FF80
7FC0000000FF80
7FC0000000FF80
7FC0000000FF80
7FC0000000FF80
7FC0000000FF80
7FC0000000FF80
3FC0000000FF80
3FC0000000FF80
3FE0000000FF00
3FE0000000FF00
1FE0000000FF00
1FE0000001FE00
1FE0000001FE00
0FF0000001FC00
07F0000003FC00
07F8000003F800
03F8000007F800
01FC000007F000
01FE00000FE000
00FE00001FC000
007F00003F8000
001F80007F0000
FFFFE000FFFFC0
FFFFF003FFFFC0
FFFFF803FFFFC0
FFFFF803FFFFC0
FFFFF803FFFFC0
FFFFF803FFFFC0
FFFFF803FFFFC0
ENDCHAR
STARTCHAR pi
ENCODING -1
SWIDTH 641 0
DWIDTH 46 0
BBX 45 36 0 0
BITMAP
03FFFFFFFFF8
3FFFFFFFFFF8
FFFFFFFFFFF8
7FFFFFFFFFF8
7FFFFFFFFFF8
7FFFFFFFFFF0
7FFFFFFFFFF0
407FC003FE00
007FC003FE00
007FC003FE00
007FC003FE00
007FC003FE00
007FC003FE00
007FC003FE00
007F8003FE00
007F8003FE00
007F8003FE00
00FF8003FE00
00FF8003FE00
00FF8003FE00
00FF8003FE00
00FF0003FE00
00FF0003FE00
01FF0003FE00
01FF0003FE00
01FF0003FE00
01FF0003FE00
01FE0003FE00
03FE0003FE00
03FE0003FE00
03FE0003FE00
03FC0003FE00
03FC0003FE00
07FC0003FE00
07FC0003FE00
07F80001FE00
ENDCHAR
STARTCHAR Euro
ENCODING -1
SWIDTH 611 0
DWIDTH 44 0
BBX 42 51 1 -1
BITMAP
00003FFFFF00
0000FFFFFF80
0003FFFFFF80
0007FFFFFFC0
001FFFFFFFC0
001FFFFFFF80
003FFFFFFF80
007FFFFFFF00
00FFFFFFFC00
00FFF8000000
00FFE0000000
01FFC0000000
01FF80000000
01FF80000000
3FFFFFFC0000
7FFFFFFE0000
FFFFFFFF0000
FFFFFFFF0000
FFFFFFFF0000
7FFFFFFE0000
3FFFFFFC0000
03FE00000000
03FE00000000
03FE00000000
03FE00000000
3FFFFFFC0000
7FFFFFFE0000
FFFFFFFF0000
FFFFFFFF0000
FFFFFFFF0000
7FFFFFFE0000
3FFFFFFC0000
00FFC0000000
00FFE0000000
00FFF0000000
007FF8000000
007FFC000000
003FFE000000
001FFF000000
001FFFC00000
000FFFF00000
0007FFFF0000
0003FFFFFF00
0001FFFFFF80
0000FFFFFFC0
00003FFFFFC0
00001FFFFFC0
000007FFFFC0
000001FFFFC0
0000003FFF80
00000007FE00
ENDCHAR
STARTCHAR estimated
ENCODING -1
SWIDTH 844 0
DWIDTH 61 0
BBX 56 52 2 -1
BITMAP
000001FFC00000
00001FF7FC0000
0000FC001F0000
0003E00003C000
0007800000F000
001F0000007800
003C0000001E00
00780000000F00
00F00000000780
01E000000003C0
03E000000003E0
07E000000003E0
0FE000000003F0
0FE000000003F8
1FE000000003F8
1FE000000003FC
3FE000000003FC
3FE000000003FE
3FE000000003FE
7FE000000003FE
7FE000000003FF
7FE000000003FF
7FE000000003FF
7FE000000003FF
FFE000000003FF
FFE000000003FF
FFFFFFFFFFFFFF
FFE00000000000
FFE00000000000
7FE00000000000
7FE00000000000
7FE00000000000
7FE00000000000
7FE00000000000
3FE00000000000
3FE00000000000
1FE00000000000
1FE00000000000
0FE00000000000
0FE00000000000
07E00000000000
03E00000000000
01E000000003C0
00F00000000780
00780000000F00
003C0000001E00
001E0000007C00
0007800000F000
0003E00003E000
0000F8001F0000
00001FC1FC0000
000001FFC00000
ENDCHAR
STARTCHAR partialdiff
ENCODING -1
SWIDTH 610 0
DWIDTH 44 0
BBX 37 55 3 0
BITMAP
001FF80000
01FFFF0000
07FFFFC000
1FFFFFE000
3FFFFFF800
1FFFFFFC00
1FFFFFFE00
0FC01FFF00
0E0007FF00
0C0001FF80
000000FFC0
0000007FC0
0000007FE0
0000003FE0
0000001FE0
0000001FF0
0000001FF0
0000000FF0
0000000FF8
0000000FF8
0003C00FF8
003FFC07F8
00FFFF07F8
01FFFF87F8
07FFFFE7F8
0FFFFFE7F8
0FFFFFF7F8
1FFE07FFF8
3FF801FFF8
3FF0007FF8
7FE0003FF8
7FC0001FF8
7FC0001FF8
FF80000FF8
FF80000FF8
FF80000FF0
FF80001FF0
FF00001FF0
FF00001FF0
FF00003FE0
FF80003FE0
FF80003FE0
FF80007FC0
7F8000FFC0
7FC000FF80
7FE001FF00
3FF003FF00
3FF80FFE00
1FFFFFFC00
0FFFFFF800
07FFFFF000
03FFFFE000
01FFFF8000
007FFE0000
000FF00000
ENDCHAR
STARTCHAR product
ENCODING -1
SWIDTH 767 0
DWIDTH 55 0
BBX 52 55 2 -7
BITMAP
FFFFFFFFFFFFF0
FFFFFFFFFFFFF0
FFFFFFFFFFFFF0
FFFFFFFFFFFFF0
FFFFFFFFFFFFF0
FFFFFFFFFFFFF0
FFFFFFFFFFFFF0
00FF00001FE000
00FF00001FE000
00FF00001FE000
00FF00001FE000
00FF00001FE000
00FF00001FE000
00FF00001FE000
00FF00001FE000
00FF00001FE000
00FF00001FE000
00FF00001FE000
00FF00001FE000
00FF00001FE000
00FF00001FE000
00FF00001FE000
00FF00001FE000
00FF00001FE000
00FF00001FE000
00FF00001FE000
00FF00001FE000
00FF00001FE000
00FF00001FE000
00FF00001FE000
00FF00001FE000
00FF00001FE000
00FF00001FE000
00FF00001FE000
00FF00001FE000
00FF00001FE000
00FF00001FE000
00FF00001FE000
00FF00001FE000
00FF00001FE000
00FF00001FE000
00FF00001FE000
00FF00001FE000
00FF00001FE000
00FF00001FE000
00FF00001FE000
00FF00001FE000
00FF00001FE000
00FF00001FE000
00FF00001FE000
00FF00001FE000
00FF00001FE000
00FF00001FE000
00FF00001FE000
00FF00001FE000
ENDCHAR
STARTCHAR summation
ENCODING -1
SWIDTH 602 0
DWIDTH 43 0
BBX 40 55 2 -7
BITMAP
FFFFFFFFFE
FFFFFFFFFE
FFFFFFFFFE
FFFFFFFFFE
FFFFFFFFFE
FFFFFFFFFE
7FFFFFFFFE
3FF8000000
1FFC000000
0FFC000000
07FE000000
07FF000000
03FF800000
01FFC00000
00FFE00000
007FF00000
003FF00000
001FF80000
001FFC0000
000FFE0000
0007FF0000
0003FF8000
0001FFC000
0000FFC000
0000FFE000
00007FF000
00003FF800
00001FF000
00003FE000
00007FC000
0000FF8000
0001FF0000
0003FE0000
0007FC0000
0007FC0000
000FF80000
001FF00000
003FE00000
007FC00000
00FF800000
01FF000000
01FE000000
03FE000000
07FC000000
0FF8000000
1FF0000000
3FE0000000
7FFFFFFFFF
FFFFFFFFFF
FFFFFFFFFF
FFFFFFFFFF
FFFFFFFFFF
FFFFFFFFFF
FFFFFFFFFF
FFFFFFFFFF
ENDCHAR
STARTCHAR uni2219
ENCODING -1
SWIDTH 305 0
DWIDTH 22 0
BBX 10 10 6 13
BITMAP
3F00
7F80
FFC0
FFC0
FFC0
FFC0
FFC0
FF80
7F80
1E00
ENDCHAR
STARTCHAR radical
ENCODING -1
SWIDTH 626 0
DWIDTH 45 0
BBX 43 68 3 -10
BITMAP
0000000007E0
000000000FE0
000000000FC0
000000000FC0
000000000FC0
000000001FC0
000000001F80
000000001F80
000000001F80
000000003F00
000000003F00
000000003F00
000000003F00
000000007E00
000000007E00
000000007E00
000000007E00
00000000FC00
00000000FC00
00000000FC00
00000000FC00
00000001F800
00000001F800
00000001F800
00000001F800
00000003F000
00000003F000
00000003F000
00000003F000
00000007E000
00300007E000
01F00007E000
07F80007E000
3FF8000FC000
FFF8000FC000
FFFC000FC000
FFFC000FC000
FDFC001F8000
61FE001F8000
01FE001F8000
00FE001F8000
00FF003F0000
007F003F0000
007F803F0000
007F803E0000
003F807E0000
003FC07E0000
001FC07E0000
001FC0FC0000
001FE0FC0000
000FE0FC0000
000FF0FC0000
000FF1F80000
0007F1F80000
0007F9F80000
0003F9F80000
0003F9F00000
0003FBF00000
0001FFF00000
0001FFF00000
0000FFE00000
0000FFE00000
0000FFE00000
00007FE00000
00007FC00000
00007FC00000
00003FC00000
00003FC00000
ENDCHAR
STARTCHAR infinity
ENCODING -1
SWIDTH 799 0
DWIDTH 58 0
BBX 50 25 4 8
BITMAP
00100000020000
01FF80003FE000
07FFC000FFF800
0FFFF003FFFC00
1FFFF807FFFE00
3F83FC0FF07F00
7E00FE1FC03F80
7C007F3F801F80
FC003FBE000F80
F8001FFE000FC0
F8000FFC0007C0
F80007F80007C0
F00003F00007C0
F00003F00007C0
F80007F80007C0
F8000FFC0007C0
F8001FFE000F80
FC003F7F000F80
7E007E3F801F80
7F01FC1FE03F00
3FFFF80FFFFE00
1FFFF007FFFE00
0FFFE001FFF800
07FF8000FFF000
00FE00001FC000
ENDCHAR
STARTCHAR integral
ENCODING -1
SWIDTH 395 0
DWIDTH 28 0
BBX 26 72 1 -12
BITMAP
00001F00
0000FFC0
0003FFC0
0007FFC0
000FFFC0
000FFFC0
001FF000
001FE000
003FC000
003FC000
003F8000
003F8000
007F8000
007F8000
007F8000
007F8000
007F0000
007F0000
007F0000
007F0000
007F0000
007F0000
007F0000
007F0000
007F0000
007F0000
007F8000
007F8000
007F8000
007F8000
007F8000
007F8000
003F8000
003F8000
003F8000
003F8000
003F8000
003F8000
003F8000
003F8000
003F8000
003F8000
003F8000
003F8000
003F8000
003F8000
003F8000
003F8000
003F8000
003FC000
003FC000
003FC000
003FC000
003FC000
003FC000
003F8000
003F8000
003F8000
003F8000
003F8000
003F8000
007F8000
007F8000
007F0000
00FF0000
43FF0000
7FFE0000
7FFE0000
FFFC0000
FFF80000
FFE00000
3F800000
ENDCHAR
STARTCHAR approxequal
ENCODING -1
SWIDTH 590 0
DWIDTH 42 0
BBX 36 24 3 8
BITMAP
00FC000000
03FF8000E0
0FFFC000F0
1FFFF001F0
3FFFFC03F0
7F07FF0FE0
7E01FFFFC0
FC007FFF80
78003FFF00
30000FFE00
000001F800
0000000000
0000000000
00FC000000
03FF8000E0
0FFFE000F0
1FFFF001F0
3FFFFC03F0
7F07FF0FE0
7E01FFFFC0
FC007FFF80
78003FFF00
30000FFE00
000001F800
ENDCHAR
STARTCHAR notequal
ENCODING -1
SWIDTH 590 0
DWIDTH 42 0
BBX 35 36 4 2
BITMAP
0000018000
000003E000
000003C000
000007C000
0000078000
00000F8000
00000F8000
00001F0000
FFFFFFFFE0
FFFFFFFFE0
FFFFFFFFE0
FFFFFFFFE0
FFFFFFFFE0
00007C0000
0000F80000
0000F80000
0001F00000
0001F00000
0003E00000
0003E00000
0003C00000
0007C00000
0007800000
FFFFFFFFE0
FFFFFFFFE0
FFFFFFFFE0
FFFFFFFFE0
FFFFFFFFE0
003E000000
003C000000
007C000000
0078000000
00F8000000
00F8000000
01F0000000
0070000000
ENDCHAR
STARTCHAR lessequal
ENCODING -1
SWIDTH 590 0
DWIDTH 42 0
BBX 35 45 4 -1
BITMAP
0000000060
00000003E0
0000000FE0
0000003FE0
000000FFE0
000003FFC0
00000FFF00
00003FF800
0001FFE000
0007FF8000
001FFE0000
007FF00000
01FFC00000
07FF000000
1FFC000000
7FE0000000
FF80000000
FE00000000
FC00000000
FF00000000
FFC0000000
7FF0000000
1FFC000000
07FF800000
01FFE00000
003FF80000
000FFE0000
0003FFC000
0000FFF000
00003FFC00
00000FFF00
000003FFC0
0000007FE0
0000001FE0
00000007E0
00000001E0
0000000060
0000000000
0000000000
0000000000
FFFFFFFFE0
FFFFFFFFE0
FFFFFFFFE0
FFFFFFFFE0
FFFFFFFFE0
ENDCHAR
STARTCHAR greaterequal
ENCODING -1
SWIDTH 590 0
DWIDTH 42 0
BBX 35 45 4 -1
BITMAP
C000000000
F000000000
FC00000000
FF80000000
FFE0000000
7FF8000000
1FFE000000
07FF800000
01FFE00000
003FF80000
000FFE0000
0003FFC000
0000FFF000
00001FFC00
000007FF00
000001FFC0
0000007FE0
0000000FE0
00000007E0
0000001FE0
0000007FE0
000001FFC0
00000FFF00
00003FF800
0000FFE000
0003FF8000
001FFE0000
007FF80000
01FFE00000
07FF800000
1FFE000000
FFF0000000
FFC0000000
FF00000000
FC00000000
F000000000
C000000000
0000000000
0000000000
0000000000
FFFFFFFFE0
FFFFFFFFE0
FFFFFFFFE0
FFFFFFFFE0
FFFFFFFFE0
ENDCHAR
STARTCHAR lozenge
ENCODING -1
SWIDTH 626 0
DWIDTH 45 0
BBX 37 55 4 -3
BITMAP
0001FC0000
0003FE0000
0003FE0000
0007FF0000
0007FF0000
000FFF8000
000FDFC000
001FDFC000
003FDFE000
003F8FE000
007F8FF000
007F07F000
00FF07F800
00FE03F800
01FE03FC00
01FC01FE00
03F801FE00
07F800FF00
07F0007F00
0FF0007F80
0FE0003F80
1FE0003FC0
1FC0001FC0
3FC0001FE0
3F80000FE0
7F00000FF0
FF000007F8
FE000007F8
FF000007F8
7F000007F0
7F80000FF0
3F80000FE0
3FC0001FE0
1FE0001FC0
1FE0003F80
0FF0003F80
07F0007F00
07F800FF00
03F800FE00
03FC01FE00
01FC01FC00
01FE03FC00
00FE03F800
00FF07F000
007F87F000
003F8FE000
003F8FE000
001FDFC000
001FDFC000
000FFF8000
000FFF8000
0007FF0000
0007FE0000
0003FE0000
0003FC0000
ENDCHAR
STARTCHAR uni02C9
ENCODING -1
SWIDTH 278 0
DWIDTH 20 0
BBX 22 6 -1 43
BITMAP
7FFFF8
FFFFFC
FFFFFC
FFFFFC
FFFFFC
7FFFF8
ENDCHAR
STARTCHAR uni03A9
ENCODING -1
SWIDTH 786 0
DWIDTH 57 0
BBX 50 49 3 0
BITMAP
00000FFE000000
0000FFFFC00000
0003FFFFF80000
000FFFFFFE0000
001FFFFFFF0000
007FFFFFFF8000
00FFFFFFFFC000
01FFF803FFE000
03FFC000FFF000
07FF80003FF800
07FF00001FFC00
0FFE00000FFC00
0FFC000007FE00
1FF8000007FE00
1FF0000003FF00
3FF0000001FF00
3FF0000001FF00
3FE0000001FF80
3FE0000000FF80
7FE0000000FF80
7FC0000000FF80
7FC0000000FF80
7FC0000000FF80
7FC0000000FF80
7FC0000000FF80
7FC0000000FF80
3FC0000000FF80
3FC0000000FF80
3FE0000000FF00
3FE0000000FF00
1FE0000000FF00
1FE0000001FE00
1FE0000001FE00
0FF0000001FC00
07F0000003FC00
07F8000003F800
03F8000007F800
01FC000007F000
01FE00000FE000
00FE00001FC000
007F00003F8000
001F80007F0000
FFFFE000FFFFC0
FFFFF003FFFFC0
FFFFF803FFFFC0
FFFFF803FFFFC0
FFFFF803FFFFC0
FFFFF803FFFFC0
FFFFF803FFFFC0
ENDCHAR
STARTCHAR afii61289
ENCODING -1
SWIDTH 552 0
DWIDTH 40 0
BBX 36 54 2 0
BITMAP
0000FE0000
0007FF8000
000FFFE000
001FFFF000
003FFFF000
007FFFF800
007FC3F800
00FF81FC00
00FF00FC00
01FF00FC00
01FE00FC00
01FE00FC00
01FE00FC00
01FE00FC00
03FE00FC00
03FE00FC00
03FE00FC00
03FE01FC00
03FE01F800
03FE03F800
03FE03F800
03FE07F000
03FE0FE000
03FE0FE000
03FE1FC000
03FE3FC000
03FE7F8000
03FEFF0000
03FEFE0000
03FFFC0000
03FFF80000
03FFF80000
03FFF00000
03FFE00000
03FF800000
03FF000000
07FE000000
0FFE000000
3FFE000000
7FFE000000
FFFE000000
7FFE000180
7BFE0001C0
31FF0003E0
21FF0007F0
01FF801FE0
00FFE07FC0
00FFFFFFC0
007FFFFF80
007FFFFF00
003FFFFE00
001FFFF800
0007FFE000
0000FF0000
ENDCHAR
STARTCHAR uni03BC
ENCODING -1
SWIDTH 556 0
DWIDTH 40 0
BBX 32 53 4 -15
BITMAP
1E000078
7F0000FE
7F8001FE
7F8001FE
FF8001FF
FF8001FF
FF8001FF
FF8001FF
FF8001FF
FF8001FF
FF8001FF
FF8001FF
FF8001FF
FF8001FF
FF8001FF
FF8001FF
FF8001FF
FF8001FF
FF8001FF
FF8001FF
FF8001FF
FF8001FF
FF8001FF
FF8001FF
FF8001FF
FF8003FF
FF8003FF
FFC007FF
FFC007FF
FFE00FFF
FFF03FFF
FFFFFFFF
FFFFFFFF
FFFFFFFF
FFFFFFFF
FFFFFFFE
FFFFF9FE
FFFFF0FE
FFBF8078
FF800000
FF800000
FF800000
FF800000
FF800000
FF800000
FF800000
FF800000
FF800000
FF800000
FF800000
7F800000
7F000000
1E000000
ENDCHAR
STARTCHAR uni2215
ENCODING -1
SWIDTH 167 0
DWIDTH 12 0
BBX 36 52 -12 -1
BITMAP
00000001C0
00000007F0
00000007F0
0000000FF0
0000001FF0
0000001FF0
0000003FF0
0000007FE0
0000007FC0
000000FFC0
000001FF80
000001FF00
000003FF00
000007FE00
000007FC00
00000FFC00
00001FF800
00001FF000
00003FF000
00007FE000
00007FC000
0000FFC000
0000FF8000
0001FF0000
0003FF0000
0003FE0000
0007FC0000
000FFC0000
000FF80000
001FF80000
003FF00000
003FE00000
007FE00000
00FFC00000
00FF800000
01FF800000
03FF000000
03FE000000
07FE000000
0FFC000000
0FF8000000
1FF8000000
3FF0000000
3FE0000000
7FE0000000
FFC0000000
FF80000000
FF80000000
FF00000000
FE00000000
FE00000000
3800000000
ENDCHAR
ENDFONT
